<?xml version="1.0" encoding="UTF-8"?>
<svg width="176px" height="156px" viewBox="0 0 176 156" version="1.1" xmlns="http://www.w3.org/2000/svg" xmlns:xlink="http://www.w3.org/1999/xlink">
    <title>undraw_booking_33fn</title>
    <defs>
        <linearGradient x1="50.0295703%" y1="99.99835%" x2="50.0295703%" y2="-0.00449966702%" id="linearGradient-1">
            <stop stop-color="#808080" stop-opacity="0.25" offset="0%"></stop>
            <stop stop-color="#808080" stop-opacity="0.12" offset="54%"></stop>
            <stop stop-color="#808080" stop-opacity="0.1" offset="100%"></stop>
        </linearGradient>
    </defs>
    <g id="Page-1" stroke="none" stroke-width="1" fill="none" fill-rule="evenodd">
        <g id="1.000-Book-a-Dev" transform="translate(-165.000000, -1254.000000)" fill-rule="nonzero">
            <g id="Group-19" transform="translate(144.000000, 1085.000000)">
                <g id="Group-47" transform="translate(0.000000, 160.000000)">
                    <g id="Group-43" transform="translate(0.000000, 9.000000)">
                        <g id="undraw_booking_33fn" transform="translate(21.000000, 0.000000)">
                            <path d="M-0.001472,23.808768 L-0.001472,134.683499 C-0.001472,135.71005 0.404173781,136.694555 1.1262279,137.420436 C1.84828202,138.146316 2.82759757,138.554112 3.8487363,138.554112 L162.119264,138.554112 C164.245675,138.554112 165.969472,136.82118 165.969472,134.683499 L165.969472,23.808768 L-0.001472,23.808768 Z" id="Path" fill="#12021E" opacity="0.04"></path>
                            <rect id="Rectangle" fill="#000000" opacity="0.1" x="13.317184" y="34.053888" width="39.955968" height="23.563776" rx="8.8620288"></rect>
                            <rect id="Rectangle" fill="#000000" opacity="0.1" x="63.518272" y="34.053888" width="39.955968" height="23.563776" rx="8.8620288"></rect>
                            <rect id="Rectangle" fill="#5D2784" x="13.317184" y="34.053888" width="38.931456" height="22.539264" rx="8.8620288"></rect>
                            <rect id="Rectangle" fill="#444053" opacity="0.1" transform="translate(133.045804, 45.392823) rotate(-180.000000) translate(-133.045804, -45.392823) " x="113.71936" y="34.053888" width="38.6528876" height="22.6778706" rx="8.8620288"></rect>
                            <rect id="Rectangle" fill="#5D2784" transform="translate(82.844716, 45.392823) rotate(-180.000000) translate(-82.844716, -45.392823) " x="63.518272" y="34.053888" width="38.6528876" height="22.6778706" rx="8.8620288"></rect>
                            <rect id="Rectangle" fill="#444053" opacity="0.1" x="13.317184" y="66.838272" width="38.931456" height="22.539264" rx="8.8620288"></rect>
                            <rect id="Rectangle" fill="#444053" opacity="0.1" transform="translate(133.045804, 78.177207) rotate(-180.000000) translate(-133.045804, -78.177207) " x="113.71936" y="66.838272" width="38.6528876" height="22.6778706" rx="8.8620288"></rect>
                            <rect id="Rectangle" fill="#444053" opacity="0.1" transform="translate(82.844716, 78.177207) rotate(-180.000000) translate(-82.844716, -78.177207) " x="63.518272" y="66.838272" width="38.6528876" height="22.6778706" rx="8.8620288"></rect>
                            <rect id="Rectangle" fill="#444053" opacity="0.1" x="13.317184" y="99.622656" width="38.931456" height="22.539264" rx="8.8620288"></rect>
                            <rect id="Rectangle" fill="#444053" opacity="0.1" transform="translate(133.045804, 110.961591) rotate(-180.000000) translate(-133.045804, -110.961591) " x="113.71936" y="99.622656" width="38.6528876" height="22.6778706" rx="8.8620288"></rect>
                            <rect id="Rectangle" fill="#444053" opacity="0.1" transform="translate(82.844716, 110.961591) rotate(-180.000000) translate(-82.844716, -110.961591) " x="63.518272" y="99.622656" width="38.6528876" height="22.6778706" rx="8.8620288"></rect>
                            <path d="M-0.001472,4.04504492 L-0.001472,23.808768 L165.969472,23.808768 L165.969472,4.04504492 C165.969472,3.03743476 165.56478,2.07087003 164.842654,1.35815098 C164.120529,0.645431937 163.140834,0.244992 162.119263,0.244992 L3.84873707,0.244992 C2.82716559,0.244992 1.84747147,0.645431937 1.12534554,1.35815098 C0.403219604,2.07087003 -0.001472,3.03743476 -0.001472,4.04504492 Z M40.979008,9.4656 C39.2815409,9.4656 37.905472,8.08953106 37.905472,6.392064 C37.905472,4.69459694 39.2815409,3.318528 40.979008,3.318528 C42.6764751,3.318528 44.052544,4.69459694 44.052544,6.392064 C44.052544,8.08953106 42.6764751,9.4656 40.979008,9.4656 L40.979008,9.4656 Z M124.988992,9.4656 C123.291525,9.4656 121.915456,8.08952791 121.915456,6.39206197 C121.915456,4.69459603 123.291525,3.318528 124.988992,3.318528 C126.686459,3.318528 128.062528,4.69459603 128.062528,6.39206197 C128.062528,7.20807979 127.738026,7.99060289 127.160545,8.56714608 C126.583065,9.14368926 125.800016,9.46692172 124.983998,9.4656 L124.988992,9.4656 Z" id="Shape" fill="#5D2784"></path>
                            <path d="M40.4692678,3.31852885 C39.018748,3.31753278 37.7105013,4.1905377 37.1547205,5.53035733 C36.5989397,6.87017696 36.9051117,8.41287128 37.9304317,9.43889651 C38.9557517,10.4649217 40.4982351,10.7721543 41.8384365,10.2172948 C43.1786378,9.66243519 44.0525432,8.35478898 44.0525432,6.90426873 C44.0531962,5.9534983 43.6759624,5.04144514 43.0038972,4.36891769 C42.331832,3.69639025 41.4200385,3.31852885 40.4692678,3.31852885 L40.4692678,3.31852885 Z M40.979008,10.490112 C39.2815409,10.490112 37.905472,9.11404306 37.905472,7.416576 C37.905472,5.71910894 39.2815409,4.34304 40.979008,4.34304 C42.6764751,4.34304 44.052544,5.71910894 44.052544,7.416576 C44.052544,9.11404306 42.6764751,10.490112 40.979008,10.490112 L40.979008,10.490112 Z" id="Shape" fill="#000000" opacity="0.1"></path>
                            <path d="M124.476736,3.318528 C122.496358,3.318528 120.890944,4.92394176 120.890944,6.90432 C120.890944,8.88469824 122.496358,10.490112 124.476736,10.490112 C126.457114,10.490112 128.062528,8.88469824 128.062528,6.90432 C128.062528,4.92394176 126.457114,3.318528 124.476736,3.318528 Z M124.988992,10.490112 C123.291525,10.490112 121.915456,9.11404306 121.915456,7.416576 C121.915456,5.71910894 123.291525,4.34304 124.988992,4.34304 C126.686459,4.34304 128.062528,5.71910894 128.062528,7.416576 C128.062528,9.11404306 126.686459,10.490112 124.988992,10.490112 Z" id="Shape" fill="#000000" opacity="0.1"></path>
                            <path d="M174.024388,144.318837 C173.453153,143.888156 172.827021,143.535812 172.162605,143.271153 C172.112072,143.244992 172.056364,143.230404 171.99951,143.228442 C170.62467,142.240368 169.339982,141.132239 168.160522,139.91706 C168.411437,139.716065 168.642278,139.520096 168.888174,139.326639 C167.382688,138.608084 166.547144,136.962442 165.734181,135.477596 C163.584714,131.530268 160.752243,127.996525 157.3687,125.040963 C157.285898,124.721885 156.801634,124.78972 156.543192,124.583701 C156.371651,124.418585 156.301732,124.174029 156.360025,123.943031 C156.400171,123.711888 156.505555,123.498331 156.563265,123.272213 C156.701268,122.74209 156.580829,122.184331 156.52061,121.639133 C156.460391,121.093936 156.485482,120.485928 156.846799,120.078914 C156.962219,119.945756 157.110259,119.842746 157.22317,119.707075 C157.46311,119.383839 157.55435,118.973639 157.474084,118.578994 C157.446807,118.187694 157.362267,117.80253 157.22317,117.435838 C158.45265,114.085932 159.681293,110.730163 160.9091,107.368532 C161.769736,105.021923 162.6379,102.625065 162.72572,100.122685 C162.795976,98.112741 162.279092,96.0249119 161.064667,94.4898173 C161.285472,94.4370563 161.506276,94.3817828 161.724572,94.3189721 C160.289342,92.4145503 160.133775,89.8920708 160.096138,87.4927004 C160.076065,86.2967838 160.035082,85.1000298 159.97319,83.9024383 C160.389708,84.0858456 160.811244,84.2491536 161.242816,84.3898497 L161.644279,84.5129587 C162.296161,84.7040345 162.961209,84.8467914 163.634029,84.9400718 C163.930108,84.9827831 164.231205,85.0154447 164.529793,85.0355441 L164.529793,85.0355441 C164.098221,83.9535243 163.667484,82.8698296 163.237585,81.78446 C163.013986,81.3041596 162.878023,80.7876721 162.836122,80.2594151 L162.836122,80.2594151 L162.836122,80.1589179 C162.836122,80.0986196 162.836122,80.0383213 162.848668,79.978023 C162.865805,79.8341726 162.898619,79.6926333 162.946524,79.5559348 C162.968745,79.4883769 162.994713,79.4221133 163.024308,79.3574528 C163.113699,79.1594933 163.221216,78.9702523 163.345478,78.7921561 C163.435807,78.6539725 163.536173,78.5208137 163.636538,78.3851425 C164.010491,77.9482209 164.314377,77.4557734 164.53732,76.9254208 C164.625522,76.6569136 164.672065,76.3764467 164.675323,76.0938066 C164.680175,75.8072108 164.654945,75.5208975 164.600049,75.2395805 C164.564921,75.0536607 164.519756,74.8652284 164.469574,74.6843335 L164.469574,74.6843335 C164.436955,74.5712742 164.401827,74.4582148 164.366699,74.3476679 L164.336589,74.2572204 C164.308988,74.1717978 164.281388,74.0888876 164.251278,74.0059775 L164.221169,73.9205548 C164.18855,73.8301074 164.155931,73.7421723 164.120803,73.6517249 L164.10073,73.5989638 C163.621483,72.3653608 162.984161,71.1895437 162.595244,69.9207667 C162.492997,69.5830648 162.409235,69.2400267 162.34433,68.8931829 C162.326766,68.8052479 162.31422,68.7148004 162.299165,68.6268653 C162.28411,68.5389303 162.276583,68.4761196 162.266546,68.4007467 C162.25651,68.3253738 162.243964,68.2248766 162.233928,68.1369415 L162.211345,67.8856986 C162.211345,67.8053008 162.1988,67.7249031 162.193781,67.6344556 C162.193781,67.4811974 162.178726,67.3279392 162.176217,67.1746809 C162.176217,67.1194075 162.176217,67.0666465 162.176217,67.011373 C162.176217,66.8958012 162.176217,66.777717 162.176217,66.6621453 C162.176217,66.5993345 162.176217,66.5365238 162.176217,66.4762255 C162.176217,66.3606537 162.193781,66.2450819 162.203818,66.1320226 C162.203818,66.0767491 162.203818,66.0214757 162.221382,65.9687147 C162.23811,65.8012193 162.260692,65.633724 162.289129,65.4662287 L162.289129,65.4662287 C162.31422,65.3179954 162.341821,65.1672496 162.37193,65.0165038 C162.462814,64.603888 162.509913,64.1828133 162.512442,63.7602889 C162.512442,63.6798912 162.512442,63.596981 162.494878,63.5090459 C162.477314,63.4211109 162.474805,63.3733747 162.46226,63.3080516 C162.461054,63.2879702 162.461054,63.2678346 162.46226,63.2477532 C162.46226,63.2025295 162.439677,63.1573058 162.429641,63.112082 C162.419604,63.0668583 162.417095,63.0693707 162.409568,63.0492713 C162.40204,63.0291718 162.381967,62.9613362 162.366912,62.9186249 C162.351857,62.8759136 162.354366,62.8809385 162.346839,62.8608391 C162.339312,62.8407396 162.311711,62.7703916 162.291638,62.7276803 L162.274074,62.6824565 C162.248982,62.6271831 162.221382,62.5744221 162.193781,62.521661 L162.193781,62.521661 C162.096542,62.3383323 161.98407,62.1635206 161.857556,61.9990756 L161.857556,61.9990756 C161.032048,60.913706 159.659547,60.0871166 158.904295,58.8912 C158.463333,58.1161296 158.176202,57.2629944 158.058714,56.3787703 C158.021077,56.1777759 157.988458,55.9767815 157.95333,55.7782996 C157.918202,55.5798176 157.888093,55.3838481 157.852965,55.1878786 C157.830382,55.0672819 157.8078,54.9366356 157.782709,54.8260887 L157.767654,54.7482034 C157.747581,54.652731 157.727508,54.5547463 157.704925,54.4592739 L157.68987,54.3914383 C157.667288,54.2909411 157.644706,54.190444 157.619614,54.0899468 L157.60456,54.0371857 C157.579468,53.9316637 157.551868,53.8261416 157.524267,53.7206196 C157.523131,53.7080832 157.523131,53.6954695 157.524267,53.6829331 C157.494157,53.5723862 157.461538,53.4618393 157.42892,53.3512924 L157.42892,53.3286806 C157.393792,53.2131088 157.358664,53.1000494 157.321026,52.9869901 L157.321026,52.9869901 C157.283389,52.8714183 157.243243,52.7533341 157.200588,52.6377624 L157.200588,52.6377624 C157.155423,52.5196782 157.112768,52.401594 157.065094,52.2860222 L157.065094,52.2860222 C156.749508,51.4765813 156.32214,50.7154435 155.795468,50.0248354 C154.646281,48.5475267 152.869808,47.4872814 151.028097,47.5576294 C150.039495,47.5953158 149.091039,47.9420311 148.160147,48.286234 L145.743843,49.1781466 L146.418802,48.8666053 C145.716242,48.929416 144.998627,48.9947392 144.363814,49.3062805 C143.729001,49.6178218 143.192045,50.2283422 143.171972,50.9418723 C143.159426,51.3564232 143.32252,51.7684617 143.269828,52.1805002 C143.182008,52.8613686 142.557232,53.3236557 142.233552,53.9266388 C142.043857,54.289948 141.957085,54.6983142 141.982638,55.1074808 L141.982638,55.1275803 C141.982638,55.1753164 141.982638,55.2205402 141.982638,55.2682763 C141.981419,55.2816481 141.981419,55.2951034 141.982638,55.3084752 L141.982638,55.388873 C140.978981,54.9517102 139.975324,54.4969604 138.971667,54.009549 C137.313124,53.1930093 135.634507,52.2332612 134.600741,50.6856044 C134.269534,50.1831185 134.013601,49.6404337 133.684904,49.1429726 C133.307779,48.6075992 132.888234,48.1034859 132.430332,47.6355147 L129.351614,44.299008 C129.115755,44.7437081 129.419361,45.2688059 129.65773,45.7109935 C129.910872,46.1747954 130.102354,46.6697532 130.227305,47.1832774 C130.288026,47.3506069 130.282641,47.5348384 130.21225,47.6983255 C130.100197,47.8331058 129.954872,47.9361796 129.790714,47.9973046 C129.212459,48.3617458 128.95182,49.0704155 129.155901,49.7233438 C129.378162,50.3594598 129.918848,50.8311505 130.578585,50.9644841 C130.795925,50.9892714 131.009238,51.0416142 131.213398,51.1202548 C131.584751,51.3036622 131.760391,51.7307752 132.02636,52.0498538 C132.510625,52.6327375 133.280932,52.8513189 134.01611,53.0422636 C135.155261,54.3587768 136.339576,55.6200165 137.478727,56.9365297 C139.202508,58.9288865 140.966435,60.9564173 143.214627,62.3030796 C143.447977,62.4437757 143.686346,62.5744221 143.927224,62.6950187 C143.927224,62.7352176 143.927224,62.7754164 143.914678,62.8156153 C143.851747,63.11258 143.889722,63.4220855 144.022571,63.6949657 C144.223302,64.0140443 144.637311,64.1095166 145.006155,64.1748398 L146.707353,64.4788438 C146.692278,64.699661 146.664633,64.919437 146.624552,65.1371004 C146.601969,65.2702592 146.574369,65.4009055 146.549277,65.5340643 L146.549277,65.5340643 L146.519168,65.7049095 C146.519168,65.7049095 146.519168,65.7224965 146.519168,65.7300338 C146.519168,65.7375711 146.519168,65.8204813 146.501604,65.8682175 C146.48404,65.9159536 146.501604,65.9008791 146.501604,65.9159536 L146.501604,66.0365503 L146.501604,66.0867989 C146.501604,66.1395599 146.501604,66.1948333 146.501604,66.2501068 C146.559314,66.9184131 147.003432,67.4711477 147.447551,67.9811709 L147.685919,68.2701003 C147.307655,68.7469738 147.04254,69.3036704 146.910594,69.8981548 C146.83494,70.2710448 146.797943,70.6507605 146.800192,71.0312606 C146.572681,71.2485793 146.400585,71.5174012 146.298363,71.8151387 C146.179432,72.2268458 146.13524,72.6565801 146.167888,73.0839157 L146.167888,73.1140649 C146.167888,73.272348 146.167888,73.4281186 146.167888,73.5864017 C146.138756,74.1866986 146.237989,74.7863035 146.458948,75.3451025 C146.481531,75.3903263 146.506622,75.4305251 146.529204,75.4732364 C146.152833,76.2118908 145.525547,76.7872372 145.076411,77.4831802 C144.145759,79.0661011 144.305278,81.0632067 145.475364,82.4778906 C145.819117,82.8748545 146.260726,83.2567438 146.300872,83.7843541 C146.294881,84.0235958 146.271399,84.262077 146.230616,84.4978841 C146.19047,85.0656933 146.451421,85.6033532 146.591933,86.1535753 C146.709863,86.6108376 146.714881,87.1585472 146.45393,87.525362 C146.189963,87.9108321 146.068408,88.3763654 146.110178,88.8418752 C146.238144,89.5528928 145.944574,90.2639104 145.894391,90.9849778 C145.871809,91.2940066 145.894391,91.6080603 145.866791,91.9170892 C145.830638,92.2132099 145.769361,92.505709 145.683623,92.7914148 C145.683623,92.8215639 145.668568,92.8542255 145.658532,92.8868871 C145.038774,93.1607419 144.424034,93.4446465 143.831876,93.7737748 C143.512084,93.9164306 143.247712,94.159972 143.079133,94.4672054 C142.979036,94.7758232 142.965153,95.1059779 143.038987,95.4219287 L143.573434,99.1453496 L143.480596,99.1051507 C143.522415,99.7148337 143.565907,100.327029 143.611072,100.941737 C143.64369,101.406536 143.686346,101.898973 143.962352,102.270812 C144.102776,102.420858 144.22957,102.583132 144.341232,102.755711 C144.552,103.182824 144.301086,103.680285 144.115409,104.117448 C143.929733,104.554611 143.864495,105.175181 144.273485,105.411349 C144.486766,105.559924 144.716657,105.683031 144.958481,105.778164 C144.456653,107.873531 144.918335,110.069394 145.385035,112.172298 C145.741334,113.780253 146.098468,115.386533 146.456439,116.991138 C146.596431,117.672816 146.675364,118.365646 146.692299,119.06138 C146.692299,119.161878 146.692299,119.262375 146.692299,119.362872 C146.74264,120.31967 146.911201,121.266533 147.194127,122.181818 C147.751157,124.061116 147.216709,126.317277 147.392349,128.364908 C147.509107,129.349843 147.705464,130.323672 147.979489,131.276814 C149.191405,136.090629 150.272845,140.808972 150.689363,145.758459 C151.134973,146.326609 151.739423,146.749055 152.425689,146.971962 C152.375507,147.57997 152.443253,148.275914 152.425689,148.630166 C152.424992,148.923506 152.379294,149.214997 152.290196,149.494442 C152.076919,150.052201 151.537453,150.416504 150.977914,150.612473 C150.802274,150.672772 150.624125,150.720508 150.443467,150.763219 L150.644198,150.592374 C149.497043,150.342777 148.297878,150.553876 147.304529,151.180282 C146.989384,151.341079 146.751711,151.621593 146.644625,151.959136 C146.603346,152.278298 146.685975,152.601152 146.875466,152.861098 C147.427867,153.670766 148.250992,154.256173 149.196423,154.511764 C150.13069,154.758096 151.090919,154.892199 152.056845,154.911241 L153.8283,155.01425 C153.703865,155.22378 153.753165,155.493143 153.943721,155.64487 C154.13359,155.783714 154.358981,155.865623 154.593589,155.881038 C155.317434,155.988576 156.052323,155.999559 156.779052,155.9137 C156.961304,155.90848 157.137125,155.845101 157.28088,155.732805 C157.348439,155.671376 157.386961,155.584245 157.386961,155.492868 C157.386961,155.401491 157.348439,155.31436 157.28088,155.252931 C157.498402,155.245976 157.689515,155.106441 157.762636,154.901191 C157.832086,154.696971 157.854391,154.479641 157.827873,154.265546 C157.7802,153.438957 157.707434,152.238015 157.278371,151.501873 C157.12588,151.226566 156.808794,151.086824 156.503046,151.160183 C156.225481,149.689037 156.057741,148.199232 156.001217,146.703133 C156.443302,146.537086 156.874114,146.342379 157.290917,146.120249 C156.058928,144.127892 156.036345,141.597875 156.412717,139.281415 C156.562027,138.550066 156.671753,137.811172 156.741415,137.067964 C156.824216,135.585631 156.600903,133.907328 155.780413,132.681262 C157.276101,133.633668 158.599625,134.833196 159.694675,136.228813 C161.428493,138.49 162.484842,141.228548 164.610086,143.11287 C164.889437,142.839853 165.172134,142.568511 165.458176,142.298843 C165.906476,143.059272 166.330521,143.835613 166.730311,144.627866 C167.043959,145.210542 167.2914,145.826583 167.467999,146.464452 C167.663712,147.440238 167.686643,148.442872 167.535746,149.426606 C167.477199,149.949192 167.406107,150.469265 167.322469,150.986825 C167.288738,151.208271 167.237559,151.426697 167.169411,151.640057 C167.168456,151.571973 167.15216,151.504984 167.121737,151.444087 C166.988753,151.210431 166.619909,151.315954 166.419177,151.476749 C166.061673,151.745365 165.766379,152.088183 165.553523,152.481721 C165.436419,152.673894 165.382042,152.897834 165.397956,153.122391 C165.463732,153.396014 165.647623,153.626179 165.899785,153.750498 C166.830677,154.295695 167.999937,153.901244 168.998576,153.499255 C169.274456,153.399859 169.537316,153.267413 169.781428,153.104804 C170.283257,152.743014 170.556753,152.147568 171.056073,151.795828 C171.322618,151.64939 171.579876,151.48661 171.82638,151.308416 C172.290571,150.883816 172.328208,150.167773 172.666942,149.630113 C173.22899,148.703027 174.486071,148.464346 174.977863,147.481986 C175.547438,146.396616 174.882515,145.027342 174.024388,144.318837 Z" id="Path" fill="url(#linearGradient-1)"></path>
                            <path d="M151.570142,148.346303 C151.568622,148.618989 151.52259,148.889795 151.433696,149.14903 C151.225305,149.666081 150.689442,150.003698 150.138694,150.185492 C149.587946,150.367286 149.002466,150.421588 148.441795,150.579773 C148.19553,150.633138 147.967583,150.745259 147.779409,150.905586 C147.28324,151.377778 147.580941,152.227724 148.161459,152.579508 C148.741977,152.931291 149.48127,152.919486 150.170945,152.874628 C151.634365,152.793551 153.088179,152.596914 154.517388,152.286748 C155.033404,152.171061 155.636249,151.944409 155.718117,151.446246 C155.733608,151.287848 155.720179,151.128093 155.678424,150.974054 C155.326357,149.283994 155.139495,147.566538 155.120233,145.843683 C155.120233,145.730357 152.242452,145.657167 151.97452,145.822435 C151.374155,146.197827 151.602393,147.765506 151.570142,148.346303 Z" id="Path" fill="#A1616A"></path>
                            <path d="M164.483,142.032273 C164.969531,142.796485 165.426499,143.575918 165.853904,144.37057 C166.170485,144.919578 166.420415,145.500855 166.598905,146.103264 C166.7953,147.023785 166.818462,147.969994 166.667324,148.898166 C166.608197,149.390017 166.535555,149.881067 166.449398,150.371317 C166.365775,150.851953 166.231473,151.397476 165.798155,151.673842 C166.189379,151.89382 166.664709,151.933595 167.090505,151.781985 C167.508635,151.628475 167.894084,151.404588 168.228279,151.12111 C170.399932,149.42206 172.029306,146.953991 172.110395,144.284055 C172.133297,144.075512 172.091926,143.865146 171.991296,143.678453 C171.888904,143.547801 171.759587,143.438243 171.611193,143.356427 C169.990731,142.309696 168.485532,141.110869 167.118379,139.778088 C167.038032,139.675586 166.920815,139.604611 166.788956,139.578624 C166.68519,139.579199 166.583557,139.606619 166.49501,139.657929 C165.661318,140.054454 164.267608,140.619202 163.920448,141.520395 C164.157748,141.633795 164.353714,141.812109 164.483,142.032273 L164.483,142.032273 Z" id="Path" fill="#A1616A"></path>
                            <path d="M155.266259,150.849683 C153.446119,151.566786 151.474301,151.824944 149.505011,152.071149 C149.252213,152.099833 148.98172,152.118956 148.814874,151.951632 C148.67929,151.791853 148.661225,151.569798 148.769371,151.392291 C148.87669,151.219847 149.020394,151.070134 149.191542,150.952468 L150.498504,149.917448 C149.358941,149.688831 148.170048,149.882181 147.176748,150.457666 C146.864584,150.604741 146.626525,150.862489 146.514419,151.17477 C146.472319,151.475461 146.55574,151.779834 146.746993,152.023342 C147.306341,152.785589 148.13438,153.334677 149.082839,153.572286 C150.023906,153.802927 150.990236,153.928875 151.9622,153.94757 L153.73178,154.043184 C153.605583,154.2405 153.656795,154.496017 153.850595,154.63599 C154.042719,154.768664 154.270542,154.847375 154.507868,154.863073 C155.236507,154.963435 155.975914,154.973078 156.707203,154.891757 C156.8908,154.888839 157.068352,154.82924 157.212798,154.722042 C157.280502,154.664899 157.319214,154.583162 157.319214,154.49735 C157.319214,154.411538 157.280502,154.329801 157.212798,154.272657 C157.431308,154.266417 157.623671,154.134735 157.698169,153.940399 C157.765721,153.748907 157.788154,153.54576 157.763896,153.345203 C157.715864,152.570731 157.642553,151.432927 157.21027,150.756459 C156.777987,150.079991 155.878029,150.610648 155.266259,150.849683 Z" id="Path" fill="#2D2236"></path>
                            <path d="M173.960544,143.688134 C173.360011,143.279864 172.703157,142.946293 172.007108,142.696119 C171.950815,142.656476 171.877806,142.64268 171.809004,142.658686 C171.740201,142.674691 171.683198,142.71873 171.654331,142.778183 C170.411043,144.32502 169.440077,146.041068 168.77683,147.863768 C168.400359,148.901642 168.102868,150.007099 167.339395,150.847053 C167.239354,150.958082 167.076129,151.071524 166.939231,151.006355 C166.741781,150.914636 166.862883,150.622583 166.752311,150.446386 C166.615413,150.224329 166.241575,150.325703 166.017798,150.477763 C165.641539,150.734007 165.332185,151.063798 165.112162,151.443228 C164.986106,151.623038 164.928697,151.836116 164.948937,152.049057 C165.015465,152.30702 165.203548,152.524557 165.462306,152.642817 C166.439025,153.161755 167.665846,152.787637 168.711013,152.401451 C168.999692,152.308127 169.274694,152.18247 169.529771,152.027334 C170.056304,151.687008 170.343264,151.119797 170.867164,150.789126 C171.146747,150.650092 171.416673,150.495321 171.675392,150.325703 C172.159802,149.922621 172.201925,149.244382 172.554702,148.732686 C173.144418,147.856527 174.463383,147.629643 174.979385,146.697969 C175.555938,145.657681 174.860915,144.359132 173.960544,143.688134 Z" id="Path" fill="#2D2236"></path>
                            <path d="M160.09536,93.7355689 C162.084851,95.2178937 162.920134,97.8534169 162.831543,100.320608 C162.742953,102.7878 161.869703,105.154495 161.004046,107.468429 C159.763778,110.779791 158.525198,114.090317 157.288305,117.400005 C157.426209,117.763062 157.511433,118.14373 157.541421,118.530591 C157.62074,118.919648 157.52862,119.323802 157.288305,119.641079 C157.171871,119.774237 157.035189,119.877246 156.908631,120.007891 C156.544144,120.409878 156.521363,121.012857 156.57958,121.548002 C156.637797,122.083146 156.761824,122.635877 156.62261,123.15846 C156.564393,123.382064 156.458084,123.593107 156.417586,123.819225 C156.360074,124.047892 156.430617,124.289606 156.602361,124.452353 C156.855476,124.653346 157.361708,124.588024 157.435112,124.904588 C160.838518,127.814305 163.692665,131.302397 165.863872,135.205489 C166.683968,136.670227 167.511657,138.293247 169.043008,139.001748 C167.550907,140.174979 166.120599,141.423624 164.757755,142.742734 C162.618926,140.883547 161.553308,138.177676 159.806808,135.959213 C158.701279,134.579524 157.367823,133.396117 155.863262,132.459419 C156.690951,133.667891 156.916224,135.326085 156.832696,136.785798 C156.7626,137.519047 156.651905,138.247912 156.501114,138.969086 C156.108784,141.255384 156.144221,143.742675 157.38702,145.717433 C156.060692,146.40081 154.536935,146.908317 153.056206,146.704812 C152.127092,146.573663 151.283381,146.095626 150.697166,145.368207 C150.276994,140.484073 149.178471,135.821031 147.966045,131.080104 C147.688098,130.134298 147.490815,129.166956 147.376285,128.188314 C147.199104,126.178382 147.738241,123.942333 147.173792,122.088171 C146.889415,121.186396 146.719361,120.25296 146.667561,119.30944 C146.667561,119.208943 146.667561,119.110959 146.667561,119.010463 C146.650324,118.32471 146.57069,117.641906 146.429632,116.970382 L145.351358,112.216893 C144.880562,110.139126 144.409767,107.973424 144.91853,105.905707 C144.67587,105.812652 144.444848,105.692095 144.230054,105.546431 C143.817475,105.312777 143.883285,104.70226 144.070591,104.270125 C144.257897,103.837989 144.508482,103.348068 144.298396,102.925983 C144.186326,102.754561 144.058369,102.593906 143.916191,102.446111 C143.637763,102.079299 143.594733,101.594403 143.561828,101.137143 L143.430208,99.3231796 C144.194289,99.6238722 144.830712,100.176618 145.232393,100.888414 C144.235117,99.355841 144.726162,97.1700401 145.462729,95.4967718 C145.743885,94.4440885 146.689589,93.7006946 147.786333,93.6702461 C151.843781,92.9818445 156.799791,91.2759148 160.09536,93.7355689 Z" id="Path" fill="#2D2236"></path>
                            <path d="M157.773376,103.720704 C157.773376,103.720704 155.458432,105.03742 155.458432,106.023706 C155.458432,107.009991 154.870882,115.88656 154.870882,115.88656 L154.870882,122.144717 C154.870882,122.144717 155.255727,125.434004 154.870882,126.255074 C154.486037,127.076144 154.870882,130.858574 154.870882,131.351717 C154.870882,131.84486 155.458432,126.255074 155.458432,126.255074 L155.458432,120.327348 L156.045981,106.844776 L157.773376,103.720704 Z" id="Path" fill="#000000" opacity="0.1"></path>
                            <path d="M147.528256,58.108904 L146.349393,57.6677738 C143.940302,56.7411538 141.528642,55.8120694 139.1966,54.7252625 C137.501504,53.9341853 135.783293,53.0001721 134.72771,51.5092012 C134.388691,51.0163182 134.126721,50.4987911 133.79027,50.0133014 C133.403633,49.4940009 132.974201,49.0053006 132.506106,48.5519034 L129.357336,45.32352 C129.115913,45.7547926 129.424113,46.262462 129.670672,46.6888058 C129.928682,47.1381622 130.124663,47.6178203 130.253683,48.115702 C130.314241,48.2760605 130.307798,48.4526814 130.235704,48.6085849 C130.122319,48.7404859 129.974232,48.8408885 129.806794,48.8993859 C129.216778,49.2464885 128.948833,49.9344711 129.157007,50.5677947 C129.386316,51.1868122 129.938834,51.6439143 130.61068,51.7704291 C130.832821,51.7951038 131.051015,51.8455834 131.260467,51.9207584 C131.64058,52.1006607 131.820363,52.512218 132.092605,52.8202698 C132.588293,53.3846208 133.376769,53.5990249 134.126721,53.7813916 C135.292742,55.0554941 136.502424,56.2753794 137.668445,57.5494819 C139.430318,59.4766542 141.233284,61.4383284 143.534506,62.7444683 C144.351712,63.223815 145.246703,63.5686598 146.182452,63.764736 C146.491911,61.8514418 146.941628,59.9614747 147.528256,58.108904 Z" id="Path" fill="#A1616A"></path>
                            <path d="M147.528256,58.108904 L146.349393,57.6677738 C143.940302,56.7411538 141.528642,55.8120694 139.1966,54.7252625 C137.501504,53.9341853 135.783293,53.0001721 134.72771,51.5092012 C134.388691,51.0163182 134.126721,50.4987911 133.79027,50.0133014 C133.403633,49.4940009 132.974201,49.0053006 132.506106,48.5519034 L129.357336,45.32352 C129.115913,45.7547926 129.424113,46.262462 129.670672,46.6888058 C129.928682,47.1381622 130.124663,47.6178203 130.253683,48.115702 C130.314241,48.2760605 130.307798,48.4526814 130.235704,48.6085849 C130.122319,48.7404859 129.974232,48.8408885 129.806794,48.8993859 C129.216778,49.2464885 128.948833,49.9344711 129.157007,50.5677947 C129.386316,51.1868122 129.938834,51.6439143 130.61068,51.7704291 C130.832821,51.7951038 131.051015,51.8455834 131.260467,51.9207584 C131.64058,52.1006607 131.820363,52.512218 132.092605,52.8202698 C132.588293,53.3846208 133.376769,53.5990249 134.126721,53.7813916 C135.292742,55.0554941 136.502424,56.2753794 137.668445,57.5494819 C139.430318,59.4766542 141.233284,61.4383284 143.534506,62.7444683 C144.351712,63.223815 145.246703,63.5686598 146.182452,63.764736 C146.491911,61.8514418 146.941628,59.9614747 147.528256,58.108904 Z" id="Path" fill="#000000" opacity="0.15"></path>
                            <path d="M144.596363,65.1060438 C144.212705,65.0447749 143.782068,64.959941 143.573274,64.6630226 C143.435088,64.4112898 143.395525,64.1246886 143.461047,63.8500315 C143.668641,62.0739262 144.10663,60.3259928 144.766008,58.642176 C145.34802,59.6154087 146.493776,60.1833242 147.579503,60.6946838 C148.548738,61.1812369 149.559365,61.5972964 150.601792,61.9389135 C150.3408,61.8635056 149.701369,65.4877961 149.3412,65.7093067 C148.887074,65.9967991 147.790907,65.6079773 147.287192,65.530213 L144.596363,65.1060438 Z" id="Path" fill="#2FADD6"></path>
                            <circle id="Oval" fill="#A1616A" cx="147.528256" cy="58.642176" r="5.12256"></circle>
                            <path d="M146.503744,63.385856 C146.503744,63.385856 149.974149,66.4093442 148.486833,68.425003 C146.999516,70.4406618 146.171551,71.7861396 148.15464,71.9549638 C150.137729,72.123788 156.748864,68.5938272 156.748864,68.5938272 C156.748864,68.5938272 150.633501,63.5546802 151.625046,60.531192 C152.61659,57.5077038 146.503744,63.385856 146.503744,63.385856 Z" id="Path" fill="#FBBEBE"></path>
                            <path d="M149.990504,67.4116671 C148.469712,67.7669554 147.284913,68.9256277 146.928306,70.4063382 C146.535066,72.1528186 147.36975,74.1065085 146.58327,75.7148492 C146.212863,76.4795511 145.525328,77.0518441 145.061051,77.7696771 C144.124038,79.3011595 144.284799,81.2411708 145.461902,82.6070331 C145.809475,82.9918508 146.255993,83.3643346 146.296585,83.8724914 C146.290648,84.1041241 146.266903,84.3350007 146.225549,84.5631898 C146.184956,85.1132818 146.448807,85.6362392 146.590881,86.1690637 C146.710122,86.6106174 146.715196,87.1409751 146.451344,87.4961915 C146.185217,87.8684198 146.063004,88.3201446 146.106308,88.7715169 C146.23316,89.4622153 145.936327,90.150447 145.885586,90.8485458 C145.862753,91.149493 145.885586,91.4504402 145.857679,91.7513873 C145.820742,92.0378134 145.759647,92.3208019 145.675013,92.597493 L145.228495,94.1984333 C147.648823,95.2048796 150.221374,95.5674963 152.839591,95.5206275 C155.183808,95.4762255 157.495044,95.0050704 159.788521,94.5339154 C160.486205,94.3908422 161.183888,94.2477689 161.871424,94.0627604 C160.420242,92.2176088 160.265483,89.7730296 160.22489,87.4517894 C160.161651,83.5817472 159.864305,79.7186738 159.334392,75.8825903 C160.03715,74.5924642 160.349205,73.1543314 160.638427,71.7211321 C160.768283,71.1438143 160.822835,70.5528923 160.800797,69.9623178 C160.72976,68.7289277 160.146242,67.5572071 159.57541,66.4397557 C159.052782,65.4185087 158.487024,64.3429925 157.322526,63.9014388 C156.750944,63.6672269 156.095422,63.7372163 155.589733,64.0864473 C154.709383,64.7327438 154.970697,65.8477284 154.744902,66.7999056 C154.448069,68.0332957 153.278497,68.9188698 152.032814,69.2666858 C151.103147,69.5035712 150.139898,69.5910628 149.181191,69.5256977 C148.989671,69.5150629 148.820692,69.4003193 148.744479,69.2291513 C148.668265,69.0579833 148.697848,68.8596579 148.820932,68.7165938 C149.229394,68.2775069 149.640393,67.8310197 149.990504,67.4116671 Z" id="Path" fill="#2FADD6"></path>
                            <path d="M153.574221,88.353024 C151.59867,89.9641605 149.600266,91.5904964 147.320003,92.7304515 C145.981809,93.3992251 144.559818,93.8932056 143.257174,94.6126439 C142.935083,94.7538586 142.667725,94.9956864 142.495393,95.3016835 C142.391683,95.6080606 142.37759,95.9375695 142.454765,96.251646 L143.033718,100.233889 C143.193692,101.313047 144.232253,102.007152 145.065133,102.696192 C145.019426,102.33394 144.945787,102.052751 145.118457,101.73103 C145.178318,101.630476 145.243588,101.533227 145.313981,101.439708 C145.669479,100.902663 145.682175,100.206023 145.59584,99.5676486 C145.509505,98.9292738 145.341913,98.3010319 145.374923,97.6474577 C145.360393,97.4274369 145.462547,97.215922 145.644086,97.0901463 C148.480448,95.7297999 151.535188,94.6861077 154.402022,93.3941586 C155.160544,93.0882726 155.875193,92.6836708 156.527389,92.1908727 C157.182751,91.6893419 157.623628,90.9590072 157.761474,90.1465533 C157.78805,90.0401358 157.769692,89.9275007 157.710688,89.8349656 C157.653163,89.7720325 157.577937,89.7278868 157.494851,89.7083039 C156.209981,89.242189 154.854012,88.8140725 153.574221,88.353024 Z" id="Path" fill="#A1616A"></path>
                            <path d="M147.843977,71.9742714 C146.911621,72.1387029 145.930956,72.6446458 145.614534,73.5806402 C145.500714,73.9909866 145.458172,74.4194034 145.488932,74.8454975 C145.459981,75.4444508 145.556435,76.0427898 145.771537,76.5985898 C145.930466,76.9053551 146.119923,77.1936591 146.336748,77.4586927 C148.568606,80.4538749 149.689366,84.2155605 151.863254,87.2588072 C152.056488,87.526957 152.409141,87.8760576 152.300447,88.1922719 C152.260952,88.274308 152.226266,88.3587883 152.196583,88.4452434 C152.176509,88.6113457 152.236195,88.7770923 152.356002,88.8879435 C152.471891,88.9992466 152.561946,89.1368272 152.619284,89.2901681 C152.660346,89.4495401 152.558898,89.6569767 152.401895,89.6443281 C152.662762,90.4892528 153.462269,90.9825472 154.220715,91.3822421 C155.48157,92.047557 156.877689,92.571208 158.281054,92.4270142 C158.544336,91.3215289 158.911481,90.0718499 158.76414,88.9461269 C158.609942,88.0864467 158.337376,87.2547702 157.954971,86.4771254 L157.010537,84.3167491 C156.206199,82.4725871 155.394614,80.6157766 154.273854,78.9638729 C153.870082,78.4409267 153.530107,77.8673213 153.261788,77.2563156 C152.974352,76.4746337 152.184506,75.9256857 151.706251,75.2553113 C150.996114,74.2434254 150.256992,73.2315396 149.305313,72.5004521 C148.923675,72.1918269 148.310155,71.8933205 147.843977,71.9742714 Z" id="Path" fill="#000000" opacity="0.1"></path>
                            <path d="M147.843807,70.9497647 C146.911436,71.1142164 145.930756,71.6202217 145.614329,72.5538015 C145.500918,72.9642824 145.458382,73.3926744 145.488725,73.8188148 C145.459773,74.4178419 145.556229,75.0162547 145.771335,75.5721232 C145.930266,75.8789264 146.119726,76.1672659 146.336554,76.4323322 C148.568447,79.4278836 149.689225,83.1900331 151.863146,86.233655 C152.056384,86.5018379 152.409042,86.8509815 152.300346,87.1672348 C152.26085,87.249281 152.226164,87.3337718 152.196481,87.4202375 C152.176406,87.5863602 152.236093,87.7521273 152.355902,87.8629921 C152.471792,87.974309 152.561849,88.1119066 152.619188,88.2652663 C152.660251,88.424658 152.558801,88.6321202 152.401796,88.6194701 C152.662666,89.4644989 153.462186,89.9578541 154.220643,90.3575983 C155.481518,91.0229953 156.877659,91.5467108 158.281046,91.4024993 C158.544332,90.2968777 158.911483,89.0470445 158.76414,87.9211827 C158.609939,87.0613966 158.337369,86.2296175 157.954958,85.4518768 L157.01051,83.2912342 C156.206159,81.4468448 155.394561,79.5898053 154.273784,77.937698 C153.869504,77.4141452 153.529492,76.8395646 153.261702,76.2274001 C152.974262,75.4481519 152.184404,74.8991361 151.706141,74.2286791 C150.995993,73.2166685 150.25686,72.2046579 149.305165,71.4734802 C148.923521,71.167347 148.309992,70.8688039 147.843807,70.9497647 Z" id="Path" fill="#2FADD6"></path>
                            <path d="M145.786271,49.6989372 C145.091133,49.7590691 144.376063,49.824212 143.748197,50.1298825 C143.120331,50.435553 142.584652,51.0368721 142.56472,51.738411 C142.56472,52.1468069 142.714212,52.5526973 142.661889,52.9560822 C142.574686,53.6275551 141.954294,54.0810499 141.635378,54.6748525 C141.077275,55.7071169 141.510802,57.0199969 142.233346,57.9319975 C142.95589,58.8439981 143.935062,59.545537 144.677539,60.4525267 C145.862614,61.9199044 146.355394,63.8325836 146.027949,65.6940246 C145.935792,66.0514785 145.891385,66.4196825 145.895898,66.7889264 C145.953203,67.4453664 146.394204,67.9890591 146.832714,68.4901583 C148.965841,70.9985359 150.939721,73.6395474 152.742628,76.3975041 C153.283546,77.1985469 153.769685,78.0356422 154.197683,78.9030003 C154.621243,79.7999679 154.945142,80.7570674 155.533144,81.5513097 C156.075978,82.2332544 156.741064,82.8068871 157.493979,83.2425196 C159.393118,84.4202473 161.547129,85.1190672 163.77264,85.279488 L162.489501,82.0799694 C162.262772,81.5112218 162.028568,80.9124082 162.103314,80.3035726 C162.245331,79.1510444 163.401402,78.3943846 163.777623,77.2969773 C164.026776,76.5904274 163.914657,75.8112181 163.710352,75.0921407 C163.256893,73.4710846 162.349975,72.0128859 161.861635,70.4018519 C161.433471,68.9892681 161.337936,67.4958919 161.582583,66.0397831 C161.689719,65.3983761 161.864127,64.7544635 161.784398,64.110551 C161.547702,62.151253 159.262967,61.2141975 158.206558,59.5530535 C157.523878,58.4857122 157.391827,57.1703267 157.162606,55.9225896 C156.831232,54.1010939 156.240739,52.2821037 155.099617,50.8289159 C153.958496,49.3757282 152.199474,48.3234198 150.365706,48.4010902 C149.384043,48.4386726 148.444735,48.7819256 147.520377,49.1176621 L145.11854,49.9970912" id="Path" fill="#2D2236"></path>
                            <g id="Group" opacity="0.1" transform="translate(141.381184, 53.519616)" fill="#000000">
                                <path d="M15.5172993,0.741866098 C15.7277808,1.88261226 15.8596486,3.07925243 16.392192,4.098048 C16.3186503,3.70170858 16.2577882,3.30282852 16.1842465,2.91157037 C16.0120313,1.9156528 15.7384137,0.940034628 15.36768,-1.75620244e-13 C15.431078,0.24644182 15.4741887,0.49288364 15.5172993,0.741866098 Z" id="Path"></path>
                                <path d="M19.599174,11.6116404 C19.3520559,13.151694 19.4490644,14.7307151 19.8825978,16.2249711 C20.0015346,16.6301603 20.1356548,17.0194597 20.2976113,17.416704 C20.0868329,16.2468599 20.0756951,15.047194 20.2647138,13.8732847 C20.3735283,13.1953211 20.5506682,12.5147092 20.46969,11.8340973 C20.395159,11.2509096 20.1673854,10.7008252 19.8117419,10.24512 C19.7737833,10.7059234 19.6725605,11.1587819 19.599174,11.6116404 Z" id="Path"></path>
                                <path d="M21.3473414,21.9334461 C21.2334989,21.442213 21.0962615,20.9602531 20.9363906,20.49024 C21.0055209,20.9946778 20.978748,21.5128435 20.8583099,22.0014232 C20.548042,23.1439614 19.5925812,23.936156 19.4775149,25.1388278 C19.4158723,25.7741522 19.6069645,26.3990187 19.7960019,26.992511 C19.8658635,27.2147438 19.9357252,27.4395912 20.0014773,27.661824 C19.9963508,27.5651973 19.9963508,27.4682408 20.0014773,27.3716141 C20.1185983,26.1689423 21.0720044,25.3793622 21.3822723,24.2342095 C21.6041857,23.4969194 21.5158313,22.6838087 21.3473414,21.9334461 Z" id="Path"></path>
                                <path d="M15.787748,28.5543609 C15.0544653,28.111438 14.4067027,27.5289698 13.8778115,26.8369461 C13.3026464,26.0315903 12.987155,25.058558 12.5745894,24.1515801 C12.1583286,23.2717318 11.6847842,22.4228794 11.1573049,21.6110256 C9.40185489,18.8138339 7.48003281,16.1350324 5.40322708,13.5904953 C5.32799451,13.5015759 5.2551888,13.410116 5.1823831,13.318656 C5.13232272,13.5536334 5.11353895,13.7947285 5.12656539,14.0350923 C5.1823831,14.7007176 5.61193678,15.2520179 6.0390636,15.7601288 C8.11681904,18.303605 10.039461,20.981571 11.7955683,23.7781186 C12.3224454,24.5903699 12.7959652,25.4391783 13.2128527,26.318673 C13.6254184,27.2281915 13.9409098,28.1986833 14.5136481,29.004039 C15.0423915,29.6955258 15.690213,30.2771851 16.4235845,30.7189133 C18.2734248,31.9131204 20.3715223,32.6217185 22.539264,32.784384 L21.6898641,30.5995072 C19.597318,30.4076508 17.5763854,29.707376 15.787748,28.5543609 L15.787748,28.5543609 Z" id="Path"></path>
                                <path d="M2.67403575,5.89443521 C1.91523704,4.97529433 0.926269387,4.27705196 0.192763966,3.3426767 C0.127001411,3.25634855 0.0637681854,3.16748134 0.000534959422,3.073536 C-0.014550482,3.96227364 0.289852003,4.82671449 0.857977503,5.50849761 C1.59148292,6.44541193 2.58550924,7.1436543 3.33924929,8.06279518 C3.63352002,8.41977476 3.88796913,8.80802587 4.098048,9.220608 C3.94141926,8.00033656 3.44819973,6.84828653 2.67403575,5.89443521 L2.67403575,5.89443521 Z" id="Path"></path>
                            </g>
                            <path d="M46.8356938,33.073024 L44.9894845,31.2634191 C44.8053683,31.0822654 44.5546177,30.980352 44.293018,30.980352 C44.0314182,30.980352 43.7806676,31.0822654 43.5965514,31.2634191 L32.0023573,42.4611253 L27.0978069,37.6454414 C26.7159479,37.2732867 26.0969188,37.2732867 25.7150598,37.6454414 L23.8484786,39.4451171 C23.4669125,39.8213092 23.4669125,40.4267492 23.8484786,40.8029414 L31.296978,48.1183127 C31.6820277,48.4899704 32.3023149,48.4899704 32.6873646,48.1183127 L46.8356938,34.4308483 C47.0215315,34.2513728 47.12608,34.0069423 47.12608,33.7519361 C47.12608,33.49693 47.0215315,33.2524995 46.8356938,33.073024 L46.8356938,33.073024 Z" id="Path" fill="#2FADD6"></path>
                            <path d="M97.0367818,33.073024 L95.1905725,31.2634191 C95.0064563,31.0822654 94.7557057,30.980352 94.494106,30.980352 C94.2325062,30.980352 93.9817556,31.0822654 93.7976394,31.2634191 L82.2034453,42.4611253 L77.2988949,37.6454414 C76.9170359,37.2732867 76.2980068,37.2732867 75.9161478,37.6454414 L74.0495666,39.4451171 C73.6680005,39.8213092 73.6680005,40.4267492 74.0495666,40.8029414 L81.498066,48.1183127 C81.8831157,48.4899704 82.5034029,48.4899704 82.8884526,48.1183127 L97.0367818,34.4308483 C97.2226195,34.2513728 97.327168,34.0069423 97.327168,33.7519361 C97.327168,33.49693 97.2226195,33.2524995 97.0367818,33.073024 L97.0367818,33.073024 Z" id="Path" fill="#2FADD6"></path>
                        </g>
                    </g>
                </g>
            </g>
        </g>
    </g>
</svg>