<?xml version="1.0" encoding="UTF-8"?>
<svg width="208px" height="150px" viewBox="0 0 208 150" version="1.1" xmlns="http://www.w3.org/2000/svg" xmlns:xlink="http://www.w3.org/1999/xlink">
    <title>undraw_version_control_9bpv</title>
    <defs>
        <linearGradient x1="50.0228196%" y1="100.006339%" x2="50.0228196%" y2="-0.00916024026%" id="linearGradient-1">
            <stop stop-color="#808080" stop-opacity="0.25" offset="0%"></stop>
            <stop stop-color="#808080" stop-opacity="0.12" offset="54%"></stop>
            <stop stop-color="#808080" stop-opacity="0.1" offset="100%"></stop>
        </linearGradient>
    </defs>
    <g id="Page-1" stroke="none" stroke-width="1" fill="none" fill-rule="evenodd">
        <g id="1.000-Book-a-Dev" transform="translate(-772.000000, -1256.000000)">
            <g id="Group-19" transform="translate(144.000000, 1085.000000)">
                <g id="Group-47" transform="translate(0.000000, 160.000000)">
                    <g id="Group-39" transform="translate(623.000000, 11.000000)">
                        <g id="undraw_version_control_9bpv" transform="translate(5.000000, 0.000000)">
                            <path d="M110.375031,138.89969 C110.11297,137.951029 109.850909,136.991886 109.326787,136.166394 C108.840795,135.466466 108.263529,134.834558 107.610288,134.287417 C105.710346,132.563056 103.378003,130.812489 100.859598,131.24751 C100.080699,131.419803 99.328123,131.694749 98.6215971,132.06514 C98.2547118,132.23548 97.8852058,132.405819 97.5078381,132.549953 C96.4455528,132.99404 95.2714154,133.096617 94.1482166,132.843461 C93.5716825,132.688845 93.0344576,132.411061 92.4657853,132.2381 C92.1957646,132.156972 91.9197353,132.097385 91.6402933,132.059899 C92.1897405,131.813956 92.7228218,131.532972 93.2362445,131.218683 C96.0612616,129.489081 98.3149858,126.362694 98.0005126,123.018796 C97.8930677,121.894555 97.5078381,120.817484 97.1252291,119.756137 L96.118915,116.97305 C95.6838938,115.76757 95.233149,114.538504 94.4391043,113.537431 C93.5559589,112.421051 92.2980663,111.663695 90.998244,111.100264 C88.2072948,109.886922 85.1569053,109.459762 82.145825,109.045706 L81.9361762,109.016879 L81.9361762,76.4872532 C81.9361762,75.3293951 80.9975467,74.3907656 79.8396886,74.3907656 L75.8825682,74.3907656 C75.7078609,73.3215569 75.5331536,72.2540953 75.3584463,71.1883808 C74.8605305,68.1458531 74.3442704,65.0482926 72.9422443,62.3097557 C72.025031,60.5172587 70.5653514,58.8060007 68.5972737,58.454839 C68.2105027,58.4199472 67.8304113,58.331759 67.467791,58.1927781 C66.8912569,57.9097522 66.5767837,57.280806 66.1339007,56.8169581 C64.991315,55.6193395 63.1333028,55.6009952 61.6028668,54.9825314 C60.2506323,54.4453064 59.1447351,53.4337512 57.9130486,52.6554301 C56.6813621,51.8771091 55.1509262,51.3241605 53.7882092,51.8299381 C53.7882092,51.9295213 53.7698649,52.0291045 53.7593825,52.126067 L52.8840989,51.7224931 C51.9406795,51.2848513 50.9789158,50.8367271 50.2215596,50.1186801 C49.2493135,49.2014668 48.7304328,47.9855039 48.3268589,46.6935434 C48.2849292,46.5598924 48.24562,46.4314825 48.2036903,46.287349 C49.8787566,44.5784122 51.0127214,42.4134874 51.4637286,40.0634013 L51.6759979,40.7526216 C51.7237847,40.9074816 51.77977,41.0596917 51.8437169,41.2086077 C51.952076,41.4965993 52.1325413,41.7519578 52.3678388,41.9502402 C52.4349781,42.0029387 52.50905,42.0461473 52.58797,42.0786501 C52.6603427,42.1073553 52.7360759,42.1267289 52.8133425,42.1363035 C52.9221613,42.1497615 53.0325631,42.1417485 53.138298,42.112718 C53.4972339,42.0015853 53.7863855,41.7336382 53.9244809,41.3841885 C53.9662722,41.2811596 53.997018,41.1739887 54.0162022,41.0644742 C54.02633,40.9985163 54.032456,40.9320059 54.0345465,40.8653078 C54.0345465,40.844343 54.0345465,40.8233781 54.0345465,40.8024132 C54.0345465,40.7814483 54.0345465,40.7106919 54.0345465,40.6661415 C54.0345465,40.6215912 54.0345465,40.6189705 54.0345465,40.5927644 C54.0345465,40.5665584 54.0345465,40.5062843 54.0214435,40.461734 L54.0214435,40.3935981 C54.0214435,40.3411859 54.0057198,40.2887737 53.9952374,40.2389822 C53.9847549,40.1891906 53.9952374,40.2101555 53.9952374,40.1970524 C53.9821343,40.1315372 53.9664107,40.0634013 53.9533076,39.9978861 C53.9533076,39.9821624 53.9533076,39.9638182 53.9533076,39.9480945 C53.9533076,39.9323708 53.9297221,39.8406495 53.9166191,39.7856167 C53.903516,39.7305839 53.8982748,39.7148603 53.890413,39.6781717 L53.890413,39.6624481 L53.890413,39.6624481 C53.8642069,39.5576237 53.8406214,39.4554199 53.8170359,39.3505955 C53.6265696,38.4410932 53.5779502,37.5075997 53.6729024,36.5832319 C53.8297501,35.2266859 54.0801784,33.8826041 54.4223967,32.5605962 L54.4774295,32.3221208 C54.4983944,32.2303994 54.5193593,32.1386781 54.5377035,32.0443362 C54.5796333,31.8556523 54.621563,31.6669684 54.6608722,31.4756639 L54.6608722,31.4756639 L54.7552141,30.9934717 L54.8259706,30.5636918 L54.8259706,30.508659 C54.9730861,29.5347808 55.003876,28.5468638 54.9176919,27.5657145 L54.9176919,27.5657145 C54.7971439,26.1951357 54.3726051,24.897934 53.4422887,23.8654138 C52.7845158,23.1342637 51.917094,22.5944182 51.306492,21.8265796 C50.7351991,21.1085326 50.4128641,20.2227665 49.8206064,19.5178226 C48.185346,17.5654685 43.9871296,16.0612386 41.4110704,15.7991777 C38.460264,15.5004282 33.6933753,16.2551637 31.3138618,17.9978691 C30.433337,18.6399184 29.8305969,19.5702348 29.2173742,20.4507596 C28.0905121,22.0886405 26.8116547,23.7239009 25.0060547,24.6437348 C24.3246962,24.9896553 23.5437546,25.2517162 23.0903891,25.8544564 C22.8206717,26.2630364 22.6460448,26.7269171 22.5793703,27.2119322 C22.2321756,28.9182577 22.0513799,30.6542482 22.0395247,32.3954978 L22.0395247,32.3954978 C22.0395247,32.6130084 22.0395247,32.830519 22.0395247,33.0506502 C22.0448972,33.703517 22.1840322,34.3483539 22.4483398,34.9453509 C22.4902695,35.0344516 22.5374405,35.1209317 22.5872321,35.2074119 L22.6186794,35.2624447 C22.9356467,35.7155283 23.2160632,36.1931126 23.4572745,36.6906769 C23.5173666,36.8300103 23.5604796,36.9760665 23.5856843,37.125698 C23.6305821,37.509603 23.6057235,37.8984621 23.5123073,38.273525 L23.5123073,38.273525 C23.5123073,38.3311784 23.4887218,38.3888318 23.4782393,38.4464852 L23.4546539,38.5591715 C23.4546539,38.5984806 23.4546539,38.6377897 23.433689,38.6744783 C23.4127241,38.7871645 23.3943798,38.8998507 23.3786562,39.0099163 L23.3786562,39.0099163 C23.3389269,39.31304 23.358508,39.6209965 23.4363096,39.9166472 C23.508892,40.2498427 23.7206611,40.5360172 24.0180849,40.70283 C24.1673549,40.7744098 24.3262622,40.8238477 24.4897946,40.8495842 C24.654893,40.8784109 24.822612,40.8967552 24.9850898,40.9334437 C25.194027,40.9810743 25.3957956,41.0559666 25.5852094,41.1561955 C25.7666724,41.2430362 25.9365797,41.3521995 26.090987,41.4811511 C26.1673798,41.5505807 26.2399879,41.6240636 26.3084976,41.7012823 C26.4468881,41.8597645 26.5713893,42.0298576 26.6806242,42.2096805 C26.7365305,42.3022754 26.7889427,42.3966173 26.8378608,42.4927064 C27.0256415,42.8719274 27.1757362,43.268669 27.285985,43.6772219 C27.3541208,43.9209386 27.4117743,44.1672759 27.4615658,44.4136131 C27.4851513,44.5236787 27.5061162,44.6337443 27.5244605,44.7411893 C27.5428047,44.8486343 27.561149,44.9586999 27.5768727,45.0661449 L27.5768727,45.0661449 C27.6483778,45.0620824 27.7189542,45.0479671 27.7865214,45.0242152 C28.171751,44.8853229 28.386641,44.4371986 28.507189,44.0021775 C28.5281539,43.9288004 28.5464982,43.8580439 28.5622218,43.7872875 C28.6224959,43.5252265 28.6853905,43.2369595 28.7456645,42.9617955 C29.7786527,45.1554277 31.4442616,46.9898792 33.5282769,48.2292206 C33.601654,48.4467312 33.6724104,48.6616212 33.7353051,48.8817524 C34.0786049,50.0688885 34.2437033,51.3110574 33.6488249,52.3488188 C33.2242862,53.0852101 32.5114804,53.5385755 31.7148151,53.8530487 C31.5999537,53.6999358 31.4521878,53.5745587 31.2824145,53.4861634 C30.5931942,53.1402429 29.7650816,53.5595404 29.1859269,54.0758005 C28.1376831,55.0244611 27.2833644,56.3845575 25.9049238,56.69641 C25.407008,56.8117169 24.85668,56.7881314 24.4426237,57.0921221 C24.1687688,57.3496433 23.9394238,57.6507139 23.7638858,57.9831293 C23.1560775,58.8559986 22.1458917,59.3596103 21.0830022,59.3196402 C20.6034307,59.2960547 20.0347584,59.1859891 19.7071822,59.5371508 C19.4634655,59.7992117 19.4451213,60.213268 19.1830603,60.4622259 C18.8318986,60.8081464 18.2553645,60.6404274 17.7653106,60.6194625 C16.8323736,60.5801534 15.9649518,61.1828936 15.4329681,61.9559734 C14.9009843,62.7290532 14.6467852,63.6541283 14.3847243,64.5765829 L14.3847243,64.5923066 C14.317478,64.6412863 14.2535684,64.6946902 14.1934198,64.7521637 C13.9393383,65.0228346 13.7423708,65.341904 13.6142651,65.690342 C11.4949596,70.5155374 10.2440797,75.6769699 9.91920562,80.9370482 C9.92438447,81.1933751 9.86680599,81.4470803 9.75148661,81.6760601 C9.63423843,81.8256842 9.50543346,81.9658801 9.366257,82.0953576 C9.11467107,82.4033554 8.99859626,82.8001388 9.04451858,83.1951696 C9.0904409,83.5902003 9.29444233,83.9497748 9.60997369,84.1918453 C9.68538032,84.055171 9.7797887,83.9298814 9.89037891,83.8197187 C9.86155221,83.9402667 9.83534611,84.0581942 9.81700184,84.1656392 C9.71174972,84.930178 9.70206639,85.7048447 9.78817514,86.4717756 C10.0362595,90.1126757 10.2869645,93.7509553 10.5402901,97.3866143 C10.6110465,98.4165138 10.681803,99.4437927 10.7761449,100.471072 C10.9595876,102.459241 11.2216486,104.439548 11.5623278,106.411993 C11.5780515,106.501094 11.5963957,106.592816 11.6199812,106.674054 C9.48418443,107.352792 7.58424252,108.579238 6.78495661,110.625934 C6.507172,111.333498 6.38138275,112.103957 6.04070351,112.782695 C5.66595634,113.526948 5.0501131,114.121827 4.64129801,114.850356 C3.93635405,116.103008 3.90490674,117.638685 4.16172647,119.043331 C4.65702167,121.781868 6.13766606,124.229518 8.09264077,126.221181 C8.00616066,126.221181 7.91705993,126.221181 7.83057982,126.221181 C7.19187163,126.291923 6.57874648,126.511858 6.04070351,126.86323 C1.90538166,129.279432 -0.458408137,134.462998 0.403772399,139.195819 C0.574112019,140.120894 0.870240896,141.059072 1.48870475,141.764016 C2.00277796,142.324415 2.66375654,142.729355 3.39650849,142.932808 C3.85476055,143.070713 4.32660113,143.158579 4.80377581,143.194869 C8.02712553,143.45693 11.1482715,141.963182 14.379483,141.837393 C15.4498873,141.820337 16.5203108,141.870225 17.5844885,141.986768 C19.1411306,142.116051 20.7003932,142.198164 22.2622765,142.233105 C24.8016472,142.293379 26.2298794,141.617262 27.849416,139.719941 C28.2474839,139.248027 28.5798257,138.72439 28.8373858,138.163299 C30.2158265,138.08468 31.7384006,137.964132 32.8390566,137.875032 L32.8547803,138.027027 C32.9150543,138.551149 33.0067756,139.153889 33.4260731,139.484086 C33.6619363,139.646759 33.9300827,139.756699 34.212256,139.806421 C36.8590716,140.456332 39.5373346,141.116726 42.2627685,141.116726 C43.5417658,141.090914 44.8182864,140.992922 46.0862378,140.823217 L50.8740914,140.270269 C52.269288,140.447116 53.6461062,140.747034 54.9884484,141.166517 C56.3721302,141.635606 57.6640907,142.332688 59.0163252,142.885637 C62.1610567,144.159253 65.541643,144.615239 68.8907819,145.060743 C69.4620748,145.136741 70.1172272,145.189153 70.5391453,144.798682 C71.0842321,144.27456 70.9034101,143.399276 70.7487941,142.665506 C70.6858995,142.364136 70.6387285,142.062766 70.60204,141.758775 C72.862048,142.354571 75.0732782,143.122019 77.2164584,144.054429 L77.5912056,144.219527 C77.7012712,144.79082 78.2280137,145.246806 78.7337914,145.862649 C78.8998454,146.122571 79.0940722,146.363377 79.3129461,146.580696 C79.5630791,146.743079 79.8474174,146.845334 80.1436793,146.879446 C83.6792251,147.53817 87.2892787,147.701341 90.8698341,147.364259 C91.602652,147.264432 92.3436869,147.238969 93.0816286,147.288261 C93.6237551,147.362097 94.1585651,147.48221 94.6802004,147.647285 L97.7122456,148.517327 C99.9476255,149.156756 102.235418,149.804046 104.554657,149.659913 C105.024925,149.630357 105.492037,149.562875 105.951442,149.458126 C107.785869,149.033587 109.494506,148.008929 110.375031,146.360565 C111.61982,144.119944 111.045907,141.363063 110.375031,138.89969 Z" id="Path" fill="url(#linearGradient-1)" fill-rule="nonzero"></path>
                            <path d="M25.5432797,138.388671 C24.990331,137.130778 24.4662091,135.684202 25.0191577,134.426309 C25.3800923,133.685513 26.0001275,133.102773 26.7618631,132.788428 C27.5156419,132.481057 28.3101589,132.285076 29.1204117,132.206653 C31.6635663,131.873089 34.2369926,131.837909 36.7883152,132.101829 C36.9743784,133.574611 36.581287,135.068359 36.2432284,136.49135 C35.9366171,137.801654 35.7610362,137.99558 34.4088017,138.063715 C33.5335181,138.110886 25.7503078,138.852519 25.5432797,138.388671 Z" id="Path" fill="#FBBEBE" fill-rule="nonzero"></path>
                            <ellipse id="Oval" fill="#2D2236" fill-rule="nonzero" cx="48.8798076" cy="119.420699" rx="37.4747163" ry="10.4824381"></ellipse>
                            <ellipse id="Oval" fill="#000000" fill-rule="nonzero" opacity="0.2" cx="48.8798076" cy="119.420699" rx="37.4747163" ry="10.4824381"></ellipse>
                            <path d="M55.5990504,64.0839083 C54.3145069,66.5660555 52.1810722,68.5041888 49.5873721,69.5452586 C48.0560679,70.1032347 46.4444812,70.409445 44.8152422,70.4519895 C43.0358483,70.5332284 41.2197659,70.4179215 39.547817,69.8099401 C37.3045752,68.9975512 35.4413219,67.3360847 34.044537,65.3994543 C32.6477521,63.4628238 31.6859884,61.2510294 30.850014,59.0208907 C30.4097516,57.8599607 29.990454,56.623033 30.1974822,55.3965877 C31.5470961,55.0899764 33.0251199,54.6392315 33.722202,53.441613 C34.3170804,52.4143341 34.151982,51.1826476 33.8086821,50.0086145 C33.7117196,49.6757971 33.5990334,49.3456003 33.4863472,49.0285065 C33.2242862,48.2685298 32.3201759,46.8245739 32.9622252,46.1746628 C33.3631785,45.7632271 35.0429892,45.5535783 35.6221439,45.2862761 C37.406779,44.4634047 39.0525218,43.273648 41.0127377,42.8831772 C42.7082721,42.5451186 44.4588393,42.8622123 46.151753,43.213374 C46.3763096,43.2460319 46.5919916,43.3235705 46.7859405,43.441367 C47.0070785,43.6277312 47.1706748,43.8731257 47.2576502,44.1489316 C47.7398424,45.3229647 48.0228682,46.6201664 48.4107184,47.843991 C48.8142923,49.1254691 49.333173,50.3283289 50.3054191,51.2376804 C51.0627753,51.9478656 52.0271596,52.3933692 52.970579,52.8257698 L55.2924391,53.8897372 C55.7054486,54.0443807 56.0800523,54.2866661 56.3904745,54.5999224 C56.6941078,55.0172721 56.8755872,55.510896 56.9145964,56.025534 C57.3306208,58.783144 56.8704731,61.6017774 55.5990504,64.0839083 L55.5990504,64.0839083 Z" id="Path" fill="#FBBEBE" fill-rule="nonzero"></path>
                            <path d="M48.400236,47.843991 C44.5974277,51.803235 38.5998728,52.6931183 33.8113027,50.0086145 C33.7143402,49.6757971 33.601654,49.3456003 33.4889678,49.0285065 C33.2269068,48.2685298 32.3227965,46.8245739 32.9648459,46.1746628 C33.3657991,45.7632271 35.0456098,45.5535783 35.6247645,45.2862761 C37.4093996,44.4634047 39.0551424,43.273648 41.0153583,42.8831772 C42.7108927,42.5451186 44.4614599,42.8622123 46.1543736,43.213374 C46.3789302,43.2460319 46.5946122,43.3235705 46.7885611,43.441367 C47.0096991,43.6277312 47.1732954,43.8731257 47.2602709,44.1489316 C47.72936,45.3229647 48.0123858,46.6201664 48.400236,47.843991 Z" id="Path" fill="#000000" fill-rule="nonzero" opacity="0.1"></path>
                            <circle id="Oval" fill="#FBBEBE" fill-rule="nonzero" cx="39.7076742" cy="38.9679865" r="12.0548039"></circle>
                            <path d="M76.4355168,78.0910663 L75.4449264,72.0898704 C74.94439,69.0787901 74.4281299,66.0100563 73.0287244,63.2977254 C72.1088905,61.5209522 70.6492109,59.8280384 68.6811332,59.4768767 C68.2934581,59.4423238 67.912455,59.3541286 67.5490299,59.2148158 C66.9724958,58.9370312 66.6580226,58.3133261 66.2151396,57.8520988 C65.0725539,56.6675833 63.2119211,56.6492391 61.6814851,56.0464989 C60.3292506,55.522377 59.2233534,54.5134423 57.9916669,53.7429831 C56.7599804,52.9725239 55.2269238,52.4326783 53.8642069,52.9253529 C53.6440757,55.2707984 53.4108414,57.6686562 52.4150098,59.8044529 C51.1022935,62.6204726 48.5878989,64.6929263 45.5730492,65.4438406 C42.5581995,66.1947549 39.3654763,65.5437838 36.8852777,63.6724726 C34.5503146,61.9140436 33.0539466,59.2017127 32.3568644,56.3635926 C32.1865248,55.6717517 31.9925997,54.877707 31.3557916,54.5606133 C30.6665713,54.2146928 29.8384587,54.6339903 29.259304,55.1423886 C28.2110602,56.0831874 27.3541208,57.4301807 25.9756802,57.7472745 C25.4777644,57.8625813 24.9274364,57.8389958 24.5133801,58.1403659 C24.2381957,58.394321 24.0078417,58.6928952 23.8320216,59.0235113 C23.219236,59.8893865 22.2112177,60.3879762 21.1511381,60.3495397 C20.6715665,60.3259542 20.1028943,60.2158886 19.7753181,60.5644297 C19.5316014,60.8264907 19.5132571,61.2353057 19.2511962,61.4790224 C18.8974139,61.8223223 18.3235004,61.6546033 17.8308258,61.636259 C16.8978888,61.5969499 16.030467,62.1944488 15.4958627,62.9465638 C14.9612584,63.6986787 14.7096798,64.6289951 14.4476189,65.5304848 C17.3119451,71.9090484 19.9325546,78.2954738 22.7968809,84.6740374 C22.9310776,84.9144493 23.002295,85.1848949 23.003909,85.4602203 C22.9464661,85.7459828 22.824571,86.0148692 22.6475061,86.2464031 C21.2428594,88.5027479 21.2874098,91.3408681 21.4420257,93.9929249 C21.5966417,96.6449818 21.7853256,99.4464134 20.6008101,101.823306 C20.2784751,102.475838 19.8591776,103.073337 19.5525663,103.725869 C18.8345192,105.203892 18.5750789,109.931472 18.9943764,111.519561 L78.2411168,111.519561 C77.1116341,108.414139 77.541414,102.18233 77.7772689,98.8856029 C77.9423673,96.5794665 77.5152079,94.2759507 77.3317653,91.9698144 C76.930812,87.260579 77.2138378,82.7924398 76.4355168,78.0910663 Z" id="Path" fill="#2FADD6" fill-rule="nonzero"></path>
                            <path d="M9.90872318,84.9570632 C9.80387961,85.7154415 9.79331686,86.4838818 9.87727586,87.2448554 L10.6293908,98.0601109 C10.7001473,99.079528 10.7709037,100.096325 10.8652457,101.113121 C11.0460677,103.08644 11.3159905,105.044035 11.6514285,106.99901 C11.6671426,107.576985 12.147876,108.033095 12.7258784,108.018427 C16.0409495,108.72075 19.4660861,108.691924 22.8492931,108.500619 C28.0118938,108.212352 33.1666328,107.554579 38.3370954,107.667265 C39.668365,107.696092 41.2197659,107.667265 42.0269136,106.619022 C42.8340614,105.570778 42.3649722,103.875243 41.3114872,103.028787 C40.2580022,102.18233 38.8271494,101.980543 37.4749149,101.980543 C35.6850385,101.962199 33.8951622,102.216398 32.1105271,102.111573 C30.4726462,102.014611 28.8714538,101.618899 27.2833644,101.223187 L22.8283282,100.114669 C22.9986678,98.7650549 23.5123073,97.4940593 23.9997406,96.2125812 C24.8750242,93.9405127 25.6926544,91.5924466 25.7083781,89.1579003 C25.7241017,86.7233541 24.8068884,84.1630186 22.8126045,82.7688543 C21.172103,81.6236479 19.0598917,81.4113785 17.0603666,81.4585495 C15.6059283,81.5004793 13.0927638,81.1519382 11.7641147,81.7206105 C10.7132503,82.1818377 10.1052689,83.9271637 9.90872318,84.9570632 Z" id="Path" fill="#FBBEBE" fill-rule="nonzero"></path>
                            <path d="M79.467562,109.685135 C80.340225,109.352317 81.3019887,109.472865 82.2375463,109.598655 C85.2486267,110.01009 88.3042574,110.432009 91.0952065,111.634868 C92.4055113,112.195679 93.6529214,112.945173 94.5386875,114.04845 C95.3248703,115.041661 95.783477,116.257624 96.2184982,117.455242 L97.2248122,120.212123 C97.6074212,121.260367 97.9952714,122.329576 98.1027164,123.443335 C98.4171896,126.742682 96.1608448,129.853346 93.3227246,131.567224 C90.4846045,133.281103 87.1433273,133.891705 83.8885303,134.531134 C80.6337333,135.170563 77.3658332,135.878127 74.1241392,136.627621 C72.6121537,137.020001 71.0781238,137.321906 69.5302107,137.531732 C66.0605237,137.924823 62.4336001,137.345668 59.1368733,138.493495 C57.8265685,138.952102 56.5398492,139.633461 55.1797529,139.950554 C54.2763162,140.140643 53.3629009,140.279755 52.4438365,140.367231 L46.2041652,141.080037 C44.9353356,141.24974 43.657943,141.347732 42.3780753,141.373545 C39.6526414,141.373545 36.9717578,140.728875 34.3249422,140.084205 C34.0435375,140.034833 33.7756724,139.926794 33.5387593,139.767112 C33.1194618,139.436915 33.0277405,138.852519 32.9674665,138.323156 C32.7001643,135.980331 32.4660565,133.634885 32.2651431,131.286819 C32.2022485,130.524222 32.1550775,129.69873 32.5717544,129.05668 C33.0958763,128.270498 34.117914,128.02416 35.050851,127.872165 C39.006814,127.225003 43.0143617,126.946896 47.0217954,127.041432 C48.5443695,125.518858 51.0549135,125.510996 53.0491973,124.682883 C53.7828562,124.345961 54.4929115,123.959852 55.1745116,123.527194 C58.7418918,121.445888 62.7284884,120.186256 66.8440859,119.839997 C67.6500557,119.815399 68.4507808,119.701136 69.2314612,119.499318 C70.7750002,119.019746 72.1822675,117.714682 73.7677363,118.034397 C73.964282,117.491931 74.1005537,116.766022 74.5539192,116.393895 C74.7792916,116.202591 75.0570762,116.074181 75.2641043,115.869773 C75.7017461,115.42689 75.7410553,114.729808 75.67554,114.111344 C75.6100248,113.49288 75.4632707,112.858693 75.6231278,112.255953 C75.6896377,112.027756 75.7875365,111.809909 75.9140155,111.608662 C76.7001984,110.251186 77.8873345,109.554104 79.467562,109.685135 Z" id="Path" fill="#2D2236" fill-rule="nonzero"></path>
                            <path d="M79.467562,109.685135 C80.340225,109.352317 81.3019887,109.472865 82.2375463,109.598655 C85.2486267,110.01009 88.3042574,110.432009 91.0952065,111.634868 C92.4055113,112.195679 93.6529214,112.945173 94.5386875,114.04845 C95.3248703,115.041661 95.783477,116.257624 96.2184982,117.455242 L97.2248122,120.212123 C97.6074212,121.260367 97.9952714,122.329576 98.1027164,123.443335 C98.4171896,126.742682 96.1608448,129.853346 93.3227246,131.567224 C90.4846045,133.281103 87.1433273,133.891705 83.8885303,134.531134 C80.6337333,135.170563 77.3658332,135.878127 74.1241392,136.627621 C72.6121537,137.020001 71.0781238,137.321906 69.5302107,137.531732 C66.0605237,137.924823 62.4336001,137.345668 59.1368733,138.493495 C57.8265685,138.952102 56.5398492,139.633461 55.1797529,139.950554 C54.2763162,140.140643 53.3629009,140.279755 52.4438365,140.367231 L46.2041652,141.080037 C44.9353356,141.24974 43.657943,141.347732 42.3780753,141.373545 C39.6526414,141.373545 36.9717578,140.728875 34.3249422,140.084205 C34.0435375,140.034833 33.7756724,139.926794 33.5387593,139.767112 C33.1194618,139.436915 33.0277405,138.852519 32.9674665,138.323156 C32.7001643,135.980331 32.4660565,133.634885 32.2651431,131.286819 C32.2022485,130.524222 32.1550775,129.69873 32.5717544,129.05668 C33.0958763,128.270498 34.117914,128.02416 35.050851,127.872165 C39.006814,127.225003 43.0143617,126.946896 47.0217954,127.041432 C48.5443695,125.518858 51.0549135,125.510996 53.0491973,124.682883 C53.7828562,124.345961 54.4929115,123.959852 55.1745116,123.527194 C58.7418918,121.445888 62.7284884,120.186256 66.8440859,119.839997 C67.6500557,119.815399 68.4507808,119.701136 69.2314612,119.499318 C70.7750002,119.019746 72.1822675,117.714682 73.7677363,118.034397 C73.964282,117.491931 74.1005537,116.766022 74.5539192,116.393895 C74.7792916,116.202591 75.0570762,116.074181 75.2641043,115.869773 C75.7017461,115.42689 75.7410553,114.729808 75.67554,114.111344 C75.6100248,113.49288 75.4632707,112.858693 75.6231278,112.255953 C75.6896377,112.027756 75.7875365,111.809909 75.9140155,111.608662 C76.7001984,110.251186 77.8873345,109.554104 79.467562,109.685135 Z" id="Path" fill="#000000" fill-rule="nonzero" opacity="0.05"></path>
                            <path d="M27.9542404,140.008208 C26.3320831,141.887185 24.9038509,142.558061 22.3644803,142.497787 C20.802597,142.461098 19.2424608,142.379859 17.6840717,142.25407 C16.6189115,142.138888 15.5477004,142.089003 14.4764456,142.104695 C11.2426134,142.230485 8.12146748,143.711129 4.89549714,143.451689 C4.4184873,143.414144 3.94677959,143.326303 3.48822982,143.189628 C2.75639154,142.988011 2.09497752,142.586989 1.57780547,142.031318 C0.95934162,141.331616 0.663212743,140.40392 0.492873123,139.486706 C-0.369307413,134.785333 1.99448239,129.664662 6.13242484,127.272045 C6.67232021,126.923368 7.2860555,126.70533 7.92492176,126.635202 C8.55138581,126.632672 9.17066309,126.768698 9.73838356,127.03357 L9.7776927,127.049294 C11.4588427,127.741027 12.9856834,128.760108 14.2694174,130.047271 C14.4641824,130.270325 14.6965719,130.457479 14.9560171,130.600219 C15.2149313,130.698003 15.4890355,130.749453 15.7657855,130.752215 L19.2092664,130.969725 C19.7926697,130.987136 20.3725217,131.067085 20.9388687,131.208201 C21.563223,131.426178 22.1710355,131.688921 22.7575717,131.994384 C24.6103427,132.822496 26.6649005,133.042628 28.6670462,133.362342 C28.8599845,133.373004 29.0441011,133.446651 29.1911681,133.571991 C29.2710737,133.671376 29.3267056,133.788024 29.3536459,133.91267 C29.9249477,136.050895 29.4009613,138.333278 27.9542404,140.008208 Z" id="Path" fill="#3F3D56" fill-rule="nonzero"></path>
                            <path d="M9.7776927,127.051914 C8.44169884,128.327624 7.28268379,129.776613 6.33159116,131.360196 C4.80535459,133.973661 3.84638319,136.879148 3.51705653,139.88766 C3.39216875,140.985166 3.3825072,142.09273 3.48822982,143.192248 C2.75639154,142.990631 2.09497752,142.589609 1.57780547,142.033939 C0.95934162,141.334236 0.663212743,140.40654 0.492873123,139.489327 C-0.369307413,134.787954 1.99448239,129.667282 6.13242484,127.274666 C6.67232021,126.925988 7.2860555,126.707951 7.92492176,126.637822 C8.55138581,126.635292 9.17066309,126.771318 9.73838356,127.036191 L9.7776927,127.051914 Z" id="Path" fill="#000000" fill-rule="nonzero" opacity="0.1"></path>
                            <path d="M76.4695847,133.571991 C78.3957327,133.519579 80.5577356,133.422616 81.9728647,134.719818 C83.3224786,135.946263 83.5006801,137.969373 83.5897808,139.790697 L83.6919846,141.905529 C83.7234319,142.550199 83.749638,143.215834 83.4901977,143.813333 C83.0289704,144.861577 81.763216,145.367354 80.6075272,145.30708 C79.4518384,145.246806 78.3904915,144.741029 77.3343859,144.285042 C74.467193,143.049838 71.481808,142.109442 68.4243135,141.47837 C68.5238966,140.01607 68.6898686,138.560758 68.9222293,137.112434 C69.0820864,136.108741 69.1082925,134.42893 69.7791686,133.595576 C70.4893538,132.715051 71.4144289,133.192002 72.3788132,133.35448 C73.7319698,133.560974 75.1021607,133.633829 76.4695847,133.571991 L76.4695847,133.571991 Z" id="Path" fill="#FBBEBE" fill-rule="nonzero"></path>
                            <path d="M25.5668651,112.321468 C25.5668651,112.583529 25.1554294,112.321468 25.1187409,112.041063 C24.8304739,109.92099 23.1480425,108.173043 21.1878266,107.323966 C19.2276107,106.474888 16.9948514,106.430338 14.8721576,106.632125 C11.661911,106.936115 8.05857285,108.165181 6.88453978,111.165779 C6.60675517,111.868103 6.48096591,112.628079 6.14028667,113.301576 C5.7629189,114.040588 5.14707565,114.630225 4.73826057,115.348272 C4.0333166,116.590441 4.0044899,118.113015 4.25868902,119.517662 C4.94266811,123.265133 7.50562424,126.470139 10.6110465,128.689795 C13.7164688,130.909451 17.346013,132.23548 20.9650748,133.430478 C30.534656,136.586601 40.3529269,138.93159 50.3159016,140.440608 C51.930197,140.684325 53.5602162,140.909697 55.1063758,141.428578 C56.4900576,141.892426 57.7846387,142.586887 59.1368733,143.131974 C62.2816047,144.395108 65.6648116,144.845853 69.0165712,145.288736 C69.5878641,145.362113 70.2430165,145.414525 70.6649346,145.026675 C71.2100214,144.520897 71.0291993,143.640373 70.8745834,142.914464 C70.3056832,140.154378 70.7829623,137.281363 72.2137148,134.853469 C72.7745253,133.910049 73.5030547,132.943044 73.3982303,131.85025 C73.2724411,130.576634 72.0040661,129.675144 70.7409323,129.470737 C69.4777985,129.266329 68.1936998,129.567699 66.9253248,129.732798 C66.487683,129.790451 66.0107321,129.82714 65.6281231,129.604388 C65.439612,129.4771 65.2686774,129.32555 65.1197248,129.153643 C63.3271607,127.42438 60.6247166,127.046631 58.4266881,128.218085 C57.957599,128.480146 57.2474138,127.89575 56.7599804,127.675619 L51.2488386,125.180799 C44.9174459,122.316473 38.554606,119.439043 31.856328,117.625582 C31.3218887,117.520527 30.813953,117.309333 30.3625806,117.004497 C30.0297632,116.742436 29.7912877,116.386033 29.4846764,116.095146 C28.816421,115.463579 27.8861046,115.212 27.0841981,114.763876 C26.2822915,114.315752 25.3834225,113.220337 25.5668651,112.321468 Z" id="Path" fill="#2D2236" fill-rule="nonzero"></path>
                            <path d="M110.529647,146.570214 C109.649122,148.202854 107.940485,149.21965 106.106058,149.638948 C105.645701,149.742843 105.177716,149.809447 104.706652,149.838114 C102.387413,149.982248 100.097,149.340198 97.8616203,148.706011 L94.8269545,147.851692 C94.3052502,147.687468 93.7704383,147.568231 93.2283827,147.495289 C92.490441,147.445998 91.7494061,147.47146 91.0165882,147.571287 C87.4299446,147.90496 83.8144255,147.742703 80.2720892,147.089095 C79.9757398,147.057104 79.6911188,146.955646 79.4413559,146.792966 C79.2225416,146.578469 79.0282931,146.340273 78.8622012,146.082781 C78.0367092,145.08957 77.1483226,144.510415 78.1258099,143.20011 C78.689241,142.440133 79.7348642,142.060145 80.172506,141.187482 C80.6101478,140.314819 80.3297426,139.075271 80.0703022,138.173781 C79.7165199,136.928992 78.5529693,136.391767 78.1362924,135.249181 C77.8244398,134.387 78.3485618,133.385927 79.1373652,132.916838 C79.9261687,132.447749 80.9010354,132.411061 81.8103869,132.531609 C82.7197385,132.652157 83.6107457,132.908976 84.5253384,132.979733 C87.2140838,133.194623 89.9631032,131.80832 92.5444036,132.589262 C93.1130759,132.762222 93.6503008,133.037386 94.2268349,133.189382 C95.350808,133.440794 96.524984,133.339209 97.5890769,132.898494 C97.9664447,132.756981 98.3359507,132.586642 98.702836,132.418923 C99.4103834,132.050577 100.163901,131.778253 100.943457,131.609154 C103.461863,131.176754 105.796826,132.919459 107.696768,134.620235 C108.348969,135.161524 108.926206,135.787231 109.413267,136.480867 C109.937389,137.298497 110.215174,138.249779 110.461511,139.187957 C111.155973,141.612021 111.729886,144.342696 110.529647,146.570214 Z" id="Path" fill="#3F3D56" fill-rule="nonzero"></path>
                            <path d="M110.529647,146.570214 C109.649122,148.202854 107.940485,149.21965 106.106058,149.638948 C106.819635,148.252557 107.141298,146.697702 107.036374,145.141982 C106.879138,142.649782 105.783723,140.301716 104.386938,138.231434 C103.527636,136.957011 102.550199,135.766363 101.467579,134.675267 C100.634225,133.836672 99.6095669,133.171037 98.7133184,132.403199 C99.4208658,132.034853 100.174384,131.762529 100.95394,131.593431 C103.472345,131.16103 105.807308,132.903735 107.70725,134.604511 C108.359451,135.1458 108.936688,135.771507 109.42375,136.465144 C109.947872,137.282774 110.225656,138.234055 110.471993,139.172233 C111.155973,141.612021 111.729886,144.342696 110.529647,146.570214 Z" id="Path" fill="#000000" fill-rule="nonzero" opacity="0.1"></path>
                            <path d="M14.2982441,65.7244099 C14.0429641,65.991642 13.8449887,66.3082244 13.7164688,66.6547263 C11.598134,71.4287728 10.346914,76.5419143 10.0214094,81.7546784 C10.0271085,82.0088511 9.96851652,82.2603457 9.85106977,82.4858285 C9.73525371,82.6358557 9.606337,82.7752962 9.46584017,82.9025054 C9.20796472,83.2081652 9.0881298,83.6069417 9.13479813,84.0041189 C9.18146645,84.4012962 9.39047377,84.7614337 9.71217746,84.998993 C10.144578,84.1839834 11.1797188,83.9193019 12.0995527,83.8485454 C16.5047974,83.5000043 20.8078382,85.549321 25.2261859,85.394705 C24.9143334,84.3176345 24.4662091,83.2824937 24.21201,82.1923202 C23.0877685,77.3520544 25.8918207,72.0820086 24.1727009,67.4199442 C23.829401,66.4870072 23.2554875,65.5697939 22.3513772,65.1609788 C21.9770368,65.0097733 21.5852837,64.9058927 21.185206,64.8517469 C20.0688263,64.64996 17.8465495,63.7877794 16.7668583,64.1336999 C16.3685257,64.2621098 16.2112891,64.6368569 15.8810923,64.8622293 C15.3805559,65.1845643 14.7149211,65.3024917 14.2982441,65.7244099 Z" id="Path" fill="#2FADD6" fill-rule="nonzero"></path>
                            <rect id="Rectangle" fill="#3F3D56" fill-rule="nonzero" x="23.5909256" y="75.2634286" width="58.4395926" height="37.2126554" rx="8.00205358"></rect>
                            <circle id="Oval" fill="#FFFFFF" fill-rule="nonzero" cx="52.6796914" cy="93.8697563" r="1.57236572"></circle>
                            <path d="M31.3793771,19.4025158 C30.4988523,20.0393239 29.8961121,20.9539166 29.2828895,21.8318208 C28.1534067,23.4539781 26.8745493,25.0735148 25.0689493,25.9776251 C24.3849702,26.3209249 23.6040286,26.5803653 23.1506632,27.1778642 C22.8815699,27.5819485 22.7069113,28.0414351 22.6396443,28.5222369 C22.2937543,30.2128416 22.1129562,31.933056 22.0997987,33.6586316 C22.0997987,34.5181916 22.1364873,35.4039576 22.5164756,36.1848992 C22.8754991,36.9186699 23.5227897,37.5397543 23.6564408,38.3390403 C23.7586446,38.9627453 23.5280309,39.5838298 23.446792,40.2101555 C23.3655531,40.8364811 23.507066,41.5781136 24.0862208,41.8768631 C24.398278,41.9942483 24.724177,42.0708786 25.0558463,42.1048561 C26.7985516,42.4927064 27.3829475,44.5367818 27.6476291,46.2270749 C28.2398869,46.193007 28.507189,45.5142692 28.6303577,44.9613205 L30.4464401,36.8872226 C30.6429858,36.011939 30.970562,34.9977631 31.843225,34.6911518 C32.4276209,34.4893648 33.0670496,34.6780487 33.6776516,34.7304609 C36.0755094,34.9270066 38.1038611,33.0742357 40.4493067,32.5632168 C41.2000695,32.4116997 41.9676335,32.3605875 42.7318576,32.4112215 C44.5820079,32.5029428 46.7335283,33.2629196 47.1266198,34.9899013 C47.192135,35.2703065 47.2314442,35.6057445 47.4935051,35.7446368 C47.7555661,35.8835291 48.0307301,35.7656017 48.3058941,35.7446368 C49.4799271,35.6267094 50.1717681,36.9474966 50.5098267,38.0271877 L51.7415132,41.958102 C51.9249558,42.5529804 52.2341878,43.2526831 52.8788577,43.3286808 C53.4737361,43.4020579 53.9795137,42.8386268 54.0686144,42.280437 C54.1577152,41.7222472 53.96379,41.1430925 53.8353802,40.582282 C53.2562255,38.0009816 54.1419915,35.3594072 54.6818371,32.7728656 C55.2216826,30.186324 55.3186452,27.2145528 53.507804,25.2228895 C52.850031,24.5022219 51.9852298,23.964997 51.3720072,23.2050202 C50.8007143,22.4922144 50.4783794,21.6169308 49.8861216,20.9172281 C48.2482407,18.9858388 44.0474036,17.494712 41.4713444,17.2483747 C38.5283999,16.9286604 33.7588905,17.6755341 31.3793771,19.4025158 Z" id="Path" fill="#2D2236" fill-rule="nonzero"></path>
                            <g id="Group" opacity="0.1" transform="translate(21.869185, 28.705680)" fill="#000000" fill-rule="nonzero">
                                <path d="M31.020155,12.7885745 C30.3754851,12.7099562 30.0662532,12.0023917 29.8828105,11.4179957 C29.4722484,10.1059439 29.0616862,8.79563913 28.651124,7.48708144 C28.3130654,6.4047697 27.6212245,5.0839825 26.4471914,5.20453053 C26.1720274,5.23335724 25.8758985,5.34080223 25.6348025,5.20453053 C25.3937064,5.06825884 25.3334324,4.73020021 25.2679171,4.44979499 C24.8748257,2.7201927 22.7233053,1.96283654 20.8731549,1.87111521 C20.1090462,1.82093626 19.3416562,1.87115581 18.590604,2.02048995 C16.2451585,2.54461186 14.2168067,4.37903853 11.818949,4.18773403 C11.2004851,4.13794245 10.5610564,3.94925857 9.98452232,4.1510455 C9.10137691,4.45503621 8.78428316,5.46135027 8.58773744,6.34711629 L6.77165503,14.4185937 C6.64848639,14.9741629 6.38118421,15.6529007 5.78892646,15.6843481 C5.52686551,13.9966755 4.93984897,11.9526001 3.19714363,11.5647499 C2.8659033,11.5282497 2.54031547,11.4516926 2.2275181,11.3367568 C1.99952501,11.2122222 1.82103681,11.0133882 1.72174046,10.7733258 C1.67456949,11.0170425 1.61953669,11.2607592 1.58808938,11.5044759 C1.50947109,12.1281809 1.6483634,12.872434 2.2275181,13.1711835 C2.53957531,13.2885687 2.86547436,13.365199 3.19714363,13.3991765 C4.93984897,13.7870268 5.5242449,15.8311022 5.78892646,17.5213953 C6.38118421,17.4873274 6.64848639,16.8085895 6.77165503,16.2556409 L8.58773744,8.18154296 C8.78428316,7.30625938 9.11185935,6.29208349 9.98452232,5.98547217 C10.5689182,5.78368524 11.208347,5.97236913 11.818949,6.02478132 C14.2168067,6.22132703 16.2451585,4.36855609 18.590604,3.85753723 C19.3413668,3.70602011 20.1089309,3.65490792 20.8731549,3.70554188 C22.7233053,3.79726321 24.8748257,4.55723998 25.2679171,6.28422166 C25.3334324,6.56462688 25.3727415,6.9000649 25.6348025,7.03895721 C25.8968634,7.17784951 26.1720274,7.05992208 26.4471914,7.03895721 C27.6212245,6.92102978 28.3130654,8.24181698 28.651124,9.32150811 C29.0599391,10.63356 29.4705013,11.9438647 29.8828105,13.2524224 C30.0662532,13.8473008 30.3754851,14.5470035 31.020155,14.6230012 C31.6150334,14.6963783 32.1208111,14.1329472 32.2099118,13.5747574 C32.2501807,13.1050736 32.196734,12.6320695 32.0526752,12.1832137 C31.861538,12.5742616 31.4547431,12.8127632 31.020155,12.7885745 Z" id="Path"></path>
                                <path d="M1.78987631,7.79893397 C1.65622523,6.99964806 1.00369345,6.3785636 0.649911164,5.64479294 C0.422455143,5.14987982 0.290849857,4.61634488 0.262060953,4.07242722 C0.262060953,4.36593548 0.235854858,4.65944375 0.233234248,4.95557263 C0.233234248,5.81513255 0.269922782,6.70089858 0.649911164,7.48184022 C0.940798823,8.07671858 1.42037037,8.60084049 1.66146644,9.20620129 C1.78858493,8.7486577 1.83208538,8.27192831 1.78987631,7.79893397 Z" id="Path"></path>
                                <path d="M32.8231344,2.22227688 C32.3461835,4.5074484 31.6019304,6.83454966 31.832544,9.1249624 C31.9819187,7.43466925 32.4745933,5.73389366 32.8231344,4.05670356 C33.1138597,2.78306819 33.2162791,1.47368907 33.1271251,0.17033962 C33.0702232,0.860166909 32.9686803,1.54558203 32.8231344,2.22227688 L32.8231344,2.22227688 Z" id="Path"></path>
                            </g>
                            <g id="Group" opacity="0.8" transform="translate(71.136644, 0.141036)">
                                <g id="Group-37" transform="translate(15.128101, 25.170955)">
                                    <line x1="2.42525614" y1="19.2780106" x2="114.145258" y2="19.2780106" id="Path" stroke="#3F3D56" stroke-width="1.00402178"></line>
                                    <path d="M13.4385156,19.3835322 C13.4385156,19.3835322 21.2715175,20.5017999 17.2148139,11.8601504 C13.1581104,3.21850084 28.221374,4.85413578 28.221374,4.85413578" id="Path" stroke="#3F3D56" stroke-width="1.00402178"></path>
                                    <path d="M42.1152569,19.3234129 C42.1152569,19.3234129 49.9043547,18.2452016 45.8703891,26.5974324 C41.8364234,34.9496632 56.8152572,33.3688075 56.8152572,33.3688075" id="Path" stroke="#3F3D56" stroke-width="1.00402178"></path>
                                    <path d="M99.935258,19.3234129 C99.935258,19.3234129 92.1435543,18.2452016 96.1801259,26.5974324 C100.216698,34.9496632 85.2352578,33.3688075 85.2352578,33.3688075" id="Path" stroke="#3F3D56" stroke-width="1.00402178"></path>
                                    <circle id="Oval" fill="#2FADD6" fill-rule="nonzero" cx="28.3026129" cy="4.7826124" r="4.7826124"></circle>
                                    <circle id="Oval" fill="#5D2784" fill-rule="nonzero" cx="4.7826124" cy="18.9836955" r="4.7826124"></circle>
                                    <circle id="Oval" fill="#5D2784" fill-rule="nonzero" cx="23.7663079" cy="18.9836955" r="4.7826124"></circle>
                                    <circle id="Oval" fill="#5D2784" fill-rule="nonzero" cx="80.7147736" cy="18.9836955" r="4.7826124"></circle>
                                    <circle id="Oval" fill="#5D2784" fill-rule="nonzero" cx="114.541601" cy="18.9836955" r="4.7826124"></circle>
                                    <line x1="83.2752577" y1="33.4880109" x2="58.7752572" y2="33.4880109" id="Path" stroke="#3F3D56" stroke-width="1.00402178"></line>
                                    <circle id="Oval" fill="#2FADD6" fill-rule="nonzero" cx="56.9484658" cy="33.040645" r="4.7826124"></circle>
                                    <circle id="Oval" fill="#2FADD6" fill-rule="nonzero" cx="82.0224578" cy="33.040645" r="4.7826124"></circle>
                                </g>
                                <rect id="Rectangle" fill="#5D2784" fill-rule="nonzero" x="0.0995831623" y="0.172960229" width="16.0459922" height="11.0589722"></rect>
                                <rect id="Rectangle" fill="#2FADD6" fill-rule="nonzero" x="29.5866816" y="0.172960229" width="16.0459922" height="11.0589722"></rect>
                                <rect id="Rectangle" fill="#5D2784" fill-rule="nonzero" x="81.6267458" y="0.172960229" width="16.0459922" height="11.0589722"></rect>
                            </g>
                        </g>
                    </g>
                </g>
            </g>
        </g>
    </g>
</svg>