<?xml version="1.0" encoding="UTF-8"?>
<svg width="185px" height="143px" viewBox="0 0 185 143" version="1.1" xmlns="http://www.w3.org/2000/svg" xmlns:xlink="http://www.w3.org/1999/xlink">
    <title>undraw_video_call_kxyp</title>
    <g id="Page-1" stroke="none" stroke-width="1" fill="none" fill-rule="evenodd">
        <g id="1.000-Book-a-Dev" transform="translate(-1095.000000, -1265.000000)">
            <g id="Group-19" transform="translate(144.000000, 1085.000000)">
                <g id="Group-47" transform="translate(0.000000, 160.000000)">
                    <g id="Group-42" transform="translate(934.000000, 20.000000)">
                        <g id="undraw_video_call_kxyp" transform="translate(17.000000, 0.000000)">
                            <ellipse id="Oval" fill="#3F3D56" fill-rule="nonzero" transform="translate(163.313701, 42.663001) rotate(-60.790000) translate(-163.313701, -42.663001) " cx="163.313701" cy="42.6630009" rx="3.30158116" ry="2.52142105"></ellipse>
                            <ellipse id="Oval" fill="#3F3D56" fill-rule="nonzero" transform="translate(165.281893, 39.140608) rotate(-60.790000) translate(-165.281893, -39.140608) " cx="165.281893" cy="39.1406078" rx="3.30158116" ry="2.52142105"></ellipse>
                            <ellipse id="Oval" fill="#3F3D56" fill-rule="nonzero" transform="translate(167.252137, 35.619361) rotate(-60.790000) translate(-167.252137, -35.619361) " cx="167.252137" cy="35.6193615" rx="3.30158116" ry="2.52142105"></ellipse>
                            <ellipse id="Oval" fill="#3F3D56" fill-rule="nonzero" transform="translate(169.220329, 32.094618) rotate(-60.790000) translate(-169.220329, -32.094618) " cx="169.220329" cy="32.0946185" rx="3.30158116" ry="2.52142105"></ellipse>
                            <ellipse id="Oval" fill="#3F3D56" fill-rule="nonzero" transform="translate(171.187375, 28.574276) rotate(-60.790000) translate(-171.187375, -28.574276) " cx="171.187375" cy="28.5742765" rx="3.30158116" ry="2.52142105"></ellipse>
                            <ellipse id="Oval" fill="#3F3D56" fill-rule="nonzero" transform="translate(173.157917, 25.051883) rotate(-60.790000) translate(-173.157917, -25.051883) " cx="173.157917" cy="25.0518834" rx="3.30158116" ry="2.52142105"></ellipse>
                            <g id="Group" opacity="0.1" transform="translate(180.781795, 116.499135)" fill="#000000" fill-rule="nonzero">
                                <path d="M3.20758596,1.24543631 C2.91620086,1.22428739 2.62481577,1.19373895 2.33578055,1.15144111 C1.98776795,1.11875751 1.65181296,1.00704042 1.35353078,0.824807819 C0.685364364,1.31541599 0.25800196,2.06757382 0.178590867,2.89270207 C0.167190887,2.78970615 0.161698843,2.68614188 0.162112877,2.58251793 C0.158028662,1.6569995 0.594199049,0.784658725 1.33708162,0.232638103 C1.63519542,0.415621306 1.97114507,0.528140327 2.31933139,0.561621278 L2.55431937,0.589819836 C2.75484686,0.824873656 2.97325368,1.04406612 3.20758596,1.24543631 L3.20758596,1.24543631 Z" id="Path"></path>
                            </g>
                            <polygon id="Path" fill="#D0D2D5" fill-rule="nonzero" points="112.160605 142.380711 66.3379479 141.793241 66.471891 140.618302 68.6878277 121.231793 108.92952 121.231793 111.890368 140.618302 112.115957 142.086976"></polygon>
                            <polygon id="Path" fill="#000000" fill-rule="nonzero" opacity="0.1" points="112.115957 142.086976 89.2492762 142.086976 66.3379479 141.793241 66.471891 140.618302 111.890368 140.618302"></polygon>
                            <rect id="Rectangle" fill="#D0D2D5" fill-rule="nonzero" x="58.7008385" y="140.912037" width="60.8031405" height="1.46867489"></rect>
                            <path d="M177.51551,4.79054782 C177.525872,2.6786273 175.822921,0.957794145 173.711007,0.946144424 L3.90634068,0.946144424 C2.8917235,0.951118007 1.92063953,1.3589493 1.20672241,2.07991746 C0.492805284,2.80088562 0.0945372741,3.77593077 0.0994888772,4.79054782 L0.0994888772,107.715284 L177.51551,107.715284 L177.51551,4.79054782 Z" id="Path" fill="#2D2236" fill-rule="nonzero"></path>
                            <path d="M0.0995171865,106.690737 L0.0995171865,118.74797 C0.0964114723,119.759416 0.496180166,120.730472 1.21050137,121.446557 C1.92482258,122.162642 2.8948902,122.564804 3.90634068,122.564176 L173.711007,122.564176 C175.81215,122.564176 177.515462,120.860862 177.515462,118.759719 L177.515462,106.690737 L0.0995171865,106.690737 Z" id="Path" fill="#D0D2D5" fill-rule="nonzero"></path>
                            <rect id="Rectangle" fill="#5D2784" fill-rule="nonzero" opacity="0.239327567" x="7.44290981" y="7.40831395" width="163.610383" height="92.5265182"></rect>
                            <path d="M89.6887037,117.97956 C90.9059422,117.980343 92.0562275,117.422524 92.8093441,116.466237 L92.8093441,116.466237 C92.9215581,116.321807 93.0243811,116.170319 93.1171784,116.01271 L90.9411897,115.655528 L93.2910695,115.671977 C93.7490206,114.680057 93.776238,113.542882 93.3662657,112.530188 L90.2103771,114.175104 L93.1218782,112.036713 C92.3932003,110.729161 90.9901501,109.943549 89.4945547,110.005661 C87.9989593,110.067772 86.6658804,110.967015 86.0481291,112.330483 C85.4303777,113.693952 85.6333064,115.289118 86.5727631,116.454487 L86.5727631,116.454487 C87.3220394,117.414447 88.4709473,117.976771 89.6887037,117.97956 L89.6887037,117.97956 Z" id="Path" fill="#2FADD6" fill-rule="nonzero"></path>
                            <polygon id="Path" fill="#000000" fill-rule="nonzero" opacity="0.1" points="93.6553009 122.552425 111.935016 140.912037 109.131609 122.552425"></polygon>
                            <rect id="Rectangle" fill="#FFFFFF" fill-rule="nonzero" x="11.9969769" y="20.0083696" width="126.306041" height="67.0679201"></rect>
                            <rect id="Rectangle" fill="#5D2784" fill-rule="nonzero" opacity="0.1" x="19.0419166" y="37.4914755" width="35.2293984" height="1.82585662"></rect>
                            <rect id="Rectangle" fill="#5D2784" fill-rule="nonzero" opacity="0.1" x="22.1743064" y="27.8358193" width="3.39322647" height="9.65565621"></rect>
                            <rect id="Rectangle" fill="#5D2784" fill-rule="nonzero" opacity="0.1" x="27.1325529" y="27.8358193" width="3.39322647" height="9.65565621"></rect>
                            <rect id="Rectangle" fill="#5D2784" fill-rule="nonzero" opacity="0.1" x="32.0907993" y="27.8358193" width="3.39322647" height="9.65565621"></rect>
                            <rect id="Rectangle" fill="#5D2784" fill-rule="nonzero" opacity="0.1" x="37.0490457" y="27.8358193" width="3.39322647" height="9.65565621"></rect>
                            <rect id="Rectangle" fill="#5D2784" fill-rule="nonzero" opacity="0.1" x="42.0072922" y="27.8358193" width="3.39322647" height="9.65565621"></rect>
                            <rect id="Rectangle" fill="#5D2784" fill-rule="nonzero" opacity="0.1" x="46.9655386" y="27.8358193" width="3.39322647" height="9.65565621"></rect>
                            <rect id="Rectangle" fill="#5D2784" fill-rule="nonzero" opacity="0.1" x="22.1743064" y="29.6640258" width="3.39322647" height="1.04334664"></rect>
                            <rect id="Rectangle" fill="#5D2784" fill-rule="nonzero" opacity="0.1" x="27.1325529" y="29.6640258" width="3.39322647" height="1.04334664"></rect>
                            <rect id="Rectangle" fill="#5D2784" fill-rule="nonzero" opacity="0.1" x="32.0907993" y="29.6640258" width="3.39322647" height="1.04334664"></rect>
                            <rect id="Rectangle" fill="#5D2784" fill-rule="nonzero" opacity="0.1" x="37.0490457" y="29.6640258" width="3.39322647" height="1.04334664"></rect>
                            <rect id="Rectangle" fill="#5D2784" fill-rule="nonzero" opacity="0.1" x="42.0072922" y="29.6640258" width="3.39322647" height="1.04334664"></rect>
                            <rect id="Rectangle" fill="#5D2784" fill-rule="nonzero" opacity="0.1" x="46.9655386" y="29.6640258" width="3.39322647" height="1.04334664"></rect>
                            <rect id="Rectangle" fill="#5D2784" fill-rule="nonzero" opacity="0.1" x="22.1743064" y="34.3614356" width="3.39322647" height="1.04334664"></rect>
                            <rect id="Rectangle" fill="#5D2784" fill-rule="nonzero" opacity="0.1" x="27.1325529" y="34.3614356" width="3.39322647" height="1.04334664"></rect>
                            <rect id="Rectangle" fill="#5D2784" fill-rule="nonzero" opacity="0.1" x="32.0907993" y="34.3614356" width="3.39322647" height="1.04334664"></rect>
                            <rect id="Rectangle" fill="#5D2784" fill-rule="nonzero" opacity="0.1" x="37.0490457" y="34.3614356" width="3.39322647" height="1.04334664"></rect>
                            <rect id="Rectangle" fill="#5D2784" fill-rule="nonzero" opacity="0.1" x="42.0072922" y="34.3614356" width="3.39322647" height="1.04334664"></rect>
                            <rect id="Rectangle" fill="#5D2784" fill-rule="nonzero" opacity="0.1" x="46.9655386" y="34.3614356" width="3.39322647" height="1.04334664"></rect>
                            <rect id="Rectangle" fill="#5D2784" fill-rule="nonzero" opacity="0.1" x="96.2871663" y="42.1888853" width="35.2293984" height="1.82585662"></rect>
                            <rect id="Rectangle" fill="#5D2784" fill-rule="nonzero" opacity="0.1" x="99.4195561" y="32.533229" width="3.39322647" height="9.65565621"></rect>
                            <rect id="Rectangle" fill="#5D2784" fill-rule="nonzero" opacity="0.1" x="104.377803" y="32.533229" width="3.39322647" height="9.65565621"></rect>
                            <rect id="Rectangle" fill="#5D2784" fill-rule="nonzero" opacity="0.1" x="109.336049" y="32.533229" width="3.39322647" height="9.65565621"></rect>
                            <rect id="Rectangle" fill="#5D2784" fill-rule="nonzero" opacity="0.1" x="114.294295" y="32.533229" width="3.39322647" height="9.65565621"></rect>
                            <rect id="Rectangle" fill="#5D2784" fill-rule="nonzero" opacity="0.1" x="119.252542" y="32.533229" width="3.39322647" height="9.65565621"></rect>
                            <rect id="Rectangle" fill="#5D2784" fill-rule="nonzero" opacity="0.1" x="124.210788" y="32.533229" width="3.39322647" height="9.65565621"></rect>
                            <rect id="Rectangle" fill="#5D2784" fill-rule="nonzero" opacity="0.1" x="99.4195561" y="34.3614356" width="3.39322647" height="1.04334664"></rect>
                            <rect id="Rectangle" fill="#5D2784" fill-rule="nonzero" opacity="0.1" x="104.377803" y="34.3614356" width="3.39322647" height="1.04334664"></rect>
                            <rect id="Rectangle" fill="#5D2784" fill-rule="nonzero" opacity="0.1" x="109.336049" y="34.3614356" width="3.39322647" height="1.04334664"></rect>
                            <rect id="Rectangle" fill="#5D2784" fill-rule="nonzero" opacity="0.1" x="114.294295" y="34.3614356" width="3.39322647" height="1.04334664"></rect>
                            <rect id="Rectangle" fill="#5D2784" fill-rule="nonzero" opacity="0.1" x="119.252542" y="34.3614356" width="3.39322647" height="1.04334664"></rect>
                            <rect id="Rectangle" fill="#5D2784" fill-rule="nonzero" opacity="0.1" x="124.210788" y="34.3614356" width="3.39322647" height="1.04334664"></rect>
                            <rect id="Rectangle" fill="#5D2784" fill-rule="nonzero" opacity="0.1" x="99.4195561" y="39.0588453" width="3.39322647" height="1.04334664"></rect>
                            <rect id="Rectangle" fill="#5D2784" fill-rule="nonzero" opacity="0.1" x="104.377803" y="39.0588453" width="3.39322647" height="1.04334664"></rect>
                            <rect id="Rectangle" fill="#5D2784" fill-rule="nonzero" opacity="0.1" x="109.336049" y="39.0588453" width="3.39322647" height="1.04334664"></rect>
                            <rect id="Rectangle" fill="#5D2784" fill-rule="nonzero" opacity="0.1" x="114.294295" y="39.0588453" width="3.39322647" height="1.04334664"></rect>
                            <rect id="Rectangle" fill="#5D2784" fill-rule="nonzero" opacity="0.1" x="119.252542" y="39.0588453" width="3.39322647" height="1.04334664"></rect>
                            <rect id="Rectangle" fill="#5D2784" fill-rule="nonzero" opacity="0.1" x="124.210788" y="39.0588453" width="3.39322647" height="1.04334664"></rect>
                            <rect id="Rectangle" fill="#5D2784" fill-rule="nonzero" opacity="0.1" x="96.2871663" y="55.4986046" width="35.2293984" height="1.82585662"></rect>
                            <rect id="Rectangle" fill="#5D2784" fill-rule="nonzero" opacity="0.1" x="99.4195561" y="45.8429484" width="3.39322647" height="9.65565621"></rect>
                            <rect id="Rectangle" fill="#5D2784" fill-rule="nonzero" opacity="0.1" x="104.377803" y="45.8429484" width="3.39322647" height="9.65565621"></rect>
                            <rect id="Rectangle" fill="#5D2784" fill-rule="nonzero" opacity="0.1" x="109.336049" y="45.8429484" width="3.39322647" height="9.65565621"></rect>
                            <rect id="Rectangle" fill="#5D2784" fill-rule="nonzero" opacity="0.1" x="114.294295" y="45.8429484" width="3.39322647" height="9.65565621"></rect>
                            <rect id="Rectangle" fill="#5D2784" fill-rule="nonzero" opacity="0.1" x="119.252542" y="45.8429484" width="3.39322647" height="9.65565621"></rect>
                            <rect id="Rectangle" fill="#5D2784" fill-rule="nonzero" opacity="0.1" x="124.210788" y="45.8429484" width="3.39322647" height="9.65565621"></rect>
                            <rect id="Rectangle" fill="#5D2784" fill-rule="nonzero" opacity="0.1" x="99.4195561" y="47.668805" width="3.39322647" height="1.04334664"></rect>
                            <rect id="Rectangle" fill="#5D2784" fill-rule="nonzero" opacity="0.1" x="104.377803" y="47.668805" width="3.39322647" height="1.04334664"></rect>
                            <rect id="Rectangle" fill="#5D2784" fill-rule="nonzero" opacity="0.1" x="109.336049" y="47.668805" width="3.39322647" height="1.04334664"></rect>
                            <rect id="Rectangle" fill="#5D2784" fill-rule="nonzero" opacity="0.1" x="114.294295" y="47.668805" width="3.39322647" height="1.04334664"></rect>
                            <rect id="Rectangle" fill="#5D2784" fill-rule="nonzero" opacity="0.1" x="119.252542" y="47.668805" width="3.39322647" height="1.04334664"></rect>
                            <rect id="Rectangle" fill="#5D2784" fill-rule="nonzero" opacity="0.1" x="124.210788" y="47.668805" width="3.39322647" height="1.04334664"></rect>
                            <rect id="Rectangle" fill="#5D2784" fill-rule="nonzero" opacity="0.1" x="99.4195561" y="52.3662148" width="3.39322647" height="1.04334664"></rect>
                            <rect id="Rectangle" fill="#5D2784" fill-rule="nonzero" opacity="0.1" x="104.377803" y="52.3662148" width="3.39322647" height="1.04334664"></rect>
                            <rect id="Rectangle" fill="#5D2784" fill-rule="nonzero" opacity="0.1" x="109.336049" y="52.3662148" width="3.39322647" height="1.04334664"></rect>
                            <rect id="Rectangle" fill="#5D2784" fill-rule="nonzero" opacity="0.1" x="114.294295" y="52.3662148" width="3.39322647" height="1.04334664"></rect>
                            <rect id="Rectangle" fill="#5D2784" fill-rule="nonzero" opacity="0.1" x="119.252542" y="52.3662148" width="3.39322647" height="1.04334664"></rect>
                            <rect id="Rectangle" fill="#5D2784" fill-rule="nonzero" opacity="0.1" x="124.210788" y="52.3662148" width="3.39322647" height="1.04334664"></rect>
                            <path d="M40.6490616,58.1422194 C40.3853918,57.806656 40.145136,57.4533388 39.9299984,57.0847735 L45.003389,56.252916 L39.50702,56.2975637 C38.4437889,53.9832734 38.3800485,51.3333724 39.3307791,48.9706384 L46.6906027,52.7891932 L39.9041497,47.8003983 C41.6325336,44.7981394 44.89406,43.0138021 48.3544236,43.1773671 C51.8147871,43.3409321 54.8934632,45.4249589 56.3309512,48.5768627 C57.7684392,51.7287665 57.3235804,55.4197711 55.1783686,58.1398695 C55.5911147,58.6609616 55.9464361,59.2250637 56.2381644,59.8223835 L49.6585009,63.2414586 L56.6775919,60.8915788 C57.6802459,63.8508749 57.1197823,67.1164149 55.1877681,69.5720349 C58.1702833,73.3626264 57.7382263,78.8089981 54.1953661,82.0819359 C50.6525059,85.3548738 45.1890237,85.3548738 41.6461635,82.0819359 C38.1033033,78.8089981 37.6712463,73.3626264 40.6537614,69.5720349 C38.0158929,66.2178113 38.0158929,61.4940931 40.6537614,58.1398695 L40.6490616,58.1422194 Z" id="Path" fill="#5D2784" fill-rule="nonzero" opacity="0.1"></path>
                            <path d="M57.1616672,63.859477 C57.1644614,65.9328954 56.4672976,67.9465559 55.1830684,69.5743847 C58.1655835,73.3649762 57.7335265,78.8113479 54.1906663,82.0842858 C50.6478061,85.3572236 45.1843239,85.3572236 41.6414637,82.0842858 C38.0986035,78.8113479 37.6665465,73.3649762 40.6490616,69.5743847 C39.410675,68.0023151 57.1616672,62.8208301 57.1616672,63.859477 Z" id="Path" fill="#5D2784" fill-rule="nonzero" opacity="0.1"></path>
                            <path d="M49.4000141,86.9987437 C49.4164633,87.0245923 49.4282127,87.050441 49.4446618,87.0762897 L46.3052224,87.0762897 C46.3216715,87.050441 46.3334209,87.0245923 46.3498701,86.9987437 C46.0803217,86.5283346 45.9408212,85.9946641 45.9456908,85.4525227 C45.9452709,85.0815388 46.0096866,84.7133354 46.136031,84.3645284 C46.136031,84.3645284 46.136031,84.3645284 46.136031,84.3645284 C46.3099221,84.3927269 46.5261111,84.4232754 46.7751983,84.449124 C47.5034138,84.5219023 48.2370709,84.5219023 48.9652863,84.449124 C49.1720758,84.4279751 49.3906146,84.3974267 49.6115033,84.3645284 C49.6118034,84.3700073 49.6118034,84.3754986 49.6115033,84.3809775 C49.735341,84.7246156 49.7981664,85.0872532 49.7971438,85.4525227 C49.804159,85.9940191 49.6671024,86.5276477 49.4000141,86.9987437 L49.4000141,86.9987437 Z" id="Path" fill="#3F3D56" fill-rule="nonzero" opacity="0.2"></path>
                            <path d="M38.1182411,87.0809895 L20.658634,87.0809895 C20.618686,86.9799446 20.5834378,86.8742 20.5528894,86.7708053 C19.9372843,84.790797 20.0093333,82.6607978 20.7573289,80.7269144 C17.2453576,78.3010808 15.8507828,73.7861935 17.3829015,69.8023231 C17.0317366,69.5586764 16.6973036,69.291758 16.3818527,69.003364 L20.9829174,66.7098812 L15.7544348,68.3688964 C14.0538271,66.4715128 13.2105614,63.9570167 13.423354,61.4179519 L21.5821367,62.8913265 L13.6254436,60.1278678 C14.3921537,56.7494459 16.9829818,54.0829979 20.3379542,53.2194358 C23.6929266,52.3558737 27.2491647,53.440081 29.5517208,56.0284811 C31.854277,58.6168811 32.5168411,62.2752063 31.2683414,65.5067428 C31.8148884,65.8855284 32.3197938,66.3211176 32.7746143,66.8062263 L27.4920845,72.0182598 L33.505427,67.6944809 C35.3363848,70.2275322 35.7642022,73.5139479 34.6427688,76.4313341 C38.0637808,78.7961457 39.4857716,83.1534562 38.1182411,87.0809895 L38.1182411,87.0809895 Z" id="Path" fill="#5D2784" fill-rule="nonzero" opacity="0.1"></path>
                            <path d="M38.1182411,87.0809895 L20.658634,87.0809895 C20.618686,86.9799446 20.5834378,86.8742 20.5528894,86.7708053 C19.9372843,84.790797 20.0093333,82.6607978 20.7573289,80.7269144 C19.112413,79.5872227 34.541724,69.3981438 34.8566079,70.3874432 C35.4698002,72.3685719 35.3977816,74.4985 34.6521683,76.433684 C38.068645,78.8008303 39.4864866,83.1562476 38.1182411,87.0809895 Z" id="Path" fill="#5D2784" fill-rule="nonzero" opacity="0.1"></path>
                            <path d="M117.179948,74.5537801 C116.119332,76.3354036 114.488111,77.7066234 112.550685,78.4451811 C112.633372,79.1054221 112.646761,79.7725021 112.590633,80.4355293 L105.183811,79.991402 L112.416741,81.5728711 C111.938667,83.7828619 110.669172,85.7418467 108.847274,87.0809895 L98.7662895,87.0809895 L98.7662895,87.3418261 L88.5043643,87.3418261 C88.5255132,87.2525307 88.5466621,87.1655851 88.5701609,87.0809895 C89.3351338,84.2056671 91.4324561,81.8715221 94.2098725,80.8044604 C93.6703655,76.5699769 96.0973779,72.5158954 100.084572,70.9913623 C100.029349,70.5683293 100.003438,70.1419846 100.007026,69.7153775 L104.789031,71.5952814 L100.061073,68.8177234 C100.334067,66.2881644 101.634962,63.982071 103.658739,62.4401496 L108.015416,69.4897891 L104.751433,61.7351856 C108.407409,59.7017281 112.973315,60.3769181 115.884286,63.3814727 C118.795258,66.3860272 119.325683,70.9710058 117.177598,74.5608297 L117.179948,74.5537801 Z" id="Path" fill="#5D2784" fill-rule="nonzero" opacity="0.1"></path>
                            <path d="M111.312298,84.3668783 C110.682934,85.4292021 109.844297,86.3525823 108.847274,87.0809895 L98.7662895,87.0809895 L98.7662895,87.3418261 L88.5043643,87.3418261 C88.5255132,87.2525307 88.5466621,87.1655851 88.5701609,87.0809895 C89.3351338,84.2056671 91.4324561,81.8715221 94.2098725,80.8044604 C94.122927,80.1300449 96.1156251,80.2216902 98.7686394,80.6681674 C103.954824,81.5376229 111.66478,83.7770584 111.312298,84.3668783 Z" id="Path" fill="#5D2784" fill-rule="nonzero" opacity="0.1"></path>
                            <path d="M67.6233322,59.69549 C67.6233322,59.69549 68.8805179,66.5500894 66.0606621,68.7848251 C63.2408063,71.0195608 68.4434402,84.430325 77.0862982,82.8676549 C85.7291562,81.3049848 89.2304772,70.0514104 89.2304772,70.0514104 C89.2304772,70.0514104 80.5876192,68.2655017 83.7905054,59.1761665 L67.6233322,59.69549 Z" id="Path" fill="#EFB7B9" fill-rule="nonzero"></path>
                            <path d="M67.6233322,59.69549 C67.6233322,59.69549 68.8805179,66.5500894 66.0606621,68.7848251 C63.2408063,71.0195608 68.4434402,84.430325 77.0862982,82.8676549 C85.7291562,81.3049848 89.2304772,70.0514104 89.2304772,70.0514104 C89.2304772,70.0514104 80.5876192,68.2655017 83.7905054,59.1761665 L67.6233322,59.69549 Z" id="Path" fill="#000000" fill-rule="nonzero" opacity="0.1"></path>
                            <circle id="Oval" fill="#EFB7B9" fill-rule="nonzero" cx="75.2604416" cy="50.4205143" r="14.3037185"></circle>
                            <path d="M98.7662895,77.6133236 L98.7662895,87.3371264 L51.533705,87.3371264 L51.533705,78.0574509 C51.5346032,75.6510987 52.9743569,73.4785141 55.190118,72.5399331 L56.5459987,71.9642125 C59.9721235,70.5049372 64.1337606,68.6931798 65.494341,67.9388684 C65.6433802,67.86462 65.7836735,67.773981 65.9126197,67.6686322 C66.6575316,66.9237203 66.5094891,67.8918708 66.5094891,67.8918708 C66.5094891,67.8918708 66.4883402,68.0751614 66.4742409,68.3947451 C66.394345,70.5824832 66.7092289,79.1877431 76.7902134,78.4710298 C86.6268103,77.7660658 87.0591882,71.1300052 86.9698928,69.1772551 C86.9643081,68.9963627 86.9486178,68.8159239 86.9228952,68.6367827 C86.9228952,68.5850853 87.7688519,68.8717707 88.9155933,69.2853495 C90.9764379,70.0443607 94.005433,71.2662982 94.8208413,71.8420188 C95.0746283,72.0182598 95.3824626,72.2062502 95.7161455,72.3918907 C97.6077994,73.4477289 98.7774698,75.4469656 98.7710161,77.6133236 L98.7662895,77.6133236 Z" id="Path" fill="#5D2784" fill-rule="nonzero"></path>
                            <path d="M88.9132434,69.2853495 C88.0813859,73.1438522 85.4683196,80.3720826 76.0429516,80.5647727 C66.0066148,80.7621626 65.4285444,70.7798731 65.4896413,67.9482679 C65.6398929,67.8739298 65.7810406,67.7824598 65.9102698,67.6756818 C66.6551817,66.9307699 66.5071392,67.8989204 66.5071392,67.8989204 C66.5071392,67.8989204 65.240554,79.2981875 76.7878635,78.4733797 C88.335173,77.6485718 86.9205453,68.6391326 86.9205453,68.6391326 C86.9205453,68.5850853 87.766502,68.8623712 88.9132434,69.2853495 Z" id="Path" fill="#000000" fill-rule="nonzero" opacity="0.1"></path>
                            <path d="M58.3295575,51.1278281 C59.2695094,50.8223437 60.3904021,51.3393173 60.9144253,52.06778 C61.4384485,52.7962428 61.5112947,53.6774477 61.5747415,54.5210546 C62.1974596,54.6526479 62.5475917,53.9476839 62.6039889,53.4189609 C62.8389768,51.2547216 62.8507262,49.0505343 63.5768391,46.9638411 C64.302952,44.8771478 65.8891209,42.8562511 68.3282961,42.0525922 C69.1577874,41.7648104 70.044208,41.6801975 70.9131639,41.8058548 C71.4277876,41.8928004 71.9142127,42.0713913 72.4288364,42.1559869 C74.2076954,42.4497219 76.1463463,41.6061151 77.8171109,42.193585 C78.8628074,42.5625161 79.5372229,43.4155225 80.0165984,44.2708788 C80.2302628,44.7301198 80.5193866,45.1503024 80.8719546,45.5139652 C81.5769186,46.1484328 82.6954614,46.3152742 83.7106095,46.515014 C84.7257575,46.7147538 85.8396006,47.0578363 86.2743283,47.8426961 C86.6667583,48.5476601 86.3777231,49.370118 86.2461298,50.1408786 C86.0451903,51.355298 86.249137,52.6020976 86.8265501,53.6891971 C87.0145405,54.0463789 87.395221,54.4505582 87.8440481,54.3354141 C88.0483375,54.2665055 88.2210018,54.1263722 88.3304732,53.9406343 C89.5054131,52.2957184 89.467815,50.1620275 90.9317902,48.6933526 C91.422915,48.2022277 92.0550327,47.8168474 92.5320583,47.316323 C93.2653874,46.5758026 93.5771121,45.5161152 93.3615659,44.4964672 C93.0983794,43.366175 92.186626,42.4238732 91.4652129,41.4416235 C90.5169216,40.182933 89.8261923,38.7495699 89.4325668,37.2235892 C89.363148,37.0468714 89.363148,36.8504351 89.4325668,36.6737173 C89.5706419,36.4938706 89.7483617,36.3483173 89.9518903,36.2483891 C90.776935,35.70126 91.065965,34.625706 90.6263058,33.7387174 C90.2174267,32.885711 89.2986237,32.2535933 88.2905252,31.8729128 C87.2824268,31.4922323 86.1756334,31.3300906 85.0805894,31.1679489 C84.3615262,31.2736935 83.5179193,30.8624645 83.2946807,30.2867439 C83.1959858,30.030607 83.1959858,29.7533212 83.0949409,29.4971843 C82.8999009,29.0060594 82.3382796,28.6582772 81.7343605,28.5384333 C81.1201211,28.4377664 80.4908563,28.4820241 79.8967545,28.6676767 C79.2199891,28.858017 78.4351292,29.1376527 77.8453094,28.8133693 C77.5351253,28.6371283 77.3612342,28.3175446 77.0275512,28.174202 C76.3507858,27.8851668 75.6364224,28.4679369 75.1476474,28.9496623 C74.673408,29.4515091 74.0929132,29.8409144 73.4486843,30.089354 C72.769569,30.324342 71.9330118,30.324342 71.3478917,29.9507111 C70.8779157,29.6522764 70.6429277,29.1729009 70.2692968,28.7922204 C69.6559782,28.1648025 68.6854778,27.8240699 67.7173274,27.7465238 C66.7463143,27.695496 65.773439,27.8018299 64.8363747,28.0614077 C63.0473732,28.4947956 61.3382342,29.2085891 59.7723837,30.1762996 C58.9898737,30.6674245 58.240262,31.2407951 57.8313829,31.9810073 C57.5409243,32.5582133 57.3911523,33.1959519 57.3943053,33.8421121 C57.321459,35.8653586 57.9935246,37.9990495 59.7441851,39.4160271 C58.6773397,39.8625042 58.3154582,40.9551983 58.0663709,41.9256987 C57.6668913,43.4719196 57.2650619,45.0463391 57.4154542,46.6254584 C57.4906504,47.4408667 57.7138889,48.256275 57.5940451,49.0669835 C57.537648,49.4594134 57.4013549,49.8447937 57.4342532,50.2419234 C57.5234767,50.6925079 57.8780564,51.043365 58.3295575,51.1278281 L58.3295575,51.1278281 Z" id="Path" fill="#2D2236" fill-rule="nonzero"></path>
                            <g id="Group" opacity="0.1" transform="translate(57.178116, 32.843413)" fill="#000000" fill-rule="nonzero">
                                <path d="M35.9766601,11.0420853 C35.8218327,11.3770115 35.6130478,11.6842349 35.3586417,11.9514888 C34.8886658,12.4520132 34.2494985,12.8373935 33.7583736,13.3308683 C32.2943985,14.7971933 32.3249469,16.9379338 31.1570566,18.5781499 C31.047481,18.763284 30.8747517,18.9026357 30.6706315,18.9705798 C30.2218044,19.0857239 29.8411239,18.6815446 29.6531335,18.3243629 C29.4247913,17.8899531 29.2534042,17.4279187 29.1432096,16.9496832 C29.1181442,17.0687438 29.0946454,17.1885876 29.0727132,17.3092148 C28.8717738,18.5236342 29.0757204,19.7704338 29.6531335,20.8575333 C29.8411239,21.2147151 30.2218044,21.6188944 30.6706315,21.5037503 C30.874921,21.4348417 31.0475852,21.2947084 31.1570566,21.1089705 C32.3319965,19.4640546 32.2943985,17.3303637 33.7583736,15.8616888 C34.2494985,15.3705639 34.8816161,14.9851837 35.3586417,14.4846592 C36.0919709,13.7441388 36.4036956,12.6844514 36.1881493,11.6648035 C36.1380104,11.4508645 36.0671805,11.2423098 35.9766601,11.0420853 L35.9766601,11.0420853 Z" id="Path"></path>
                                <path d="M32.7831735,0.895304214 C32.5792836,0.993609227 32.4013828,1.13850582 32.26385,1.31828258 C32.1944312,1.49500035 32.1944312,1.6914367 32.26385,1.86815446 C32.3993562,2.40079603 32.5729098,2.92302719 32.7831735,3.43082455 L32.7831735,3.43082455 C33.6187387,2.8787178 33.9052229,1.78643361 33.4481894,0.895304214 C33.3820477,0.755340793 33.3033988,0.621637726 33.2132015,0.495824643 C33.0907249,0.649816341 32.9457567,0.784486174 32.7831735,0.895304214 L32.7831735,0.895304214 Z" id="Path"></path>
                                <path d="M2.56371889,4.06294222 C1.35183248,3.06096591 0.552665432,1.64673312 0.319583656,0.0916453132 C0.258865942,0.401515651 0.224279493,0.715937918 0.216188944,1.03159724 C0.140738632,2.52477144 0.53521002,4.00403915 1.34413126,5.26138093 C1.59005031,4.72593701 2.02405542,4.299458 2.56371889,4.06294222 Z" id="Path"></path>
                                <path d="M29.0727132,14.7760443 C29.2043065,14.0052838 29.4933417,13.1851757 29.1009118,12.4778619 C28.666184,11.693002 27.5546908,11.3475697 26.5371929,11.1501798 C25.5196949,10.9527899 24.4082018,10.7835985 23.698538,10.149131 C23.34597,9.7854682 23.0568462,9.3652856 22.8431818,8.90604454 C22.3732058,8.05068828 21.6893908,7.19768191 20.6436943,6.82875078 C18.9729297,6.24128082 17.0342789,7.08488768 15.2554198,6.7911527 C14.7407961,6.70655702 14.254371,6.52796616 13.7397473,6.4410206 C12.8717284,6.31159347 11.9853293,6.39217521 11.1548795,6.67600859 C8.71570428,7.47966749 7.12953539,9.49586438 6.40342253,11.5872574 C5.67730966,13.6786505 5.6608605,15.878138 5.43057228,18.0423773 C5.37417516,18.5711003 5.02404307,19.2760642 4.40132491,19.1444709 C4.33787816,18.3008641 4.26033212,17.4196592 3.74100868,16.6911964 C3.22168524,15.9627337 2.11254196,15.4434102 1.15614087,15.7512445 C0.866586997,15.6858457 0.609913838,15.5191749 0.432377888,15.2812685 C0.465109474,15.5940301 0.460376206,15.9095813 0.418278609,16.2212204 C0.361881493,16.6136504 0.225588463,16.9990307 0.258486781,17.3961604 C0.346523115,17.8469724 0.700170769,18.1987588 1.15144111,18.2844149 C2.09139305,17.9789306 3.21228572,18.4959041 3.73630892,19.2243669 C4.26033212,19.9528296 4.3331784,20.8340345 4.39662515,21.6776414 C5.01934331,21.8092347 5.3694754,21.1042707 5.42587252,20.5755478 C5.6608605,18.4113084 5.6726099,16.2071212 6.39872277,14.1204279 C7.12483563,12.0337346 8.71100452,10.0128379 11.1501798,9.20917904 C11.9796711,8.92139721 12.8660916,8.83678434 13.7350476,8.96244166 C14.2496713,9.04938721 14.7360964,9.22797808 15.2507201,9.31257375 C17.0295791,9.60630873 18.96823,8.76270187 20.6389945,9.35017183 C21.684691,9.71910296 22.3591065,10.5721093 22.838482,11.4274656 C23.0521465,11.8867067 23.3412702,12.3068893 23.6938383,12.670552 C24.3988022,13.3050196 25.517345,13.471861 26.5324931,13.6716008 C27.5476412,13.8713406 28.5792384,14.1909243 29.0445147,14.919387 C29.0562641,14.8794391 29.0633137,14.8277417 29.0727132,14.7760443 Z" id="Path"></path>
                                <path d="M0.422978369,13.7091989 C0.478023516,13.0710592 0.440028304,12.4283068 0.310184137,11.8010965 C0.209661863,12.4627698 0.187576921,13.1339943 0.244387502,13.8008442 C0.258486781,13.9723854 0.281985579,14.1415768 0.305484377,14.313118 C0.333682935,14.1110284 0.385380292,13.9112886 0.422978369,13.7091989 Z" id="Path"></path>
                            </g>
                            <rect id="Rectangle" fill="#FFFFFF" fill-rule="nonzero" x="144.765187" y="72.483536" width="21.1489184" height="14.6749995"></rect>
                            <path d="M164.029502,83.5561697 C163.727828,84.0635196 163.26313,84.453667 162.711219,84.6629631 C162.735086,84.850795 162.739024,85.040624 162.722969,85.2292842 L160.608077,85.1023906 L162.666572,85.5535676 C162.529198,86.1810951 162.168416,86.7372993 161.651424,87.1185875 L158.78927,87.1185875 L158.78927,87.1937837 L155.870719,87.1937837 C155.870719,87.167935 155.870719,87.1444362 155.889518,87.1185875 C155.952145,86.8796822 156.048689,86.6509855 156.176204,86.4394723 C156.477711,85.9328927 156.941381,85.5429127 157.492136,85.3326789 C157.337446,84.1279304 158.028055,82.9740021 159.162901,82.5410216 C159.146544,82.421119 159.139473,82.3001319 159.141752,82.1791401 L160.502332,82.7149127 L159.155851,81.9253531 C159.232707,81.2040663 159.604362,80.5466527 160.182749,80.108896 L161.421135,82.1156934 L160.492933,79.9068063 C161.532515,79.340901 162.821986,79.5385923 163.644285,80.3899466 C164.466585,81.2413008 164.6194,82.5368558 164.017753,83.5561697 L164.029502,83.5561697 Z" id="Path" fill="#5D2784" fill-rule="nonzero" opacity="0.1"></path>
                            <path d="M162.358737,86.3548766 C162.178649,86.6570932 161.938764,86.9193674 161.653773,87.1256372 L158.78927,87.1256372 L158.78927,87.2008333 L155.870719,87.2008333 C155.870719,87.1749846 155.870719,87.1514858 155.889518,87.1256372 C155.952145,86.8867319 156.048689,86.6580352 156.176204,86.4465219 C156.477711,85.9399423 156.941381,85.5499624 157.492136,85.3397285 C157.468637,85.1493882 158.034958,85.1752369 158.78927,85.3021304 C160.264994,85.5512177 162.459782,86.1880351 162.358737,86.3548766 Z" id="Path" fill="#5D2784" fill-rule="nonzero" opacity="0.1"></path>
                            <path d="M145.568846,83.5561697 C145.87052,84.0635196 146.335217,84.453667 146.887129,84.6629631 C146.863262,84.850795 146.859323,85.040624 146.875379,85.2292842 L148.990271,85.1023906 L146.931776,85.5535676 C147.06915,86.1810951 147.429931,86.7372993 147.946924,87.1185875 L150.816128,87.1185875 L150.816128,87.1937837 L153.737028,87.1937837 C153.737028,87.167935 153.722929,87.1444362 153.718229,87.1185875 C153.653558,86.8803825 153.557131,86.6519617 153.431544,86.4394723 C153.128592,85.9332103 152.664322,85.5434222 152.113261,85.3326789 C152.267951,84.1279304 151.577343,82.9740021 150.442497,82.5410216 C150.458509,82.4210652 150.46636,82.3001601 150.465996,82.1791401 L149.105415,82.7149127 L150.449546,81.9253531 C150.372691,81.2040663 150.001035,80.5466527 149.422649,80.108896 L148.184262,82.1156934 L149.112465,79.9068063 C148.072882,79.340901 146.783412,79.5385923 145.961112,80.3899466 C145.138813,81.2413008 144.985997,82.5368558 145.587645,83.5561697 L145.568846,83.5561697 Z" id="Path" fill="#5D2784" fill-rule="nonzero" opacity="0.1"></path>
                            <path d="M147.239611,86.3548766 C147.419699,86.6570932 147.659584,86.9193674 147.944575,87.1256372 L150.813778,87.1256372 L150.813778,87.2008333 L153.734678,87.2008333 C153.734678,87.1749846 153.720579,87.1514858 153.715879,87.1256372 C153.651208,86.8874321 153.554782,86.6590113 153.429194,86.4465219 C153.126242,85.9402599 152.661972,85.5504718 152.110911,85.3397285 C152.13441,85.1493882 151.568089,85.1752369 150.813778,85.3021304 C149.333353,85.5512177 147.131516,86.1880351 147.239611,86.3548766 Z" id="Path" fill="#5D2784" fill-rule="nonzero" opacity="0.1"></path>
                            <rect id="Rectangle" fill="#464353" fill-rule="nonzero" x="152.703081" y="75.7169706" width="4.72560833" height="5.26373081"></rect>
                            <rect id="Rectangle" fill="#000000" fill-rule="nonzero" opacity="0.1" x="152.703081" y="75.7169706" width="4.72560833" height="5.26373081"></rect>
                            <polygon id="Path" fill="#A1616A" fill-rule="nonzero" points="150.689234 85.7979551 150.592889 87.1655851 151.94172 87.1655851 152.026316 85.3585275"></polygon>
                            <polygon id="Path" fill="#A1616A" fill-rule="nonzero" points="157.795271 85.7979551 157.590831 87.1655851 158.826868 87.1655851 158.904414 85.3585275"></polygon>
                            <path d="M153.882721,78.3511859 C153.882721,78.3511859 153.835723,79.0350009 153.671232,79.2135918 C153.50674,79.3921827 155.139907,80.9736518 156.425291,79.4109817 C156.425291,79.4109817 155.873069,78.9410057 156.002312,78.4146327 C156.131556,77.8882596 153.882721,78.3511859 153.882721,78.3511859 Z" id="Path" fill="#A1616A" fill-rule="nonzero"></path>
                            <path d="M153.882721,78.3511859 C153.882721,78.3511859 153.835723,79.0350009 153.671232,79.2135918 C153.50674,79.3921827 155.139907,80.9736518 156.425291,79.4109817 C156.425291,79.4109817 155.873069,78.9410057 156.002312,78.4146327 C156.131556,77.8882596 153.882721,78.3511859 153.882721,78.3511859 Z" id="Path" fill="#000000" fill-rule="nonzero" opacity="0.1"></path>
                            <circle id="Oval" fill="#A1616A" fill-rule="nonzero" cx="155.06471" cy="76.5981755" r="2.36397911"></circle>
                            <path d="M154.942517,79.8175109 C154.942517,79.8175109 153.950867,79.8010618 153.802825,78.896358 C153.606347,79.0661822 153.399128,79.2231663 153.182457,79.366334 C153.086112,79.3992323 152.13911,79.9350049 151.960519,79.9679032 C151.785842,80.0033101 151.623675,80.0843938 151.490543,80.2028912 C151.017817,80.5742745 150.731782,81.1343204 150.708033,81.7350128 C150.675135,82.7948087 150.545891,84.8650528 150.545891,84.8650528 L150.595239,85.6146644 L150.595239,86.1034394 C150.595239,86.1034394 151.474094,86.3384274 152.005167,85.8684515 C152.005167,85.8684515 152.005167,85.6898606 152.103862,85.6334635 C152.202557,85.5770664 152.216656,85.3397285 152.200207,85.2410336 C152.191756,85.0946796 152.191756,84.94796 152.200207,84.801606 C152.217222,84.8811805 152.264382,84.9510783 152.3318,84.996646 C152.370806,85.1292195 152.382006,85.2684208 152.364698,85.4055251 C152.315351,85.5018702 152.266004,85.7298086 152.315351,85.779156 C152.366443,85.8687849 152.353099,85.9812566 152.282453,86.0564419 C152.192814,86.1819494 152.121596,86.3196378 152.070963,86.4653209 C152.070963,86.4653209 152.021616,86.756706 151.972269,86.7896044 C151.916632,86.9087966 151.878636,87.0354504 151.859474,87.1655851 L157.734174,87.1655851 C157.630504,86.867966 157.551901,86.5621998 157.499186,86.2514819 C157.515635,86.1057893 157.353493,85.5018702 157.466288,85.3397285 C157.632351,85.1248246 157.723913,84.8616869 157.727124,84.5901168 L157.792921,85.2245844 L157.61433,86.6345123 C157.61433,86.6345123 158.704674,86.9775947 158.819818,86.7637557 C158.941716,86.3916392 159.034425,86.0105881 159.097104,85.624064 C159.097104,85.624064 159.357941,84.449124 159.423737,84.2869823 C159.489534,84.1248406 159.635227,80.8655573 158.754022,80.3932315 C157.872817,79.9209056 156.211452,79.1078472 156.169154,79.1477952 C155.975144,79.6375101 155.459371,79.9191102 154.942517,79.8175109 L154.942517,79.8175109 Z" id="Path" fill="#2FADD6" fill-rule="nonzero"></path>
                            <path d="M152.110911,83.003948 C151.943072,83.2440734 151.870997,83.5382399 151.908822,83.8287558 C151.94836,84.1165058 152.042473,84.394061 152.186108,84.646514" id="Path" stroke="#000000" stroke-width="1.024512" opacity="0.1"></path>
                            <path d="M157.81877,83.2271865 C157.860972,83.3466835 157.893966,83.4692352 157.917464,83.5937678 C158.002913,83.908727 157.946244,84.2453062 157.762372,84.5149207" id="Path" stroke="#000000" stroke-width="1.024512" opacity="0.1"></path>
                            <path d="M154.007264,74.9814582 C154.192045,74.9321431 154.388489,74.9522054 154.559486,75.0378553 C154.727674,75.1246333 154.903978,75.1946826 155.085859,75.2469946 C155.208053,75.2728433 155.320847,75.2728433 155.45714,75.2916424 C155.921482,75.3759775 156.287952,75.7340765 156.382993,76.1963461 C156.488738,76.7744165 156.148005,77.3430875 156.148005,77.9329073 C156.14929,78.2704386 156.268108,78.5969812 156.484038,78.8564101 C156.665245,79.0216254 156.82333,79.2105369 156.954014,79.4180313 C157.02216,79.5684236 157.03626,79.7399649 157.102056,79.8880073 C157.24579,80.1541731 157.48382,80.3570022 157.769422,80.4566782 C158.052601,80.5518041 158.325722,80.6745906 158.58483,80.8232595 C159.054806,81.1357935 159.332092,81.7350128 159.877264,81.8642562 C159.931998,81.8879127 159.994072,81.8879127 160.048805,81.8642562 C160.098991,81.8243686 160.128376,81.7638704 160.128701,81.6997647 C160.156185,81.4667441 160.075697,81.2339363 159.910163,81.067647 C159.776219,80.9337038 159.581179,80.832659 159.538882,80.6517182 C159.496584,80.4707775 159.609378,80.3156854 159.670475,80.1511938 C159.865515,79.6177711 159.541231,79.0373508 159.1723,78.6049729 C158.803369,78.172595 158.361592,77.7449169 158.272296,77.195045 C158.251177,77.0094195 158.244107,76.822464 158.251147,76.6357736 C158.244355,76.2510538 158.177763,75.8697316 158.053758,75.5054814 C157.99417,75.3086471 157.898554,75.1245872 157.771772,74.9626592 C157.654278,74.8216664 157.503886,74.7135719 157.381692,74.5772789 C157.219374,74.3530152 157.073308,74.1174258 156.944614,73.872315 C156.565386,73.2824878 155.918463,72.9189785 155.217453,72.9018146 C154.557136,72.9018146 153.932068,73.1931997 153.372797,73.5433318 C153.167108,73.6555432 152.988923,73.8120573 152.851124,74.0015583 C152.616136,74.3751892 152.686632,74.868664 152.550339,75.2916424 C152.414046,75.7146207 152.092112,76.0271548 151.979318,76.4407336 C151.944617,76.562265 151.938982,76.6902538 151.962869,76.8143645 C152.004807,76.9453242 152.060744,77.0713798 152.12971,77.1903453 C152.254537,77.4929093 152.325323,77.8150242 152.33885,78.1420466 C152.374098,78.5368264 152.390547,78.9621547 152.183758,79.2981875 C152.023273,79.5019122 151.823497,79.6713217 151.596288,79.796362 C151.826719,79.9833323 152.120767,80.0734845 152.416396,80.0477991 C152.862873,80.0665982 153.379847,80.0477991 153.657132,79.6953172 C153.823069,79.4422314 153.889991,79.1369004 153.845123,78.837611 C153.823196,78.5105428 153.756788,78.1879899 153.647733,77.8788601 C153.494991,77.4441323 153.260003,77.0329033 153.191856,76.5770266 C153.137885,76.2447382 153.222851,75.9048721 153.426844,75.6370747 C153.51144,75.5313301 153.661832,75.4772829 153.732329,75.3644886 C153.821624,75.2140963 153.795775,75.0566544 154.007264,74.9814582 Z" id="Path" fill="#2D2236" fill-rule="nonzero"></path>
                            <g id="Group" opacity="0.1" transform="translate(151.408297, 74.436286)" fill="#000000" fill-rule="nonzero">
                                <path d="M0.721413107,2.72351072 C0.84623949,3.02607479 0.91702522,3.34818963 0.930552411,3.67521205 C0.930552411,3.77860676 0.94700157,3.88435135 0.94935145,3.99009594 C0.974024061,3.76046857 0.974024061,3.52885866 0.94935145,3.29923128 C0.934943442,2.97612085 0.864165117,2.65801602 0.740212145,2.35927935 C0.672652371,2.24042121 0.616777088,2.11529205 0.573370678,1.98564845 C0.53860273,2.10636641 0.532965364,2.23360981 0.556921519,2.35692947 C0.598730663,2.48455907 0.653865286,2.60743052 0.721413107,2.72351072 Z" id="Path"></path>
                                <path d="M2.26998391,4.89009992 C1.99269809,5.24023201 1.47572453,5.26138093 1.02924736,5.24493177 C0.84036239,5.24552354 0.652515304,5.2169898 0.472325845,5.1603361 C0.383030412,5.23318237 0.286685339,5.30132889 0.192690146,5.36712552 C0.423121286,5.55409586 0.717168907,5.644248 1.01279821,5.61856266 C1.45927537,5.6373617 1.97624893,5.61856266 2.25353475,5.26608069 C2.41240931,5.03100485 2.48085307,4.74637896 2.4462249,4.46477167 C2.42534755,4.61943001 2.36461337,4.76600184 2.26998391,4.89009992 L2.26998391,4.89009992 Z" id="Path"></path>
                                <path d="M8.14703336,5.83005185 C8.15357754,5.8568513 8.16303328,5.8828546 8.17523192,5.90759788 C8.20343047,5.84180125 8.23632879,5.77365473 8.26217747,5.70550822 C8.31857466,5.55073125 8.33474585,5.384168 8.30917507,5.22143297 C8.30118181,5.25881862 8.29098114,5.29569799 8.27862663,5.33187733 C8.21752975,5.49636891 8.1070854,5.6608605 8.14703336,5.83005185 Z" id="Path"></path>
                                <path d="M4.98879487,1.87285422 C5.01583219,1.71183964 5.01583219,1.54744368 4.98879487,1.3864291 C4.89435094,0.923833901 4.52759592,0.565456531 4.06294222,0.481725364 C3.93839859,0.460576446 3.81385496,0.460576446 3.69166121,0.437077648 C3.51013182,0.383739297 3.33392387,0.313728106 3.16528813,0.227938343 C2.99458725,0.141500359 2.79813197,0.120600861 2.61306637,0.169191347 C2.40157718,0.244387502 2.42742586,0.40417933 2.33343067,0.559271399 C2.26528415,0.67206563 2.11254196,0.728462746 2.02794629,0.831857458 C1.84170107,1.08025007 1.75761708,1.39051997 1.79295831,1.69896311 C1.82238571,1.51919375 1.89765319,1.35004426 2.01149713,1.20783823 C2.09609281,1.10209364 2.24648511,1.0480464 2.31698151,0.935252171 C2.4109767,0.777810222 2.38512802,0.620368274 2.59661721,0.54517212 C2.78139809,0.49585696 2.97784175,0.515919292 3.14883897,0.601569236 C3.31702649,0.688347188 3.49333047,0.758396538 3.67521205,0.81070854 C3.7974058,0.836557218 3.91020003,0.836557218 4.04649306,0.855356257 C4.51083507,0.939691421 4.87730515,1.29779036 4.97234571,1.76005999 C4.9801461,1.79728349 4.98563962,1.8349533 4.98879487,1.87285422 L4.98879487,1.87285422 Z" id="Path"></path>
                                <path d="M8.64755776,7.04493972 C8.59242034,7.06655626 8.53115396,7.06655626 8.47601653,7.04493972 C7.93084441,6.91569633 7.64885883,6.31647697 7.18358263,6.00394296 C6.92350776,5.85717799 6.6505712,5.73447452 6.36817433,5.6373617 C6.08273902,5.53866389 5.84463634,5.33661197 5.70080846,5.07104067 C5.63501182,4.91829848 5.62091254,4.74910713 5.55276603,4.6010647 C5.4219667,4.39365446 5.26389408,4.20475769 5.08279006,4.03944342 C4.88698872,3.80637322 4.76870839,3.51806491 4.74440737,3.2146356 C4.73035638,3.30560744 4.72325845,3.39752098 4.72325845,3.48957154 C4.7275001,3.83158653 4.85232668,4.16112869 5.07574042,4.42012395 C5.25694768,4.5853393 5.41503263,4.77425081 5.54571639,4.98174523 C5.6138629,5.13213754 5.62796218,5.30367877 5.69375882,5.4517212 C5.83749231,5.71788702 6.07552312,5.92071609 6.36112469,6.02039211 C6.64430383,6.11551802 6.91742504,6.2383045 7.17653299,6.38697337 C7.64650895,6.69950738 7.92379477,7.29872674 8.46896689,7.42797013 C8.52370054,7.45162656 8.58577447,7.45162656 8.64050812,7.42797013 C8.69042401,7.38786662 8.71974227,7.32750548 8.72040404,7.26347854 C8.73102823,7.17481482 8.72625836,7.08498224 8.70630476,6.99794212 C8.69125611,7.01855908 8.67097523,7.03478379 8.64755776,7.04493972 Z" id="Path"></path>
                            </g>
                            <rect id="Rectangle" fill="#5D2784" fill-rule="nonzero" opacity="0.1" x="146.922377" y="73.5621308" width="3.02194546" height="4.31672924"></rect>
                            <rect id="Rectangle" fill="#5D2784" fill-rule="nonzero" opacity="0.1" x="147.354755" y="74.1801492" width="2.15718968" height="3.08304233"></rect>
                            <rect id="Rectangle" fill="#5D2784" fill-rule="nonzero" opacity="0.1" x="159.870215" y="74.2106976" width="4.96294619" height="2.58956757"></rect>
                            <rect id="Rectangle" fill="#5D2784" fill-rule="nonzero" opacity="0.1" x="160.518781" y="74.5490803" width="3.66816241" height="1.91515206"></rect>
                        </g>
                    </g>
                </g>
            </g>
        </g>
    </g>
</svg>