<?xml version="1.0" encoding="UTF-8"?>
<svg width="185px" height="165px" viewBox="0 0 185 165" version="1.1" xmlns="http://www.w3.org/2000/svg" xmlns:xlink="http://www.w3.org/1999/xlink">
    <title>Group 18</title>
    <g id="Page-1" stroke="none" stroke-width="1" fill="none" fill-rule="evenodd">
        <g id="1.000-Book-a-Dev" transform="translate(-472.000000, -1245.000000)">
            <g id="Group-19" transform="translate(144.000000, 1085.000000)">
                <g id="Group-47" transform="translate(0.000000, 160.000000)">
                    <g id="Group-40" transform="translate(312.000000, 0.000000)">
                        <g id="Group-18" transform="translate(16.000000, 0.000000)">
                            <g id="undraw_speed_test_wxl0" transform="translate(0.846336, 0.228288)">
                                <path d="M75.2886379,23.699264 L47.8336361,46.4534948 C50.9173978,49.8372961 51.8901816,54.641289 50.3655486,58.9570847 C48.8409156,63.2728805 45.0657259,66.4016898 40.5396755,67.1005916 C36.013625,67.7994934 31.4695465,65.9553255 28.7125773,62.3006844 L4.098048,82.7007774 L43.5547541,130.248512 L114.745344,71.2469894 L75.2886379,23.699264 Z" id="Path" fill="#12021E" fill-rule="nonzero" opacity="0.04"></path>
                                <g id="Group-35" transform="translate(130.088512, 0.000000)" fill-rule="nonzero">
                                    <path d="M19.3993894,151.686175 L17.9424803,150.571712 C17.9424803,150.571712 16.9780982,156.118295 18.0542266,156.949324 C19.130355,157.780353 23.1658412,159.165384 23.1658412,160.82743 C23.1658412,162.489476 32.3129419,164.705534 32.581974,162.212466 C32.8510061,159.719399 31.7748777,158.334362 31.7748777,158.334362 C31.7748777,158.334362 27.4703594,153.902242 26.9322952,153.07122 C26.394231,152.240198 25.0490682,150.578153 25.0490682,150.578153 L19.3993894,151.686175 Z" id="Path" fill="#3F3D56"></path>
                                    <path d="M40.745152,83.9058446 C40.745152,83.9058446 40.7035376,84.1405762 40.631445,84.5700238 C40.56483,84.951459 40.4733108,85.4902767 40.3623438,86.1544559 C39.1972582,92.9909954 35.799149,113.116474 36.0294111,113.780653 C36.3068075,114.580871 38.2485822,117.515003 36.0294111,118.315223 C35.8158098,118.39257 35.585583,118.643306 35.3386953,119.038075 C34.8621838,119.888347 34.4693482,120.779579 34.1653124,121.700145 C32.8421255,125.391809 31.4273748,131.300092 30.6090688,135.391864 C30.2512165,137.189701 30.0071394,138.635424 29.9350139,139.392955 C29.9099391,139.568028 29.9071417,139.745386 29.9266835,139.92111 C30.2040799,140.988068 28.2623052,144.722418 27.4301137,145.789377 C26.5979222,146.856336 25.2109402,147.92329 25.488339,148.990249 C25.7657377,150.057208 18.5534223,152.991338 17.7212331,151.124164 C16.8890439,149.25699 16.8890416,148.190032 16.6116452,147.656551 C16.3342488,147.123071 16.0568524,143.388723 17.4438344,142.855242 C18.8308163,142.321762 17.9986295,132.985899 19.3856114,131.118712 C19.8488426,130.497203 20.5562168,128.392627 21.2968797,125.861272 C21.588124,124.869009 21.8821812,123.812716 22.1706856,122.753774 C23.341291,118.413919 24.3787511,114.047395 24.3787511,114.047395 L24.1013594,82.8388881 L39.3581748,80.971712 L39.7492805,81.8012683 L40.5287802,83.4470468 L40.745152,83.9058446 Z" id="Path" fill="#12021E"></path>
                                    <path d="M42.4820673,137.616971 C42.4820673,137.616971 44.5889267,135.445138 45.6423553,137.616971 C46.6957839,139.788804 47.7492148,148.204671 49.5927171,150.105023 C51.4362194,152.005374 53.8064338,161.507158 51.17286,162.050116 C48.5392862,162.593075 45.6423553,161.235679 45.3789982,159.606802 C45.115641,157.977925 39.585152,149.562065 39.585152,148.747627 C39.585152,147.93319 43.2721544,144.946915 43.2721544,144.946915 L42.4820673,137.616971 Z" id="Path" fill="#3F3D56"></path>
                                    <path d="M9.425152,68.9656934 C9.425152,68.9656934 12.8978731,101.084025 13.699267,104.103692 C14.5006608,107.123359 18.7747803,118.65302 20.1104428,120.57463 C21.4461053,122.49624 29.9943375,138.143632 31.0628657,138.967178 C32.1313939,139.790724 34.2684547,141.986849 34.2684547,141.986849 C34.2684547,141.986849 38.2754377,146.104585 38.8097018,146.928131 C39.3439658,147.751677 43.8852151,145.281039 44.1523472,143.633944 C44.4194792,141.986849 43.8852151,139.241693 43.6180831,138.143632 C43.350951,137.04557 44.1523472,135.398475 43.350951,134.574927 C42.5495549,133.751378 38.5425697,129.633645 38.5425697,127.712035 C38.5425697,125.790425 31.5971275,114.535284 28.9258071,112.064643 C26.2544866,109.594002 26.7887507,105.476267 26.7887507,105.476267 L26.7887507,88.7308159 L41.4810245,84.0640495 C41.4810245,84.0640495 40.6796283,70.8872989 38.8097018,70.8872989 C36.9397752,70.8872989 12.3636067,66.4950479 9.425152,68.9656934 Z" id="Path" fill="#12021E"></path>
                                    <ellipse id="Oval" fill="#9F616A" cx="30.885152" cy="14.851712" rx="8.7" ry="9.28"></ellipse>
                                    <path d="M28.2171316,21.0309003 C28.2171316,21.0309003 27.1836762,25.4526177 25.8918548,26.6317442 C24.6000334,27.8108706 29.2505892,32.82215 29.2505892,32.82215 L38.0349667,33.411712 L39.585152,27.8108681 C39.585152,27.8108681 36.7431475,21.3256813 37.518239,17.1987424 C38.2933306,13.0718035 28.2171316,21.0309003 28.2171316,21.0309003 Z" id="Path" fill="#9F616A"></path>
                                    <path d="M23.6363182,26.451712 C23.6363182,26.451712 26.0422483,26.7285323 26.5768989,27.5589861 C27.1115496,28.3894398 30.8541063,30.8808035 33.7946893,30.3271677 C36.7352723,29.7735318 38.6065495,28.9430757 39.1412001,29.219896 C39.6758507,29.4967163 40.745152,35.3098951 40.745152,35.3098951 L37.8045713,44.1680758 L38.3392219,68.528077 L39.1412001,75.171712 C39.1412001,75.171712 40.745152,72.9571662 34.3293399,74.3412582 C27.9135278,75.7253502 19.6264339,73.2339842 16.9531717,72.9571662 C14.2799095,72.6803483 9.73538138,71.8498945 9.46805606,70.1889846 C9.20073075,68.5280747 10.270032,62.4380756 10.270032,62.4380756 L14.5472416,43.8912579 L17.220497,33.9258031 L23.6363182,26.451712 Z" id="Path" fill="#3F3D56"></path>
                                    <path d="M26.825152,24.7229909 C26.825152,24.7229909 24.4442397,23.487065 23.5998328,24.588949 C22.7554258,25.690833 12.0596278,27.3436555 12.0596278,28.1700691 C12.0596278,28.9964827 9.80788002,51.3096051 10.3708164,53.2379097 C10.9337527,55.1662143 9.24494366,57.3699707 9.24494366,57.3699707 L7.27466402,65.6340808 C7.27466402,65.6340808 1.92676383,81.3359086 4.17851165,81.8868494 C6.43025948,82.4377902 8.40053912,81.8868494 9.24494366,81.8868494 C10.0893482,81.8868494 9.80788002,71.4189642 12.0596278,68.6642577 C14.3113757,65.9095512 17.407528,59.0227838 17.9704644,57.6454317 C18.5334008,56.2680796 25.5701124,37.2606022 25.2886466,35.0568365 C25.0071808,32.8530709 26.825152,24.7229909 26.825152,24.7229909 Z" id="Path" fill="#D0CDE1"></path>
                                    <path d="M38.4973296,26.451712 C38.4973296,26.451712 40.6931063,26.451712 40.9675781,26.9978777 C41.2420499,27.5440435 43.9867702,31.0941057 45.0846597,31.9133531 C46.1825492,32.7326005 50.025152,36.2826627 50.025152,37.1019102 C50.025152,37.9211576 42.065463,43.9289575 42.065463,43.9289575 C42.065463,43.9289575 38.7717991,60.0407945 40.4186322,65.5024333 C42.0654653,70.9640721 44.5357114,84.0720056 43.4378243,84.8912507 C42.3399371,85.7104959 39.8696863,85.9835799 39.8696863,84.8912507 C39.8696863,83.7989216 38.2228532,72.0563989 36.8504919,69.5986612 C35.4781306,67.1409235 31.3610513,51.5752523 33.0078844,47.2059426 C34.6547175,42.836633 38.4973296,26.451712 38.4973296,26.451712 Z" id="Path" fill="#D0CDE1"></path>
                                    <path d="M1.31133711,51.971712 C1.31133711,51.971712 1.05001602,60.4067727 3.92455019,64.7603535 C6.79908436,69.1139342 8.62833419,74.011712 8.62833419,74.011712 C8.62833419,74.011712 13.3321182,72.6512171 14.1160814,71.0186238 C14.9000447,69.3860304 19.865152,70.7465253 19.865152,70.2023283 C19.865152,69.6581312 13.8547604,66.9371438 13.3321182,66.3929468 C12.809476,65.8487498 10.9802262,65.8487475 9.93493962,64.7603535 C8.88965305,63.6719594 8.62833197,61.2230682 8.62833197,61.2230682 L7.58304762,54.1484978 L1.31133711,51.971712 Z" id="Path" fill="#9F616A"></path>
                                    <path d="M23.2812026,9.61508816 C22.5670872,9.55020069 21.8305897,9.47880202 21.1994623,9.13832904 C19.785319,8.37544519 19.4103236,6.2029517 20.4868459,5.00987557 C20.783668,4.70630659 21.1156599,4.43927188 21.4757733,4.21444055 L23.6139258,2.75863176 C24.5595857,2.11476161 25.5275991,1.46033794 26.6305491,1.15680945 C27.6281434,0.882274511 28.6817728,0.910484898 29.7144356,0.97469427 C31.7191097,1.09933094 33.7361935,1.35678922 35.6217131,2.04914829 C37.5072328,2.74150735 39.2660935,3.89980937 40.4080529,5.55266348 C42.2184112,8.17294643 42.2432947,11.7068639 41.246204,14.7318435 C40.2491134,17.7568232 38.3550891,20.3909666 36.4888318,22.971712 L35.5204819,18.2453559 C35.434231,17.8243872 35.3226931,17.3630071 34.9726863,17.1138603 C34.1027678,16.4946238 33.0386527,17.7660396 31.9709931,17.7577973 C31.2849763,17.7525015 30.70902,17.1880693 30.4490402,16.5529977 C30.1890605,15.9179262 30.171944,15.2146363 30.1117939,14.5310233 C29.984395,13.0830891 29.4784634,11.0684018 28.1076997,10.2698557 C26.8303668,9.52574611 24.716969,9.74554598 23.2812026,9.61508816 Z" id="Path" fill="#12021E"></path>
                                    <path d="M24.505152,83.3798299 C24.505152,83.3798299 25.7555901,111.412595 26.496056,112.27344 C27.236522,113.134285 26.496056,83.291712 26.496056,83.291712 L24.505152,83.3798299 Z" id="Path" fill="#000000" opacity="0.1"></path>
                                    <path d="M14.065152,27.611712 L11.986044,27.611712 C11.986044,27.611712 3.14983539,40.3164743 4.18939051,41.145045 C5.22894563,41.9736157 4.18939051,44.1831422 4.18939051,44.1831422 L2.11028248,48.325998 C2.11028248,48.325998 -0.488602005,50.8117125 0.291062679,51.3640929 C1.07072736,51.9164734 2.11028248,54.1259976 2.11028248,54.1259976 C2.11028248,54.1259976 7.30805145,53.2974269 8.86738523,56.611712 L12.2380901,52.0894843 L14.065152,27.611712 Z" id="Path" fill="#D0CDE1"></path>
                                    <path d="M39.7870407,51.8357974 C39.7870407,51.8357974 33.7818713,52.1089505 26.9578184,47.7385323 L20.1337539,44.7338822 C20.1337539,44.7338822 14.1285869,35.446744 13.5826607,37.0856514 C13.0367345,38.7245589 14.4015488,42.0023714 14.4015488,42.0023714 C14.4015488,42.0023714 6.16612249,45.8163589 5.95204683,46.3204592 C5.73797117,46.8245596 10.5800771,45.5533232 10.5800771,45.5533232 C10.5800771,45.5533232 9.76119135,50.743194 14.4015488,51.0163448 C19.0419062,51.2894957 20.4067159,50.1968923 20.4067159,50.1968923 C20.4067159,50.1968923 40.0599934,66.5859572 43.3355388,61.3960864 C46.6110843,56.2062156 39.7870407,51.8357974 39.7870407,51.8357974 Z" id="Path" fill="#9F616A"></path>
                                    <path d="M47.0358765,35.731712 L50.0786774,36.8177021 L50.0786774,44.9626175 L51.185152,46.5915992 C51.185152,46.5915992 50.9085339,49.8495672 50.0786774,50.6640581 C49.2488209,51.4785489 47.5891149,51.207052 48.142351,53.1075329 C48.4748489,54.3465683 48.5686631,55.6356525 48.4189691,56.9084925 C48.4189691,56.9084925 43.4398394,63.1529293 43.1632213,62.3384384 C42.8866033,61.5239476 39.0139458,51.4785489 38.4607097,51.4785489 C37.9074736,51.4785489 43.9930755,35.731712 43.9930755,35.731712 L47.0358765,35.731712 Z" id="Path" fill="#D0CDE1"></path>
                                    <path d="M9.03268134,76.331712 C9.03268134,76.331712 6.02091872,73.6644363 7.52679756,73.5310726 C9.0326764,73.3977089 14.2757189,70.7304332 15.1495601,72.0640722 C16.0234013,73.3977112 9.03268134,76.331712 9.03268134,76.331712 Z" id="Path" fill="#2F2E41"></path>
                                </g>
                                <path d="M97.1018948,150.738752 C101.956747,142.656716 104.514326,133.408172 104.500224,123.985626 C104.500224,95.1926305 81.1070145,71.851328 52.250112,71.851328 C23.3932095,71.851328 -2.27373675e-13,95.1926305 -2.27373675e-13,123.985626 C-0.0141018073,133.408172 2.54347718,142.656716 7.39832918,150.738752 L97.1018948,150.738752 Z" id="Path" fill="#3F3D56" fill-rule="nonzero"></path>
                                <circle id="Oval" fill="#2FADD6" fill-rule="nonzero" cx="52.250112" cy="121.027904" r="5.12256"></circle>
                                <circle id="Oval" fill="#2FADD6" fill-rule="nonzero" cx="12.8064" cy="129.736256" r="2.56128"></circle>
                                <circle id="Oval" fill="#2FADD6" fill-rule="nonzero" cx="13.830912" cy="107.196992" r="2.56128"></circle>
                                <circle id="Oval" fill="#2FADD6" fill-rule="nonzero" cx="26.125056" cy="89.780288" r="2.56128"></circle>
                                <circle id="Oval" fill="#2FADD6" fill-rule="nonzero" cx="46.615296" cy="81.584192" r="2.56128"></circle>
                                <circle id="Oval" fill="#2FADD6" fill-rule="nonzero" cx="68.130048" cy="83.633216" r="2.56128"></circle>
                                <circle id="Oval" fill="#2FADD6" fill-rule="nonzero" cx="85.546752" cy="96.951872" r="2.56128"></circle>
                                <circle id="Oval" fill="#2FADD6" fill-rule="nonzero" cx="92.718336" cy="117.442112" r="2.56128"></circle>
                                <circle id="Oval" fill="#2FADD6" fill-rule="nonzero" cx="89.6448" cy="138.956864" r="2.56128"></circle>
                                <line x1="52.250112" y1="121.027904" x2="78.887424" y2="101.562176" id="Path" stroke="#2FADD6" stroke-width="4.098048"></line>
                                <circle id="Oval" stroke="#5D2784" stroke-width="2.049024" cx="75.813888" cy="23.699264" r="3.073536"></circle>
                                <circle id="Oval" fill="#5D2784" fill-rule="nonzero" cx="95.279616" cy="63.655232" r="3.073536"></circle>
                                <circle id="Oval" fill="#12021E" fill-rule="nonzero" opacity="0.04" cx="38.4192" cy="53.922368" r="9.732864"></circle>
                            </g>
                        </g>
                    </g>
                </g>
            </g>
        </g>
    </g>
</svg>