<?xml version="1.0" encoding="UTF-8"?>
<svg width="665px" height="396px" viewBox="0 0 665 396" version="1.1" xmlns="http://www.w3.org/2000/svg" xmlns:xlink="http://www.w3.org/1999/xlink">
    <title>2694E013-F46C-49A0-9D42-BF2CB914973A</title>
    <g id="Page-1" stroke="none" stroke-width="1" fill="none" fill-rule="evenodd">
        <g id="1.000-Book-a-Dev" transform="translate(-709.000000, -186.000000)" fill-rule="nonzero">
            <g id="Group-44" transform="translate(-1162.000000, -1553.000000)">
                <g id="undraw_online_page_cq94" transform="translate(1871.000000, 1739.000000)">
                    <path d="M602.487085,40.1986897 C674.135319,97.1819628 685.936145,201.348617 628.844973,272.861433 C571.753801,344.374249 397.87493,390.584164 395.741656,299.169503 C393.594705,207.169353 346.164178,120.954029 369.383768,66.5067601 C405.263879,-17.6279731 530.838852,-16.7845782 602.487085,40.1986897 Z" id="Path" fill="#F2F2F2" opacity="0.08"></path>
                    <ellipse id="Oval" fill="#FFFFFF" opacity="0.157296317" cx="88.5" cy="381" rx="88.5" ry="15"></ellipse>
                    <rect id="Rectangle" fill="#3F3D56" x="84" y="68" width="504" height="272"></rect>
                    <rect id="Rectangle" fill="#3F3D56" x="84" y="47" width="504" height="25"></rect>
                    <circle id="Oval" fill="#2FADD6" cx="96" cy="57" r="4"></circle>
                    <circle id="Oval" fill="#2FADD6" cx="108" cy="57" r="4"></circle>
                    <circle id="Oval" fill="#2FADD6" cx="121" cy="57" r="4"></circle>
                    <rect id="Rectangle" fill="#000000" opacity="0.1" x="84" y="68" width="504" height="3"></rect>
                    <rect id="Rectangle" fill="#2FADD6" opacity="0.3" x="112" y="112" width="100" height="106"></rect>
                    <rect id="Rectangle" fill="#2FADD6" x="120" y="104" width="100" height="106"></rect>
                    <rect id="Rectangle" fill="#2FADD6" opacity="0.3" x="478" y="110" width="76" height="82"></rect>
                    <rect id="Rectangle" fill="#2FADD6" x="482" y="104" width="76" height="82"></rect>
                    <rect id="Rectangle" fill="#2FADD6" opacity="0.3" x="478" y="223" width="76" height="82"></rect>
                    <rect id="Rectangle" fill="#2FADD6" x="482" y="217" width="76" height="82"></rect>
                    <rect id="Rectangle" fill="#2FADD6" x="254" y="105" width="189" height="7"></rect>
                    <rect id="Rectangle" fill="#2FADD6" x="254" y="126" width="189" height="7"></rect>
                    <rect id="Rectangle" fill="#2FADD6" x="254" y="147" width="189" height="7"></rect>
                    <rect id="Rectangle" fill="#2FADD6" x="254" y="169" width="189" height="7"></rect>
                    <rect id="Rectangle" fill="#2FADD6" x="254" y="190" width="189" height="7"></rect>
                    <rect id="Rectangle" fill="#2FADD6" x="254" y="212" width="189" height="7"></rect>
                    <rect id="Rectangle" fill="#2FADD6" x="254" y="233" width="189" height="7"></rect>
                    <rect id="Rectangle" fill="#2FADD6" x="254" y="255" width="189" height="7"></rect>
                    <rect id="Rectangle" fill="#2FADD6" x="254" y="276" width="189" height="7"></rect>
                    <rect id="Rectangle" fill="#2FADD6" x="254" y="297" width="189" height="7"></rect>
                    <circle id="Oval" fill="#FFB8B8" cx="74" cy="149" r="13"></circle>
                    <path d="M64.5346356,155 C64.5346356,155 64.5346356,169.250003 62.1824416,170.833335 C59.8302476,172.416668 81,174 81,174 L81,155.791666 L64.5346356,155 Z" id="Path" fill="#FFB8B8"></path>
                    <path d="M39,232.310389 C39,232.310389 53.7096845,249 56.8064502,249 C59.9032159,249 63,237.620694 63,237.620694 L48.2903216,227 L39,232.310389 Z" id="Path" fill="#FFB8B8"></path>
                    <path d="M114,155.913904 L116.302324,139.760827 C116.302324,139.760827 117.837213,117.454202 122.441862,122.838557 C127.04651,128.222912 123.976745,140.530021 123.976745,140.530021 C123.976745,140.530021 126.279069,158.221485 123.976745,160.529065 C121.67442,162.836646 114,155.913904 114,155.913904 Z" id="Path" fill="#FFB8B8"></path>
                    <path d="M100.209175,242.87823 L58.1720866,239 C58.1720866,239 52.7228191,264.596295 54.2797659,274.679677 C55.8367126,284.763059 56.6151583,313.46194 56.6151583,313.46194 C56.6151583,313.46194 58.1720866,365.430169 60.507479,368.532748 C62.8428715,371.635327 70.6275191,370.859682 72.9629177,372.410972 C75.2983163,373.962261 79.1906308,369.308393 79.1906308,368.532748 C79.1906308,367.757103 74.519846,367.757103 76.8552384,363.103216 C79.1906308,358.449329 70.6275191,345.263374 72.9629177,339.058235 C75.2983163,332.853095 79.1906308,324.320978 76.8552384,321.218399 C74.519846,318.11582 78.4121667,278.557913 78.4121667,278.557913 C78.4121667,278.557913 97.8737826,306.481137 97.8737826,318.89149 C97.8737826,331.301842 96.3168543,360.00068 95.5383902,363.103265 C94.7599261,366.20585 93.9814558,366.981489 95.5383902,369.308423 C97.0953246,371.635358 98.6522468,373.962298 97.8737826,374.737955 C97.0953185,375.513612 111.886143,374.737955 111.886143,370.08408 C111.886143,365.430206 111.107679,365.430212 112.664608,361.551982 C114.221536,357.673752 115,311.135048 115,311.135048 L100.209175,242.87823 Z" id="Path" fill="#2D2236"></path>
                    <path d="M63.6585388,165 L61.353656,169.639784 C61.353656,169.639784 36.7682922,177.372754 36,193.611966 L56.7439026,228.410335 C56.7439026,228.410335 58.2804871,230.730224 57.5121948,232.276823 C56.7439026,233.823422 55.9756103,233.050119 56.7439026,235.370008 C57.5121948,237.689897 57.5121948,236.916601 57.5121948,238.463194 C57.5121948,240.009787 55.2073181,239.23649 57.5121948,240.009787 C59.8170715,240.783083 56.7439026,240.009787 65.1951233,242.329676 C73.646344,244.649565 99,243.876275 99,243.876275 L94.3902405,199.02506 L99,189.745515 L92.853656,171.186389 C92.853656,171.186389 89.0121948,170.413093 86.7073181,171.959686 C84.4024414,173.506279 81.3292542,170.413093 81.3292542,170.413093 C81.3292542,170.413093 77.4878052,165 63.6585388,165 Z" id="Path" fill="#CFCCE0"></path>
                    <path d="M89,172.224314 L92.8261224,171.45146 C92.8261224,171.45146 108.130624,166.814331 108.895848,162.95005 C109.661073,159.08577 113.487195,154.448641 113.487195,154.448641 C113.487195,154.448641 125.730793,151.357222 124.965568,161.404341 C124.200344,171.45146 121.139446,174.542879 119.608979,176.088589 C118.078512,177.634298 101.243598,190 98.1826997,190 C95.1218018,190 89,172.224314 89,172.224314 Z" id="Path" fill="#CFCCE0"></path>
                    <path d="M36.2941144,191 L34.7461277,194.087718 L33.9721344,221.877194 C33.9721344,221.877194 29.3281744,224.964912 31.6501544,226.508771 C33.9721344,228.052629 39.3900877,235 40.9380805,235 C42.4860733,235 51,231.140347 51,229.596476 C51,228.052605 49.4520072,214.157882 49.4520072,214.157882 L36.2941144,191 Z" id="Path" fill="#CFCCE0"></path>
                    <path d="M64.7199668,369 C64.7199668,369 64.7199668,376.915856 63.9158059,378.499023 C63.1116449,380.08219 61.5033229,387.998033 66.3282888,387.998033 C69.0924892,388.03697 71.8335487,387.497333 74.3699049,386.414866 C74.3699049,386.414866 74.3699049,381.665358 76.7823878,380.873761 C79.1948708,380.082165 84.824004,373.749508 82.4115337,372.166335 C79.9990635,370.583161 75.174085,369 75.174085,369 L64.7199668,369 Z" id="Path" fill="#2D2236"></path>
                    <path d="M98.0933432,372.768069 C98.0933432,372.768069 93.383321,383.893602 98.0933432,384.688255 C102.803365,385.482908 109.083387,384.688255 109.868389,383.098892 C110.653392,381.509529 112.223397,379.920179 113.793402,380.714858 C115.363408,381.509536 128.708465,371.973397 123.998474,370.384035 C121.196659,369.433787 118.165254,369.433787 115.363439,370.384035 L110.653423,368 L98.0933432,372.768069 Z" id="Path" fill="#2D2236"></path>
                    <path d="M75.6666913,163.27842 C75.8854095,163.264645 76.0988996,163.205313 76.293634,163.104183 C76.6073025,162.849994 76.8156008,162.487355 76.877894,162.087009 L78.451263,156.478805 C79.0482602,154.350843 80.0071192,151.865239 82.1588212,151.415288 C82.6098842,151.38493 83.0508176,151.266867 83.4572107,151.067636 C83.9344874,150.615817 84.191992,149.976921 84.1622882,149.318263 L84.8364334,142.069457 C85.0186953,140.109677 85.1916007,138.071849 84.5121133,136.22603 C83.5098163,133.503316 80.7617932,131.710675 77.9217894,131.195277 C75.0817856,130.679878 72.1561058,131.256318 69.3916601,132.08959 C65.1982003,133.3536 60.8555978,135.52931 59.0337835,139.534119 C57.9790454,141.852682 57.9141107,144.496416 58.0551213,147.042332 C58.2003107,149.663801 58.5628303,152.335936 59.7602542,154.66879 C60.4260138,155.874762 61.1989053,157.017628 62.0694686,158.083401 C63.3699047,159.776905 64.9650506,163.087887 67.1173375,163.719766 C69.5437511,164.432133 73.2080966,163.59967 75.6666913,163.27842 Z" id="Path" fill="#2D2236"></path>
                </g>
            </g>
        </g>
    </g>
</svg>