<?xml version="1.0" encoding="UTF-8"?>
<svg width="199px" height="164px" viewBox="0 0 199 164" version="1.1" xmlns="http://www.w3.org/2000/svg" xmlns:xlink="http://www.w3.org/1999/xlink">
    <title>undraw_mind_map_cwng</title>
    <defs>
        <linearGradient x1="50.013785%" y1="99.9812483%" x2="50.013785%" y2="0.0244426282%" id="linearGradient-1">
            <stop stop-color="#808080" stop-opacity="0.25" offset="0%"></stop>
            <stop stop-color="#808080" stop-opacity="0.12" offset="54%"></stop>
            <stop stop-color="#808080" stop-opacity="0.1" offset="100%"></stop>
        </linearGradient>
    </defs>
    <g id="Page-1" stroke="none" stroke-width="1" fill="none" fill-rule="evenodd">
        <g id="1.000-Book-a-Dev" transform="translate(-857.000000, -3070.000000)">
            <g id="Wizard" transform="translate(0.000000, 2826.000000)">
                <g id="Group-8" transform="translate(808.000000, 204.000000)">
                    <g id="undraw_mind_map_cwng" transform="translate(49.000000, 40.000000)">
                        <ellipse id="Oval" fill="#5D2784" fill-rule="nonzero" opacity="0.1" cx="154.446917" cy="154.045773" rx="44.2410109" ry="9.90814307"></ellipse>
                        <path d="M178.297892,8.04813228 L178.297892,127.501166 C178.297892,131.054272 174.869213,133.95298 170.638667,133.95298 L8.55527128,133.95298 C4.32472461,133.95298 0.898350482,131.063489 0.898350482,127.501166 L0.898350482,8.04813228 C0.898350482,4.48811343 4.32472461,0.861272221 8.55527128,0.861272221 L170.617929,1.25529372 C174.841563,1.25529372 178.297892,4.48811343 178.297892,8.04813228 Z" id="Path" fill="#12021E" fill-rule="nonzero" opacity="0.04"></path>
                        <path d="M178.297892,8.08499979 L178.297892,13.6151262 L0.898350482,13.6151262 L0.898350482,8.08499979 C0.898350482,4.0963449 4.13111914,0.862544519 8.11977383,0.861266334 L171.062643,0.861266334 C172.980303,0.858826127 174.820292,1.61874169 176.177363,2.9736523 C177.534435,4.32856291 178.297892,6.16733829 178.297892,8.08499979 L178.297892,8.08499979 Z" id="Path" fill="#3F3D56" fill-rule="nonzero"></path>
                        <circle id="Oval" fill="#FA5959" fill-rule="nonzero" opacity="0.8" cx="9.49078432" cy="7.23704708" r="2.55307501"></circle>
                        <circle id="Oval" fill="#FED253" fill-rule="nonzero" opacity="0.8" cx="16.9172832" cy="7.23704708" r="2.55307501"></circle>
                        <circle id="Oval" fill="#8CCF4D" fill-rule="nonzero" opacity="0.8" cx="24.3437821" cy="7.23704708" r="2.55307501"></circle>
                        <rect id="Rectangle" fill="#5D2784" fill-rule="nonzero" opacity="0.2" x="65.4141872" y="40.194296" width="16.1318395" height="7.65461658" rx="1.97471596"></rect>
                        <rect id="Rectangle" fill="#5D2784" fill-rule="nonzero" opacity="0.2" x="98.097234" y="40.194296" width="16.1318395" height="7.65461658" rx="1.97471596"></rect>
                        <polyline id="Path" stroke="#3F3D56" stroke-width="0.565517241" points="73.4351746 47.6760961 89.5831436 68.7620071 106.217303 47.5770147"></polyline>
                        <rect id="Rectangle" fill="#000000" fill-rule="nonzero" opacity="0.1" x="77.2509618" y="68.0868709" width="24.6620594" height="11.7031299" rx="1.97471596"></rect>
                        <rect id="Rectangle" fill="#5D2784" fill-rule="nonzero" x="77.7532816" y="68.3265097" width="23.659724" height="11.2284607" rx="1.97471596"></rect>
                        <line x1="73.5457772" y1="40.194296" x2="73.3360932" y2="32.7401465" id="Path" stroke="#3F3D56" stroke-width="0.565517241"></line>
                        <polyline id="Path" stroke="#3F3D56" stroke-width="0.565517241" points="115.696861 33.1042132 106.217303 40.194296 96.2469459 33.1042132"></polyline>
                        <rect id="Rectangle" fill="#5D2784" fill-rule="nonzero" opacity="0.2" x="65.3243226" y="25.4472924" width="16.1318395" height="7.65461658" rx="1.97471596"></rect>
                        <rect id="Rectangle" fill="#5D2784" fill-rule="nonzero" opacity="0.2" x="107.629789" y="25.4472924" width="16.1318395" height="7.65461658" rx="1.97471596"></rect>
                        <rect id="Rectangle" fill="#5D2784" fill-rule="nonzero" opacity="0.2" x="88.1821783" y="25.4472924" width="16.1318395" height="7.65461658" rx="1.97471596"></rect>
                        <line x1="89.5831436" y1="79.5526662" x2="89.5209297" y2="99.9450072" id="Path" stroke="#3F3D56" stroke-width="0.565517241"></line>
                        <polyline id="Path" stroke="#3F3D56" stroke-width="0.565517241" points="66.6630741 114.484631 89.4748453 107.426807 112.378785 114.433938"></polyline>
                        <rect id="Rectangle" fill="#5D2784" fill-rule="nonzero" opacity="0.2" x="81.4561621" y="99.9450072" width="16.1318395" height="7.65461658" rx="1.97471596"></rect>
                        <rect id="Rectangle" fill="#5D2784" fill-rule="nonzero" opacity="0.2" transform="translate(155.688892, 62.069402) rotate(90.000000) translate(-155.688892, -62.069402) " x="147.622972" y="58.2420938" width="16.1318395" height="7.65461658" rx="1.97471596"></rect>
                        <rect id="Rectangle" fill="#5D2784" fill-rule="nonzero" opacity="0.2" transform="translate(155.688892, 87.330558) rotate(-90.000000) translate(-155.688892, -87.330558) " x="147.622972" y="83.5032502" width="16.1318395" height="7.65461658" rx="1.97471596"></rect>
                        <rect id="Rectangle" fill="#5D2784" fill-rule="nonzero" opacity="0.2" x="104.314018" y="114.380941" width="16.1318395" height="7.65461658" rx="1.97471596"></rect>
                        <rect id="Rectangle" fill="#5D2784" fill-rule="nonzero" opacity="0.2" transform="translate(66.664226, 118.210554) rotate(-180.000000) translate(-66.664226, -118.210554) " x="58.5983064" y="114.383245" width="16.1318395" height="7.65461658" rx="1.97471596"></rect>
                        <rect id="Rectangle" fill="#5D2784" fill-rule="nonzero" opacity="0.2" transform="translate(89.923016, 118.210554) rotate(-180.000000) translate(-89.923016, -118.210554) " x="81.8570963" y="114.383245" width="16.1318395" height="7.65461658" rx="1.97471596"></rect>
                        <line x1="144.679332" y1="74.6999803" x2="151.859279" y2="87.2556714" id="Path" stroke="#3F3D56" stroke-width="0.565517241"></line>
                        <line x1="129.496831" y1="74.5455976" x2="137.033932" y2="74.5455976" id="Path" stroke="#3F3D56" stroke-width="0.565517241"></line>
                        <line x1="101.413006" y1="73.9395879" x2="121.985076" y2="74.5455976" id="Path" stroke="#3F3D56" stroke-width="0.565517241"></line>
                        <line x1="151.859279" y1="62.06825" x2="144.713895" y2="74.644679" id="Path" stroke="#3F3D56" stroke-width="0.565517241"></line>
                        <rect id="Rectangle" fill="#5D2784" fill-rule="nonzero" opacity="0.2" transform="translate(125.812384, 74.498361) rotate(90.000000) translate(-125.812384, -74.498361) " x="117.746464" y="70.6710528" width="16.1318395" height="7.65461658" rx="1.97471596"></rect>
                        <rect id="Rectangle" fill="#5D2784" fill-rule="nonzero" opacity="0.2" transform="translate(140.852023, 74.698828) rotate(90.000000) translate(-140.852023, -74.698828) " x="132.786104" y="70.8715199" width="16.1318395" height="7.65461658" rx="1.97471596"></rect>
                        <rect id="Rectangle" fill="#5D2784" fill-rule="nonzero" opacity="0.2" transform="translate(23.477396, 62.067098) rotate(90.000000) translate(-23.477396, -62.067098) " x="15.4114759" y="58.2397896" width="16.1318395" height="7.65461658" rx="1.97471596"></rect>
                        <rect id="Rectangle" fill="#5D2784" fill-rule="nonzero" opacity="0.2" transform="translate(23.477396, 87.330558) rotate(-90.000000) translate(-23.477396, -87.330558) " x="15.4114759" y="83.5032502" width="16.1318395" height="7.65461658" rx="1.97471596"></rect>
                        <line x1="34.4869555" y1="74.6999803" x2="27.3047039" y2="87.2556714" id="Path" stroke="#3F3D56" stroke-width="0.565517241"></line>
                        <line x1="49.6671524" y1="74.5455976" x2="42.1323552" y2="74.5455976" id="Path" stroke="#3F3D56" stroke-width="0.565517241"></line>
                        <line x1="77.7532816" y1="73.9395879" x2="57.1812116" y2="74.5455976" id="Path" stroke="#3F3D56" stroke-width="0.565517241"></line>
                        <line x1="27.3047039" y1="62.06825" x2="34.450088" y2="74.644679" id="Path" stroke="#3F3D56" stroke-width="0.565517241"></line>
                        <rect id="Rectangle" fill="#5D2784" fill-rule="nonzero" opacity="0.2" transform="translate(53.353903, 74.500665) rotate(90.000000) translate(-53.353903, -74.500665) " x="45.2879836" y="70.673357" width="16.1318395" height="7.65461658" rx="1.97471596"></rect>
                        <rect id="Rectangle" fill="#5D2784" fill-rule="nonzero" opacity="0.2" transform="translate(38.314264, 74.698828) rotate(90.000000) translate(-38.314264, -74.698828) " x="30.2483441" y="70.8715199" width="16.1318395" height="7.65461658" rx="1.97471596"></rect>
                        <path d="M180.445424,150.356717 L174.069649,141.11219 C174.069649,141.11219 173.94983,138.8241 173.532766,138.287217 C173.115702,137.750334 173.442902,136.563661 173.442902,136.563661 C173.442902,136.563661 173.88992,135.909262 173.502811,135.851657 C173.115702,135.794051 173.442902,134.33548 173.442902,134.33548 L173.412947,132.015132 C173.412947,132.015132 173.770101,129.786952 173.472856,129.250068 C173.295612,128.954361 173.30732,128.5824 173.502811,128.298426 C173.502811,128.298426 173.859965,127.019584 173.502811,126.685472 C173.145657,126.351361 173.233218,124.367428 173.323082,122.793646 C173.412947,121.219864 172.698639,120.325827 172.698639,120.088492 C172.698639,119.851158 170.343727,117.530809 170.343727,117.323429 C170.343727,117.11605 168.855201,116.254271 167.961164,116.014633 C167.067127,115.774994 166.620108,115.599873 166.650063,115.480054 C166.680018,115.360234 165.249098,114.885565 165.249098,114.885565 C165.249098,114.885565 163.997907,114.798005 163.520933,114.173561 C163.04396,113.549118 161.585389,113.367085 161.546217,113.362476 C161.546217,113.321 161.525479,113.279524 161.518567,113.238048 L161.490916,113.104404 C161.603823,112.915458 161.707513,112.721903 161.801986,112.521436 L161.884937,112.339403 C162.409343,112.341089 162.921362,112.180077 163.350421,111.878559 C163.775577,111.522404 164.034183,111.006026 164.064729,110.452247 C164.089573,109.903199 163.969581,109.357274 163.716792,108.869249 C163.454111,108.332365 163.07161,107.779353 163.202951,107.19869 C163.260556,106.94753 163.410331,106.737846 163.488674,106.482077 C163.603849,106.002808 163.526936,105.497497 163.274382,105.074199 C163.04396,104.64331 162.735194,104.263114 162.484034,103.843746 C162.163269,103.311082 161.949588,102.720915 161.854983,102.106365 C161.835445,101.779445 161.757401,101.458683 161.624561,101.159331 C161.489844,100.948144 161.311499,100.768228 161.101503,100.631665 C160.169306,99.9655039 159.043799,99.6246128 157.898638,99.6615882 C157.087553,99.6892388 156.285684,99.9081396 155.474599,99.8090582 C154.992911,99.7242382 154.518966,99.6001649 154.057504,99.4380789 C153.059777,99.1431388 151.905364,99.0210152 151.036673,99.5924616 C150.167982,100.163908 149.820045,101.288367 149.230165,102.168579 C148.707107,102.947405 147.944411,103.599499 147.548085,104.42441 C147.548085,104.40828 147.548085,104.39215 147.559606,104.376021 C147.460288,104.567123 147.382986,104.768882 147.329184,104.977422 C147.177106,105.624908 147.303838,106.302348 147.460524,106.94753 C147.543476,107.281641 147.654079,107.638795 147.942106,107.827741 C148.230134,108.016687 148.633372,107.972907 148.983613,108.032817 C148.969788,108.090422 148.955963,108.145724 148.944442,108.203329 C148.203158,111.677094 150.261388,115.135923 153.668091,116.141365 C153.668091,116.201274 153.668091,116.263488 153.668091,116.321094 C153.668091,116.498519 153.654266,116.669031 153.635832,116.832631 L153.635832,116.832631 C153.635832,116.832631 150.640347,116.217404 149.836175,116.632163 C149.032002,117.046923 147.451308,117.376426 147.213973,117.613761 C146.976638,117.851095 146.379846,117.673671 145.842963,119.070028 C145.306079,120.466384 145.248474,121.895 144.561817,122.547094 C143.875159,123.199189 143.520309,123.648511 143.490355,124.12318 C143.4604,124.59785 143.577915,124.717669 143.310625,124.867443 C143.043336,125.017218 142.656227,125.639357 142.773742,125.876691 C142.773742,125.876691 142.923517,126.47118 142.446543,126.768424 C142.159614,126.971003 142.00103,127.310075 142.02948,127.660157 C142.02948,127.660157 141.84975,128.314555 141.432687,128.462025 C141.015623,128.609495 140.741421,129.593397 140.741421,129.593397 L139.391148,131.146441 L136.711341,128.183215 C136.293484,127.722213 135.581425,127.686147 135.119126,128.102567 L133.826459,129.300761 C133.318949,129.423322 132.860329,129.696405 132.51075,130.084196 C132.221701,130.378212 131.98759,130.721575 131.819484,131.098052 L131.100567,131.747842 C130.873187,131.949816 130.739008,132.236509 130.729588,132.540494 C130.53862,132.949317 130.612244,133.432874 130.91623,133.766338 L132.630569,135.665015 L132.630569,135.681145 C132.021642,135.731716 131.442743,135.967296 130.971531,136.356281 C128.409239,138.614416 128.379284,140.695126 128.766393,141.655985 C129.153502,142.616845 132.400147,146.264424 132.400147,146.264424 C132.400147,146.264424 134.287303,148.718417 137.008586,150.022606 L137.008586,150.022606 L136.990152,150.043344 C136.934851,150.100949 136.881854,150.163163 136.828857,150.229985 L136.785076,150.287591 L136.7436,150.345196 L136.695212,150.416627 L136.658344,150.474233 L136.605347,150.559489 C136.595985,150.579437 136.585205,150.598688 136.573088,150.617094 C136.55235,150.653962 136.531612,150.693133 136.513178,150.732305 L136.492441,150.771477 C136.467094,150.82217 136.444052,150.877471 136.418706,150.932772 C136.393359,150.988074 136.402576,150.974248 136.395663,150.992682 C136.388751,151.011116 136.363404,151.071025 136.349579,151.112501 L136.321928,151.188541 C136.308103,151.225408 136.296582,151.26458 136.282757,151.303752 C136.268931,151.342923 136.266627,151.359053 136.25741,151.389008 L136.222847,151.518044 L136.202109,151.598692 C136.183675,151.667818 136.16985,151.739249 136.15372,151.812984 L136.139895,151.89824 C136.139895,151.946629 136.121461,151.997322 136.114549,152.050319 C136.107636,152.103316 136.103027,152.121749 136.098419,152.158617 C136.093811,152.195484 136.098419,152.255394 136.079985,152.306087 C136.061552,152.35678 136.079985,152.382126 136.068464,152.418994 C136.056943,152.455861 136.068464,152.5319 136.068464,152.589506 C136.068464,152.647111 136.068464,152.656328 136.068464,152.693196 C136.068464,152.785365 136.068464,152.882142 136.056943,152.981223 C135.997033,156.45829 136.199805,156.962914 136.199805,156.962914 C136.199805,156.962914 136.621477,158.071244 137.782803,158.149587 C137.953037,158.161522 138.124095,158.152234 138.292036,158.121937 C139.840471,157.854647 143.476529,157.230204 144.757675,157.469842 C145.527284,157.612704 146.953596,157.400716 147.967453,157.209466 L148.237046,157.156469 L148.421384,157.748653 L149.011264,157.587358 L149.51128,157.875385 L149.826958,158.057418 C150.414534,160.050568 152.801705,159.370823 152.801705,159.370823 L153.368543,159.698023 L159.129091,159.845493 C159.774704,160.237207 160.456894,160.565182 161.166021,160.824786 C161.26041,160.852419 161.356669,160.873211 161.454048,160.887 C161.986766,160.929294 162.521555,160.939297 163.055481,160.916955 C163.497891,160.916955 163.838915,160.887 163.838915,160.887 C163.838915,160.887 163.779006,159.327043 163.696054,157.578141 C165.891975,157.485972 167.843649,157.347719 169.021105,157.142643 C172.076499,156.603456 173.355341,153.801525 173.827706,152.308391 C173.968546,152.915483 174.068619,153.531316 174.127255,154.151767 C174.252578,154.698806 174.411878,155.237502 174.604228,155.76472 C174.772731,156.186861 174.993342,156.586284 175.260931,156.953697 C177.525978,156.181784 176.154968,155.022762 175.677994,154.518138 C175.201021,154.013513 176.005193,153.59645 176.005193,153.59645 C176.005193,153.59645 176.631941,153.179386 176.572031,152.792277 C176.512122,152.405168 176.482167,151.990409 178.507576,152.020364 C180.532984,152.050319 180.445424,150.356717 180.445424,150.356717 Z M148.983613,131.376863 C149.00896,131.547375 149.292379,133.376925 149.548147,133.858507 C149.61895,134.179805 149.641472,134.509862 149.61497,134.8378 C148.414471,134.743327 147.16328,134.69033 147.16328,134.69033 C147.19971,134.7342 147.22218,134.787967 147.227798,134.844713 L147.038852,134.800933 C146.951292,134.780195 146.859123,134.759457 146.76465,134.73411 L148.976701,131.372254 L148.983613,131.376863 Z M144.605597,138.347126 L146.679394,138.67663 L146.854515,138.70428 C146.795283,139.028512 146.759093,139.356532 146.746216,139.685878 C146.746216,139.715833 146.792301,139.7527 146.859123,139.79648 C146.831084,139.958538 146.817972,140.122826 146.819952,140.287279 C146.852211,140.453183 147.824591,140.808033 148.939833,141.102973 C148.923704,141.162882 148.907574,141.218184 148.893749,141.273485 L148.893749,141.273485 C147.909847,140.755036 146.359108,140.513092 146.179379,140.121375 C145.999649,139.729658 140.739117,137.902412 140.739117,137.902412 C140.739117,137.902412 140.545562,137.798722 140.213755,137.639731 L141.596286,137.902412 L141.978787,137.86324 C142.841558,138.08067 143.717438,138.2423 144.600988,138.347126 L144.605597,138.347126 Z" id="Shape" fill="url(#linearGradient-1)" fill-rule="nonzero"></path>
                        <path d="M173.664107,151.649384 C173.664107,151.649384 172.836892,156.638019 168.643213,157.377674 C164.449534,158.117328 150.453705,157.967554 150.453705,157.967554 C150.453705,157.967554 142.451152,156.815444 139.557052,150.054865 C136.662953,143.294285 134.803448,140.607565 137.282788,140.485442 C139.762128,140.363318 153.140425,145.004016 153.90773,145.063926 C154.675035,145.123835 174.401457,134.787107 173.664107,151.649384 Z" id="Path" fill="#65617D" fill-rule="nonzero"></path>
                        <path d="M173.664107,151.649384 C173.664107,151.649384 172.836892,156.638019 168.643213,157.377674 C164.449534,158.117328 150.453705,157.967554 150.453705,157.967554 C150.453705,157.967554 142.451152,156.815444 139.557052,150.054865 C136.662953,143.294285 134.803448,140.607565 137.282788,140.485442 C139.762128,140.363318 153.140425,145.004016 153.90773,145.063926 C154.675035,145.123835 174.401457,134.787107 173.664107,151.649384 Z" id="Path" fill="#000000" fill-rule="nonzero" opacity="0.05"></path>
                        <path d="M136.130678,157.200249 C136.130678,157.200249 136.547742,158.299361 137.697547,158.380009 C137.86625,158.391945 138.035783,158.382655 138.202171,158.352358 C139.739086,158.085069 143.34058,157.465234 144.610205,157.702569 C145.375206,157.843126 146.787692,157.633442 147.794636,157.444496 C148.46286,157.317764 148.946746,157.200249 148.946746,157.200249 C148.946746,157.200249 147.766986,153.283076 147.617211,153.15404 C147.467437,153.025003 142.303682,149.928133 142.303682,149.928133 L138.204475,149.642409 L138.204475,149.642409 C137.656088,149.726974 137.161147,150.018989 136.821944,150.458103 C136.391055,150.981161 136.020076,151.840635 135.994729,153.246208 C135.923298,156.697929 136.130678,157.200249 136.130678,157.200249 Z" id="Path" fill="#3F3D56" fill-rule="nonzero"></path>
                        <path d="M136.130678,157.200249 C136.130678,157.200249 136.547742,158.299361 137.697547,158.380009 C137.296713,157.8641 136.925889,157.325559 136.586914,156.767056 L136.607651,153.902911 C136.439845,152.310104 137.038483,150.732266 138.220605,149.651626 L138.204475,149.651626 C138.204475,149.651626 136.05003,149.799096 135.990121,153.255425 C135.930211,156.711754 136.130678,157.200249 136.130678,157.200249 Z" id="Path" fill="#000000" fill-rule="nonzero" opacity="0.05"></path>
                        <path d="M153.873167,150.939685 L157.682041,147.958025 L163.673012,142.052311 C163.673012,142.052311 163.025526,142.020052 162.048537,141.978576 C161.818115,142.132959 161.126849,142.619149 161.099199,143.211333 C161.071548,143.934858 159.486245,143.262026 158.652118,143.672177 C157.81799,144.082328 153.790215,149.266822 153.080515,149.229954 C152.370816,149.193087 151.810891,148.870496 151.51595,149.372816 L151.495213,149.405075 L153.873167,150.939685 Z" id="Path" fill="#000000" fill-rule="nonzero" opacity="0.1"></path>
                        <path d="M136.821944,150.455799 C136.957893,150.520317 137.096146,150.584835 137.234399,150.644745 C140.128499,151.884415 143.702343,154.483574 143.967328,154.955939 C144.130928,155.243967 146.202421,156.50207 147.801549,157.444496 C148.469773,157.317764 148.953659,157.200249 148.953659,157.200249 C148.953659,157.200249 147.773898,153.283076 147.624124,153.15404 C147.47435,153.025003 142.310594,149.928133 142.310594,149.928133 L138.204475,149.642409 L138.204475,149.642409 C137.656438,149.726389 137.161552,150.017548 136.821944,150.455799 L136.821944,150.455799 Z" id="Path" fill="#000000" fill-rule="nonzero" opacity="0.1"></path>
                        <path d="M128.777914,141.992401 C129.162719,142.937131 132.381713,146.568581 132.381713,146.568581 C132.381713,146.568581 134.418643,149.22765 137.312743,150.46732 C140.206842,151.70699 143.778382,154.306149 144.045671,154.778514 C144.216184,155.082671 146.522707,156.472115 148.147182,157.426062 L148.511248,157.63805 L149.317725,158.098894 L149.744006,158.345446 C149.744006,158.345446 150.732516,157.55049 151.718722,156.750926 C152.704928,155.951362 153.65657,155.170232 153.6727,155.137972 C153.70035,155.050412 154.085155,154.045773 153.99529,153.985863 C153.949206,153.955908 153.746435,153.545757 153.375455,153.064175 C152.978471,152.537111 152.463026,152.110863 151.8708,151.819897 C150.511311,151.200062 149.921431,149.787575 149.921431,149.787575 C149.921431,149.787575 149.792394,149.695406 149.596536,149.570979 C149.194003,149.292688 148.743125,149.091863 148.267001,148.978794 C147.617211,148.898147 146.407496,147.568612 146.407496,147.568612 C146.407496,147.568612 145.580282,147.036337 145.255387,146.358897 C144.930492,145.681456 140.365833,142.566152 139.941857,142.273516 L151.043586,149.405075 L153.70035,151.112501 L157.511529,148.130842 L163.502499,142.225127 C163.502499,142.225127 162.696023,142.185956 161.525479,142.135263 C158.610642,142.008531 153.437669,141.810368 152.783271,141.957838 C152.25508,142.081444 151.710142,142.117254 151.170318,142.063832 C151.170318,142.063832 149.695617,142.130654 148.720932,141.616814 C147.746248,141.102973 146.209333,140.86103 146.031909,140.480833 C145.854484,140.100637 140.628514,138.266479 140.628514,138.266479 C140.628514,138.266479 133.513085,134.487559 130.971531,136.731869 C128.429977,138.976178 128.395414,141.047671 128.777914,141.992401 Z" id="Path" fill="#65617D" fill-rule="nonzero"></path>
                        <path d="M151.72333,120.318914 L152.645018,123.35818 L153.827082,130.210928 L158.165927,130.505868 L159.424031,128.432071 L160.677526,126.358273 C160.677526,126.358273 161.458657,123.59321 162.020886,120.911099 C162.516294,118.542361 162.841188,116.24275 162.302001,115.993895 C161.822723,115.763473 161.507045,114.973126 161.30197,114.115956 C161.276624,114.009962 161.251277,113.901664 161.230539,113.795669 C161.086657,113.068448 160.990442,112.332603 160.942512,111.592836 C160.942512,111.592836 151.847758,111.120471 153.108166,114.87174 C153.335525,115.511659 153.451645,116.185781 153.451495,116.86489 C153.449298,117.034302 153.438531,117.203494 153.419236,117.371818 C153.288503,118.547322 152.673976,119.615229 151.72333,120.318914 Z" id="Path" fill="#EE8E9E" fill-rule="nonzero"></path>
                        <path d="M149.831566,119.816595 L150.158765,124.982654 L150.896115,129.383713 L151.72333,131.420643 L152.46068,142.568456 C152.46068,142.568456 159.580718,143.391062 161.313491,142.554631 C161.437851,142.501498 161.545959,142.416443 161.626865,142.308079 C163.716792,139.151299 163.032439,130.003548 163.032439,130.003548 L163.829699,124.097834 L163.297424,121.033222 L162.013974,120.894969 L161.025464,120.791279 C161.025464,120.791279 160.795042,121.065481 160.479364,121.482545 C159.60376,122.634655 157.993111,124.911223 158.101409,125.860562 C158.248879,127.160142 157.923984,128.487372 157.410143,128.694752 C156.896303,128.902131 156.488456,129.256981 156.407808,128.902131 C156.32716,128.547282 156.230383,128.459721 156.317944,127.957401 C156.405504,127.455082 155.933139,125.918167 155.933139,125.918167 C155.933139,125.918167 155.135879,124.118572 155.195789,123.348963 C155.255698,122.579354 155.108228,121.696838 154.870894,121.489458 C154.633559,121.282078 154.310969,121.077003 154.575954,120.132273 C154.840939,119.187543 153.412323,117.355688 153.412323,117.355688 L149.831566,119.816595 Z" id="Path" fill="#E3E8F4" fill-rule="nonzero"></path>
                        <path d="M159.237389,132.722527 L159.534634,141.552295 L161.239756,142.497025 C161.363466,142.44389 161.471395,142.359769 161.55313,142.252778 C163.643057,139.093693 162.958704,129.945943 162.958704,129.945943 L163.755964,124.040229 L163.223689,120.975617 L161.940239,120.837364 C162.435646,118.468626 162.760541,116.169015 162.221353,115.92016 C161.742076,115.689738 161.426398,114.899391 161.221322,114.042221 L161.221322,114.042221 L160.299635,120.28896 C160.299635,120.28896 160.375674,120.853493 160.403324,121.441069 C160.440772,121.808979 160.415844,122.180571 160.329589,122.540182 C160.12221,123.072456 160.26968,124.017186 160.26968,124.017186 C159.737405,124.955004 159.470116,126.692385 159.347992,128.369857 C159.172871,130.595733 159.237389,132.722527 159.237389,132.722527 Z" id="Path" fill="#000000" fill-rule="nonzero" opacity="0.1"></path>
                        <path d="M161.246669,113.901664 C161.246669,113.901664 162.735194,114.086001 163.207559,114.70814 C163.679924,115.33028 164.919594,115.415536 164.919594,115.415536 C164.919594,115.415536 166.336689,115.87638 166.302126,116.005416 C166.267563,116.134452 166.714581,116.30266 167.599401,116.53769 C168.484222,116.772721 169.96353,117.62989 169.96353,117.83727 C169.96353,118.04465 172.306921,120.346565 172.306921,120.5839 C172.306921,120.821234 173.016621,121.706054 172.926756,123.270619 C172.836892,124.835184 172.749332,126.814509 173.104181,127.139404 C173.459031,127.464298 173.104181,128.733923 173.104181,128.733923 C172.909335,129.015559 172.897614,129.385239 173.074226,129.678653 C173.369167,130.210928 173.016621,132.425283 173.016621,132.425283 L173.044272,134.729502 C173.044272,134.729502 172.719377,136.176552 173.104181,136.236461 C173.488986,136.296371 173.044272,136.946161 173.044272,136.946161 C173.044272,136.946161 172.719377,138.125921 173.134136,138.658196 C173.548896,139.190471 173.666411,141.462431 173.666411,141.462431 L179.98458,150.647049 C179.98458,150.647049 180.074445,152.329129 178.065165,152.301479 C176.055886,152.273828 176.085841,152.683979 176.145751,153.068784 C176.20566,153.453588 175.585825,153.866043 175.585825,153.866043 C175.585825,153.866043 174.788566,154.278499 175.260931,154.787731 C175.733296,155.296964 177.090481,156.442161 174.846171,157.209466 C174.581677,156.843735 174.363425,156.446701 174.196381,156.027401 C174.005978,155.506216 173.848217,154.973679 173.724016,154.432881 C173.724016,154.432881 173.516637,152.188572 173.104181,151.89824 C172.691726,151.607909 172.749332,150.186205 172.749332,150.186205 C172.749332,150.186205 173.341516,149.034096 172.51891,148.561731 C171.696303,148.089366 159.702842,141.443997 159.702842,141.443997 L159.403293,132.602708 C159.403293,132.602708 159.195913,126.077158 160.435583,123.890454 C160.435583,123.890454 160.288113,122.945724 160.495493,122.41345 C160.702873,121.881175 160.465538,120.16914 160.465538,120.16914 L161.246669,113.901664 Z" id="Path" fill="#3F3D56" fill-rule="nonzero"></path>
                        <path d="M153.511404,117.445553 C153.511404,117.445553 150.541266,116.832631 149.744006,117.24739 C148.946746,117.662149 147.382181,117.98474 147.144846,118.222075 C146.907512,118.459409 146.319936,118.27968 145.787661,119.669125 C145.255387,121.058569 145.197781,122.473359 144.518036,123.125454 C143.838292,123.777548 143.483442,124.217653 143.453487,124.690018 C143.423532,125.162383 143.543352,125.279899 143.278366,125.429673 C143.013381,125.579447 142.628577,126.196978 142.746092,126.432008 C142.863607,126.667039 148.886836,131.865357 148.886836,131.865357 C148.886836,131.865357 149.184081,133.844682 149.449066,134.347002 C149.714051,134.849321 149.154126,141.757371 148.564246,142.23204 C147.974365,142.706709 152.550545,142.660625 152.550545,142.660625 C152.550545,142.660625 152.75562,138.125921 152.933045,137.890891 C153.11047,137.655861 152.81553,132.821608 152.81553,132.821608 C152.81553,132.821608 152.785575,128.687839 153.17038,127.595639 C153.555185,126.503439 153.511404,122.871989 153.511404,122.871989 C153.511404,122.871989 153.850125,120.692198 154.26258,120.182965 C154.675035,119.673733 153.511404,117.445553 153.511404,117.445553 Z" id="Path" fill="#000000" fill-rule="nonzero" opacity="0.1"></path>
                        <path d="M153.412323,117.355688 C153.412323,117.355688 150.444488,116.74507 149.647229,117.157525 C148.849969,117.569981 147.292316,117.892571 147.057286,118.122993 C146.822256,118.353415 146.230071,118.182903 145.697797,119.570043 C145.165522,120.957183 145.107917,122.376582 144.428172,123.026372 C143.748427,123.676162 143.395882,124.118572 143.365927,124.590937 C143.335972,125.063302 143.453487,125.180817 143.188502,125.328287 C142.923517,125.475757 142.538712,126.095592 142.656227,126.332927 C142.773742,126.570261 148.803884,131.775493 148.803884,131.775493 C148.803884,131.775493 149.098824,133.752513 149.366114,134.254833 C149.633403,134.757153 149.06887,141.667506 148.478989,142.139871 C147.889109,142.612236 152.465289,142.568456 152.465289,142.568456 C152.465289,142.568456 152.672669,138.036057 152.850093,137.798722 C153.027518,137.561388 152.730274,132.72944 152.730274,132.72944 C152.730274,132.72944 152.702623,128.59567 153.085124,127.50347 C153.467624,126.41127 153.412323,122.7683 153.412323,122.7683 C153.412323,122.7683 153.751043,120.588508 154.163498,120.08158 C154.575954,119.574652 153.412323,117.355688 153.412323,117.355688 Z" id="Path" fill="#3F3D56" fill-rule="nonzero"></path>
                        <path d="M153.11047,114.85561 C153.337829,115.49553 153.453949,116.169651 153.453799,116.84876 C156.441545,117.737959 159.650114,116.470517 161.223626,113.77954 C161.079744,113.052319 160.98353,112.316474 160.935599,111.576706 C160.935599,111.576706 151.840845,111.104341 153.11047,114.85561 Z" id="Path" fill="#000000" fill-rule="nonzero" opacity="0.1"></path>
                        <path d="M148.621851,110.189566 C148.622369,113.787108 151.439259,116.754574 155.031901,116.942265 C158.624543,117.129956 161.735314,114.47217 162.110701,110.894267 C162.486087,107.316364 159.994684,104.070808 156.441319,103.508754 C152.887954,102.9467 149.516503,105.264898 148.769321,108.783992 C148.671209,109.246081 148.621851,109.717177 148.621851,110.189566 Z" id="Path" fill="#EE8E9E" fill-rule="nonzero"></path>
                        <path d="M144.280702,125.839824 L142.667748,126.342144 C142.667748,126.342144 142.817523,126.932024 142.342853,127.226964 C142.058418,127.429139 141.901657,127.766307 141.930398,128.114088 C141.930398,128.114088 141.752973,128.763878 141.340518,128.911348 C140.928063,129.058818 140.660773,130.033503 140.660773,130.033503 L139.301284,131.598068 C139.301284,131.598068 138.801268,132.010523 138.888829,132.217903 C138.976389,132.425283 138.356554,132.482888 138.356554,132.482888 L138.665319,137.741117 L141.471858,138.271087 L143.213848,138.093662 L144.630943,137.563692 L145.870613,136.824037 L146.432843,135.376988 L148.912183,131.598068 L144.280702,125.839824 Z" id="Path" fill="#3F3D56" fill-rule="nonzero"></path>
                        <path d="M138.759792,132.897648 C138.759792,132.897648 135.155993,127.699329 132.469274,130.505868 C129.782554,133.312407 133.561474,137.858632 134.448598,137.711162 C135.335722,137.563692 139.557052,137.326357 139.557052,137.326357 L138.759792,132.897648 Z" id="Path" fill="#EE8E9E" fill-rule="nonzero"></path>
                        <rect id="Rectangle" fill="#3F3D56" fill-rule="nonzero" transform="translate(135.956865, 133.114815) rotate(27.040000) translate(-135.956865, -133.114815) " x="126.529151" y="125.79431" width="18.8554267" height="14.6410096" rx="0.354849775"></rect>
                        <rect id="Rectangle" fill="#2FADD6" fill-rule="nonzero" transform="translate(135.980406, 133.094544) rotate(27.040000) translate(-135.980406, -133.094544) " x="128.056196" y="127.123159" width="15.8484205" height="11.9427687"></rect>
                        <circle id="Oval" fill="#2FADD6" fill-rule="nonzero" cx="128.388501" cy="129.206288" r="1"></circle>
                        <circle id="Oval" fill="#E6E8EC" fill-rule="nonzero" cx="143.667779" cy="137.033721" r="1"></circle>
                        <path d="M136.425547,133.989848 C136.397968,137.888587 144.458127,138.713497 144.458127,138.713497 L146.518099,139.040696 L147.439787,139.188166 L147.824591,135.376988 C147.824591,135.376988 147.402919,135.314774 146.875253,135.19265 C146.094122,135.010617 145.08257,134.694939 144.870582,134.254833 C144.518036,133.517483 136.455573,130.091109 136.425547,133.989848 Z" id="Path" fill="#EE8E9E" fill-rule="nonzero"></path>
                        <path d="M148.769321,108.783992 C148.956704,108.799064 149.132474,108.880817 149.264728,109.014414 C149.49515,109.256357 149.49515,109.684942 149.801611,109.832412 C149.91216,109.881819 150.03516,109.896289 150.154157,109.873888 C150.939896,109.763286 151.393827,108.876161 152.147307,108.631914 C152.587701,108.51896 153.05345,108.559602 153.467624,108.747125 C153.636322,108.798249 153.787755,108.894687 153.905426,109.025935 C154.15889,109.353135 153.981465,109.834716 154.09898,110.228738 C154.260276,110.777142 154.914674,110.996043 155.481512,111.067474 C156.04835,111.138905 156.686619,111.178076 157.066815,111.606661 C157.321082,111.93277 157.423423,112.352201 157.34793,112.758771 C157.314574,112.897349 157.314574,113.041864 157.34793,113.180443 C157.504616,113.625157 158.269617,113.558335 158.470084,113.208094 C158.617554,112.954629 158.573774,112.74725 158.917103,112.673515 C159.164946,112.652521 159.414037,112.695358 159.640628,112.797943 C160.241473,113.00402 160.874378,113.10079 161.50935,113.083666 C162.617435,110.728244 162.275304,107.945914 160.629586,105.929115 C158.983868,103.912315 156.326706,103.019063 153.796893,103.632183 C151.267081,104.245303 149.313703,106.255956 148.773929,108.802426 L148.769321,108.783992 Z" id="Path" fill="#000000" fill-rule="nonzero" opacity="0.1"></path>
                        <path d="M157.343321,112.986888 C157.310375,112.847483 157.310375,112.702317 157.343321,112.562912 C157.418815,112.156342 157.316473,111.736911 157.062206,111.410802 C156.68201,110.982218 156.043741,110.949959 155.476903,110.871615 C154.910066,110.793272 154.255667,110.581284 154.094372,110.032879 C153.976857,109.638858 154.154282,109.157276 153.900817,108.832381 C153.78375,108.699921 153.632178,108.602596 153.463016,108.551266 C153.048841,108.363743 152.583092,108.323102 152.142698,108.436055 C151.389218,108.680303 150.935287,109.567427 150.149548,109.67803 C150.030552,109.700431 149.907552,109.68596 149.797003,109.636554 C149.499759,109.489084 149.488237,109.060499 149.26012,108.818556 C148.900662,108.43836 148.220917,108.684911 147.780811,108.401492 C147.495088,108.217155 147.384485,107.857696 147.303838,107.528193 C147.149455,106.885316 147.022723,106.212484 147.174801,105.569607 C147.43057,104.470494 148.412167,103.726231 149.038915,102.779197 C149.624186,101.905898 149.960602,100.799873 150.829293,100.219209 C151.697984,99.638546 152.833964,99.7721907 153.824778,100.067131 C154.281561,100.227971 154.750938,100.350518 155.228048,100.433502 C156.025308,100.532583 156.827176,100.315986 157.631349,100.288336 C158.765996,100.252709 159.880883,100.591142 160.804259,101.2515 C161.012258,101.388017 161.188957,101.567072 161.322708,101.776862 C161.456634,102.073413 161.534747,102.392112 161.55313,102.716983 C161.647981,103.327892 161.860017,103.914709 162.177573,104.445147 C162.424125,104.859907 162.737499,105.235495 162.961008,105.666384 C163.210582,106.087399 163.286605,106.588984 163.172996,107.065045 C163.096957,107.306988 162.942574,107.525889 162.889577,107.777049 C162.758237,108.353103 163.138433,108.903812 163.39881,109.436087 C163.649732,109.921404 163.768911,110.464069 163.744442,111.009868 C163.71439,111.559499 163.457336,112.071938 163.034743,112.424659 C162.597346,112.732156 162.073913,112.89346 161.539305,112.885503 C160.891559,112.905286 160.245677,112.8061 159.633715,112.592867 C159.407124,112.490282 159.158034,112.447445 158.91019,112.468439 C158.566862,112.537566 158.610642,112.749554 158.463172,113.003018 C158.265009,113.362476 157.500008,113.429299 157.343321,112.986888 Z" id="Path" fill="#3F3D56" fill-rule="nonzero"></path>
                        <path d="M153.70035,151.11711 L157.511529,148.13545 L163.502499,142.229736 C163.502499,142.229736 162.696023,142.190564 161.525479,142.139871 C161.293,142.349321 161.144061,142.635743 161.106111,142.946348 C161.078461,143.667569 159.493158,142.997041 158.65903,143.407192 C157.824903,143.817343 153.790215,148.999532 153.080515,148.967273 C152.370816,148.935014 151.810891,148.607815 151.51595,149.110135 L151.495213,149.142394 C151.374302,149.278686 151.21271,149.37241 151.034369,149.409683 L153.70035,151.11711 Z" id="Path" fill="#000000" fill-rule="nonzero" opacity="0.1"></path>
                        <path d="M146.022692,150.90973 L147.937498,157.02052 L148.237046,157.979075 L149.158734,157.730219 L151.168013,157.177207 L160.117601,154.718605 C161.242589,154.66997 162.34345,154.376669 163.343508,153.859131 C165.036409,152.912432 166.972597,152.490545 168.905894,152.647111 C170.087958,152.757714 171.403667,152.248481 172.495867,150.229985 C172.495867,150.229985 174.975207,142.907176 168.714643,140.810337 C162.45408,138.713497 162.156835,141.925579 162.156835,141.925579 L162.071579,141.978576 C161.841157,142.132959 161.149891,142.619149 161.122241,143.211333 C161.09459,143.934858 159.509287,143.262026 158.67516,143.672177 C157.841033,144.082328 153.790215,149.266822 153.080515,149.229954 C152.370816,149.193087 151.810891,148.870496 151.51595,149.372816 L151.495213,149.405075 C151.276312,149.706928 150.617305,149.776054 150.184112,149.789879 C149.95369,149.789879 149.773961,149.789879 149.773961,149.789879 L149.718659,149.806009 L149.257816,149.941958 L146.022692,150.90973 Z" id="Path" fill="#65617D" fill-rule="nonzero"></path>
                        <path d="M146.518099,139.040696 L147.439787,139.188166 L147.824591,135.376988 C147.824591,135.376988 147.402919,135.314774 146.875253,135.19265 C147.013506,135.722621 146.697828,137.777984 146.518099,139.040696 Z" id="Path" fill="#000000" fill-rule="nonzero" opacity="0.1"></path>
                        <path d="M170.664013,121.240602 C170.664013,121.240602 173.410642,120.443342 172.73781,128.24082 C172.064978,136.038299 166.977262,140.967024 166.977262,140.967024 C166.977262,140.967024 161.131458,143.536228 158.502343,143.123773 C156.996272,142.880536 155.478963,142.712886 153.956119,142.621453 C153.128608,142.202944 152.223048,141.961253 151.29705,141.911754 C149.822349,141.854148 146.72087,140.937069 146.66096,140.642129 C146.601051,140.347189 147.43057,136.006039 147.07572,135.681145 C147.07572,135.681145 151.209489,135.851657 151.621945,136.141988 C152.0344,136.43232 152.626584,136.227245 153.068994,136.141988 C153.511404,136.056732 154.870894,134.876972 157.557614,135.911567 C157.557614,135.911567 158.479301,135.999127 158.827238,135.764096 C159.175175,135.529066 159.748926,135.704187 159.748926,135.704187 C159.977019,135.625681 160.193313,135.516372 160.391803,135.379292 C160.479364,135.261777 161.189063,135.379292 161.189063,135.379292 C161.274345,135.421085 161.37398,135.421949 161.459973,135.381639 C161.545967,135.34133 161.609041,135.264197 161.631473,135.171912 C161.723735,134.929719 161.864033,134.70869 162.043929,134.522122 C162.043929,134.522122 162.841188,130.033503 164.348148,128.351423 C164.348148,128.351423 164.790558,127.966618 164.673043,127.494253 C164.555528,127.021888 167.120124,120.295872 170.664013,121.240602 Z" id="Path" fill="#000000" fill-rule="nonzero" opacity="0.1"></path>
                        <path d="M170.592582,120.641505 C170.592582,120.641505 173.339212,119.844245 172.66638,127.641723 C171.993548,135.439202 166.905831,140.367927 166.905831,140.367927 C166.905831,140.367927 161.057723,142.937131 158.430913,142.524676 C155.804103,142.112221 153.873167,142.022356 153.873167,142.022356 C153.046359,141.604155 152.141616,141.362472 151.216402,141.312657 C149.739397,141.255051 146.640222,140.337972 146.580313,140.043032 C146.520403,139.748092 147.347618,135.406942 146.992768,135.082048 C146.992768,135.082048 151.126537,135.25256 151.541297,135.542891 C151.956056,135.833223 152.545937,135.625843 152.988347,135.542891 C153.430757,135.45994 154.790246,134.275571 157.476966,135.312469 C157.476966,135.312469 158.398654,135.40003 158.746591,135.164999 C159.094528,134.929969 159.668278,135.10509 159.668278,135.10509 C159.895798,135.026931 160.111377,134.917591 160.308851,134.780195 C160.396412,134.66268 161.106111,134.780195 161.106111,134.780195 C161.191393,134.821988 161.291028,134.822852 161.377021,134.782542 C161.463015,134.742233 161.526089,134.6651 161.548521,134.572815 C161.642852,134.331129 161.783778,134.110346 161.963281,133.923025 C161.963281,133.923025 162.760541,129.434406 164.2675,127.752326 C164.2675,127.752326 164.712215,127.367521 164.592395,126.895156 C164.472576,126.422791 167.048693,119.696775 170.592582,120.641505 Z" id="Path" fill="#3F3D56" fill-rule="nonzero"></path>
                        <path d="M149.264728,149.939654 L153.163467,154.658695 C153.179597,154.64487 153.188814,154.635653 153.188814,154.631044 C153.218769,154.543484 153.601269,153.538844 153.513709,153.478935 C153.426148,153.419025 152.746404,151.94202 151.386914,151.322185 C150.69731,150.98453 150.118516,150.4569 149.718659,149.801401 L149.264728,149.939654 Z" id="Path" fill="#000000" fill-rule="nonzero" opacity="0.1"></path>
                        <path d="M149.317725,158.105807 L149.744006,158.352358 C149.744006,158.352358 150.732516,157.557403 151.718722,156.757839 C152.704928,155.958275 153.65657,155.177144 153.6727,155.144885 C153.70035,155.057325 154.085155,154.052685 153.99529,153.992775 C153.949206,153.962821 153.746435,153.55267 153.375455,153.071088 C150.730212,152.329129 152.414596,154.165592 152.638105,154.248544 C152.638105,154.248544 149.412198,153.511194 149.241686,157.013607 C149.218658,157.379434 149.244228,157.7467 149.317725,158.105807 Z" id="Path" fill="#000000" fill-rule="nonzero" opacity="0.1"></path>
                        <path d="M152.578196,159.598941 L153.140425,159.923836 L158.838759,160.071306 C159.478493,160.459446 160.154518,160.78434 160.857256,161.041382 C160.950545,161.070768 161.046115,161.092348 161.142979,161.105901 C161.671134,161.147047 162.201254,161.157049 162.730586,161.135855 C163.168388,161.135855 163.504804,161.105901 163.504804,161.105901 C163.504804,161.105901 163.23521,153.916736 163.04396,153.160952 C162.947183,152.79919 162.467905,152.879838 161.997844,153.059567 C161.643913,153.20312 161.302488,153.375759 160.977075,153.575712 C160.977075,153.575712 158.555341,153.806134 158.170536,154.020426 C157.785731,154.234719 156.695836,153.900607 156.016091,154.020426 C155.336346,154.140246 154.126631,153.220862 154.126631,153.220862 C150.817772,152.128662 152.679581,154.165592 152.914612,154.253152 C152.914612,154.253152 149.688705,153.515802 149.520497,157.018215 C149.352289,160.520629 152.578196,159.598941 152.578196,159.598941 Z" id="Path" fill="#3F3D56" fill-rule="nonzero"></path>
                        <path d="M160.818084,156.815444 C160.880298,158.30397 162.03932,160.151954 162.730586,161.128943 C163.168388,161.128943 163.504804,161.098988 163.504804,161.098988 C163.504804,161.098988 163.23521,153.909824 163.04396,153.15404 C162.947183,152.792277 162.467905,152.872925 161.997844,153.052654 C161.414877,154.124116 160.767391,155.61725 160.818084,156.815444 Z" id="Path" fill="#565387" fill-rule="nonzero"></path>
                        <path d="M160.818084,156.815444 C160.880298,158.30397 162.03932,160.151954 162.730586,161.128943 C163.168388,161.128943 163.504804,161.098988 163.504804,161.098988 C163.504804,161.098988 163.23521,153.909824 163.04396,153.15404 C162.947183,152.792277 162.467905,152.872925 161.997844,153.052654 C161.414877,154.124116 160.767391,155.61725 160.818084,156.815444 Z" id="Path" fill="#000000" fill-rule="nonzero" opacity="0.1"></path>
                        <path d="M159.843399,157.013607 C160.235116,158.449136 160.230508,160.059785 160.857256,161.03447 C160.950545,161.063855 161.046115,161.085436 161.142979,161.098988 C161.671134,161.140134 162.201254,161.150137 162.730586,161.128943 C163.168388,161.128943 163.504804,161.098988 163.504804,161.098988 C163.504804,161.098988 163.23521,153.909824 163.04396,153.15404 C162.947183,152.792277 162.467905,152.872925 161.997844,153.052654 C161.643913,153.196207 161.302488,153.368847 160.977075,153.568799 C160.977075,153.568799 159.341079,155.17484 159.843399,157.013607 Z" id="Path" fill="#000000" fill-rule="nonzero" opacity="0.05"></path>
                        <path d="M140.181496,142.444028 C140.181496,142.444028 143.013381,143.365716 145.412074,146.628491 L140.181496,142.444028 Z" id="Path" fill="#000000" fill-rule="nonzero" opacity="0.1"></path>
                        <g id="Group" opacity="0.1" transform="translate(146.983551, 104.781564)" fill="#000000" fill-rule="nonzero">
                            <path d="M16.200966,2.22818008 C16.200966,2.25122227 16.200966,2.27196025 16.1848365,2.29269822 C16.1561991,2.37657878 16.1231253,2.4588786 16.0857551,2.53924969 C16.1148499,2.43234583 16.1534058,2.32824491 16.200966,2.22818008 Z" id="Path"></path>
                            <path d="M0.184337546,0.797259884 C0.237796102,0.590083889 0.315120803,0.389812915 0.414759477,0.200467081 C0.398629942,0.251159906 0.384804626,0.301852731 0.37097931,0.354849775 C0.221205055,0.997726965 0.345632898,1.67055901 0.502319812,2.31113198 C0.582967488,2.64293956 0.693570015,3.00239777 0.979293211,3.18673532 C1.4193991,3.46785007 2.0991438,3.22360283 2.45860201,3.60379901 C2.68902395,3.83422095 2.68902395,4.27432684 2.99548511,4.42179687 C3.10603398,4.47120324 3.22903388,4.48567381 3.34803067,4.46327282 C4.13146524,4.35267029 4.58770066,3.46554586 5.34118038,3.22129861 C5.78157439,3.10834486 6.24732369,3.14898616 6.66149805,3.33650957 C6.83050731,3.38816955 6.98199514,3.48544068 7.09929972,3.61762433 C7.35045963,3.94251925 7.17533896,4.42410109 7.29054993,4.8181226 C7.4541495,5.36652679 8.10854778,5.58312341 8.67308152,5.65685843 C9.23761525,5.73059345 9.87818822,5.76746096 10.2583844,6.19604575 C10.5126515,6.52215431 10.6149926,6.94158528 10.5394992,7.34815541 C10.5049618,7.48659118 10.5049618,7.63139177 10.5394992,7.76982754 C10.6961861,8.21223765 11.4611869,8.14771951 11.661654,7.79747818 C11.809124,7.54401405 11.7630396,7.33663431 12.1086725,7.26059507 C12.3566571,7.24153743 12.6054541,7.28511653 12.8321974,7.38732714 C13.4456451,7.5971827 14.0920794,7.6939917 14.740091,7.67305033 C15.2746998,7.68100772 15.7981329,7.5197032 16.2355293,7.21220647 C16.4265679,7.06072684 16.5835857,6.87073528 16.6963732,6.65458539 C16.5963473,7.04774356 16.3725839,7.39833312 16.0581044,7.65461658 C15.620708,7.96211331 15.0972749,8.12341782 14.5626661,8.11546044 C13.9118955,8.1323967 13.2635735,8.02929007 12.6501641,7.81130349 C12.4235729,7.70871894 12.1744827,7.66588178 11.9266392,7.68687565 C11.5833105,7.75600223 11.6270907,7.9679904 11.4796206,8.22145453 C11.2791536,8.57169587 10.5141528,8.63851823 10.3574658,8.19610812 C10.3245193,8.05670283 10.3245193,7.91153705 10.3574658,7.77213176 C10.4329593,7.36556163 10.3306181,6.94613067 10.0763511,6.6200221 C9.69615489,6.19143731 9.05788614,6.15917824 8.49104819,6.08083478 C7.92421024,6.00249133 7.26981195,5.79050315 7.1085166,5.24209895 C6.99100141,4.84807745 7.1684263,4.36649561 6.91496218,4.04160069 C6.79750198,3.90959898 6.64606908,3.81236312 6.47716051,3.76048593 C6.06298614,3.57296251 5.59723684,3.53232121 5.15684284,3.64527496 C4.40336312,3.88952221 3.94712769,4.77664665 3.16369312,4.88724918 C3.04469633,4.90965017 2.92169644,4.89517959 2.81114757,4.84577323 C2.51390328,4.69830319 2.50238218,4.2697184 2.27426447,4.02777537 C1.91480625,3.64757918 1.23506155,3.89413065 0.794955665,3.61071167 C0.509232469,3.42637413 0.398629942,3.06691591 0.317982266,2.73741255 C0.158991133,2.11296912 0.0345632898,1.44013707 0.184337546,0.797259884 Z" id="Path"></path>
                        </g>
                        <path d="M163.643057,129.213201 C163.101565,129.943638 162.490947,130.618775 162.004757,131.390688 C161.518567,132.162602 161.189063,133.065856 161.288145,133.96911 C161.783552,133.462181 162.009365,132.759394 162.322739,132.125734 C162.850405,131.04736 163.640753,130.132584 164.308976,129.130249 C164.435708,128.941303 165.251402,127.846799 164.838947,127.793802 C164.497922,127.75463 163.827394,128.964345 163.643057,129.213201 Z" id="Path" fill="#000000" fill-rule="nonzero" opacity="0.1"></path>
                    </g>
                </g>
            </g>
        </g>
    </g>
</svg>