<?xml version="1.0" encoding="UTF-8"?>
<svg width="352px" height="221px" viewBox="0 0 352 221" version="1.1" xmlns="http://www.w3.org/2000/svg" xmlns:xlink="http://www.w3.org/1999/xlink">
    <title>311238C5-7E45-4EC7-A0CD-BBF44D7C598B</title>
    <g id="Page-1" stroke="none" stroke-width="1" fill="none" fill-rule="evenodd">
        <g id="1.040-Book-a-Dev_Wiz_Team_4" transform="translate(-544.000000, -760.000000)" fill-rule="nonzero">
            <g id="Group-5" transform="translate(472.000000, 700.000000)">
                <g id="undraw_forming_ideas_0pav" transform="translate(72.000000, 60.000000)">
                    <path d="M126.536048,35.3154874 C119.91212,42.1944074 110.712791,45.9890357 101.165408,45.7806151 C91.6180242,45.5721945 82.5930547,41.3797274 76.2756289,34.2182959 L0,106.417283 L107.258545,219.732078 L209.495552,122.959219 L126.536048,35.3154874 Z" id="Path" fill="#12021E" opacity="0.04"></path>
                    <path d="M101.848344,38.6510264 C109.98228,38.6607661 117.767662,35.349516 123.40259,29.4836322 L102.133367,7.01345983 L79.4090509,28.5232323 C85.0837839,34.9697373 93.2599835,38.6599913 101.848344,38.6510264 Z" id="Path" fill="#12021E" opacity="0.04"></path>
                    <circle id="Oval" fill="#2FADD6" cx="231.557853" cy="17.6863426" r="17.6863426"></circle>
                    <path d="M269.282359,71.5130834 C269.296791,85.7670706 263.640818,99.4414078 253.561722,109.520504 C243.482626,119.5996 229.808289,125.255572 215.554302,125.241141 C215.248215,125.241141 214.942128,125.237857 214.636041,125.231344 C213.346568,125.211807 212.073377,125.146682 210.806698,125.03597 C181.862692,122.469752 160.20315,97.3576152 161.914769,68.3505248 C163.626388,39.3434343 188.088921,16.9528194 217.133869,17.8083511 C246.178817,18.6638828 269.281032,42.4555382 269.282359,71.5130834 L269.282359,71.5130834 Z" id="Path" fill="#5D2784"></path>
                    <path d="M246.690509,52.0700427 C250.058681,46.1303612 252.257054,39.6000953 253.166625,32.8327412 C238.594689,18.7846043 217.364235,14.118121 198.244435,20.7607674 C179.124635,27.4034138 165.360581,44.2277724 162.637471,64.2845957 C171.46185,72.8150874 182.949849,78.0537701 195.1767,79.1229229 C196.443421,79.2336352 197.71657,79.2987601 199.006043,79.3182976 C199.312149,79.3248101 199.618243,79.3280969 199.924323,79.3280969 C219.290191,79.348703 237.164068,68.9307792 246.690503,52.070046 L246.690509,52.0700427 Z" id="Path" fill="#000000" opacity="0.1"></path>
                    <rect id="Rectangle" fill="#2F2E41" x="153.034416" y="123.938612" width="86.2904718" height="96.3848289"></rect>
                    <path d="M266.960629,91.5715381 C260.185437,107.476397 246.178807,119.155657 229.31519,122.961732 L241.278631,122.961732 L241.278631,219.346561 L161.68951,219.346561 L206.355412,141.981455 L216.589788,124.254461 L217.335467,122.961732 L251.210176,64.290724 L266.960629,91.5715381 Z" id="Path" fill="#000000" opacity="0.1"></path>
                    <polygon id="Path" fill="#3F3D56" points="262.281354 64.94195 307.136118 142.632681 351.990883 220.323412 262.281354 220.323412 172.571826 220.323412 217.42659 142.632681"></polygon>
                    <rect id="Rectangle" fill="#2F2E41" x="12.0390415" y="219.672192" width="339.951896" height="1"></rect>
                    <polygon id="Path" fill="#9F616A" points="55.8462165 204.931471 55.2519519 209.884218 51.8840185 211.469032 48.1198002 210.280178 45.5444366 211.469032 44.7521924 206.91257 49.3086549 201.761517"></polygon>
                    <path d="M53.4688586,208.695406 C53.4688586,208.695406 56.5403273,205.11469 56.589464,206.905048 C56.6386007,208.695406 63.3743047,214.836783 63.3743047,214.836783 C63.3743047,214.836783 73.8740642,218.006526 65.7516104,219.987615 C57.6291567,221.968704 39.799344,216.223546 39.2050176,215.034893 C38.6106911,213.84624 44.157739,204.733227 44.7520654,205.525664 C45.3463919,206.3181 48.3180338,209.091626 53.4688586,208.695406 Z" id="Path" fill="#2F2E41"></path>
                    <path d="M60.9970054,149.857056 C60.9970054,149.857056 62.1856583,159.168176 60.9970054,160.554938 C59.8083526,161.941701 60.402679,164.715227 60.9970054,165.111443 C61.5913319,165.50766 60.2045691,167.092542 59.2140229,167.884969 C58.2234766,168.677395 56.8367171,172.243367 56.8367171,172.243367 C56.8367171,172.243367 51.4877759,186.309098 51.4877759,187.695874 C51.4877759,189.08265 49.1104702,192.054272 49.3085768,193.044815 C49.5066834,194.035358 47.921814,197.205103 48.1199239,197.79943 C48.3180338,198.393756 45.5445083,203.742698 46.3369446,204.535134 C47.1293809,205.32757 58.02537,208.101092 57.4310436,206.318113 C56.8367171,204.535134 56.4404941,202.355935 56.8367171,202.355935 C57.2329402,202.355935 59.0159162,200.176736 58.6196964,199.384303 C58.2234766,198.591869 70.5062317,177.790428 70.5062317,177.790428 L60.9970054,149.857056 Z" id="Path" fill="#2F2E41"></path>
                    <path d="M53.4688586,208.695406 C53.4688586,208.695406 56.5403273,205.11469 56.589464,206.905048 C56.6386007,208.695406 63.3743047,214.836783 63.3743047,214.836783 C63.3743047,214.836783 73.8740642,218.006526 65.7516104,219.987615 C57.6291567,221.968704 39.799344,216.223546 39.2050176,215.034893 C38.6106911,213.84624 44.157739,204.733227 44.7520654,205.525664 C45.3463919,206.3181 48.3180338,209.091626 53.4688586,208.695406 Z" id="Path" fill="#000000" opacity="0.1"></path>
                    <path d="M60.9970054,149.857056 C60.9970054,149.857056 62.1856583,159.168176 60.9970054,160.554938 C59.8083526,161.941701 60.402679,164.715227 60.9970054,165.111443 C61.5913319,165.50766 60.2045691,167.092542 59.2140229,167.884969 C58.2234766,168.677395 56.8367171,172.243367 56.8367171,172.243367 C56.8367171,172.243367 51.4877759,186.309098 51.4877759,187.695874 C51.4877759,189.08265 49.1104702,192.054272 49.3085768,193.044815 C49.5066834,194.035358 47.921814,197.205103 48.1199239,197.79943 C48.3180338,198.393756 45.5445083,203.742698 46.3369446,204.535134 C47.1293809,205.32757 58.02537,208.101092 57.4310436,206.318113 C56.8367171,204.535134 56.4404941,202.355935 56.8367171,202.355935 C57.2329402,202.355935 59.0159162,200.176736 58.6196964,199.384303 C58.2234766,198.591869 70.5062317,177.790428 70.5062317,177.790428 L60.9970054,149.857056 Z" id="Path" fill="#000000" opacity="0.1"></path>
                    <polygon id="Path" fill="#9F616A" points="81.2042183 202.47203 83.3832969 208.019042 82.3927475 215.745132 76.0531656 215.349173 72.4872525 212.179219 72.4872525 205.443678"></polygon>
                    <path d="M80.0154612,209.207636 C80.0154612,209.207636 82.1946604,202.075715 83.383323,204.056792 C84.1363036,205.329144 84.7983227,206.653176 85.364422,208.01897 C85.364422,208.01897 95.0717581,214.358457 97.6471738,214.358457 C100.222589,214.358457 102.599898,217.5282 99.2320465,218.716852 C95.8641945,219.905505 70.1100347,221.490378 69.7138182,218.716852 C69.3176016,215.943327 70.1100347,207.028427 71.2986876,208.01897 C72.4873405,209.009513 78.6286985,211.188725 80.0154612,209.207636 Z" id="Path" fill="#2F2E41"></path>
                    <path d="M84.9681826,121.445384 C84.9681826,121.445384 93.700176,127.379297 94.0963925,128.171733 C94.4926091,128.964169 99.5591785,131.400625 95.3988902,133.381724 C91.2386019,135.362823 80.2135711,122.832144 80.2135711,122.832144 L84.9681826,121.445384 Z" id="Path" fill="#9F616A"></path>
                    <path d="M80.6097877,109.955065 C80.6097877,109.955065 86.9492719,122.23782 85.760619,122.634037 C84.5719661,123.030253 79.8173513,125.407562 79.8173513,125.407562 L77.6381555,112.926704 L80.6097877,109.955065 Z" id="Path" fill="#575A88"></path>
                    <path d="M80.6097877,109.955065 C80.6097877,109.955065 86.9492719,122.23782 85.760619,122.634037 C84.5719661,123.030253 79.8173513,125.407562 79.8173513,125.407562 L77.6381555,112.926704 L80.6097877,109.955065 Z" id="Path" fill="#000000" opacity="0.1"></path>
                    <path d="M80.2135711,120.256731 C80.2135711,120.256731 81.6003339,130.558394 81.0060042,132.73759 C80.4116745,134.916785 81.402224,167.604759 80.6097877,169.387742 C79.8173513,171.170724 79.2230249,182.661037 79.2230249,184.047799 C79.2230249,185.434562 80.8078976,196.726771 81.2041239,197.717317 C81.6003502,198.707863 82.7889966,202.075712 82.1946734,203.660585 C81.6003502,205.245457 73.4778802,209.207633 72.2892273,207.82087 C71.1005744,206.434107 72.0911174,202.075712 71.1005712,201.877602 C70.1100249,201.679492 68.9213753,192.368376 68.9213753,192.368376 L62.3837812,155.91635 C62.3837812,155.91635 50.1010262,125.407576 52.8745517,122.43594 C55.6480773,119.464305 80.2135711,120.256731 80.2135711,120.256731 Z" id="Path" fill="#2F2E41"></path>
                    <circle id="Oval" fill="#9F616A" cx="72.8835407" cy="40.220723" r="9.70733617"></circle>
                    <path d="M76.4494994,48.1450831 C76.4494994,48.1450831 73.2797573,56.4656565 73.6759771,58.2486359 C74.0721969,60.0316152 64.3648574,55.0788938 64.3648574,55.0788938 C64.3648574,55.0788938 64.9591839,45.3715576 64.3648574,42.7961419 C63.770531,40.2207263 76.4494994,48.1450831 76.4494994,48.1450831 Z" id="Path" fill="#9F616A"></path>
                    <path d="M49.831611,102.349661 C49.8751438,104.011798 49.9029032,105.002344 49.9029032,105.002344 C49.9029032,105.002344 49.3085768,114.115354 50.299123,117.086989 C51.2896693,120.058625 51.2896725,122.23782 51.8839925,124.21891 C52.0583057,124.795402 54.4297242,125.104448 57.7598851,125.241146 C60.8147567,125.365954 64.6758971,125.348133 68.3825092,125.262933 C74.5199174,125.12031 80.2413306,124.791445 81.2041109,124.615126 C83.38331,124.21891 80.8078943,120.851058 81.6003307,119.068078 C82.392767,117.285099 80.2135679,94.5025714 80.2135679,94.5025714 C80.2135679,94.5025714 80.4116745,81.6254899 79.4211315,76.6727685 C78.4305886,71.7200471 74.66652,63.7957 73.8740837,62.8051505 C73.0816474,61.814601 73.6759771,61.2202778 75.4589564,60.0316249 C77.2419357,58.8429721 75.4589564,54.2864639 75.4589564,54.2864639 C72.0911044,51.5129416 63.5724211,51.1167219 63.5724211,51.1167219 C63.5724211,51.1167219 50.4972329,64.5881298 49.7047966,67.3616554 C49.2253863,69.0376443 49.3977328,82.4258519 49.6077247,92.7631737 C49.6889322,96.6520475 49.7741546,100.111032 49.831611,102.349661 Z" id="Path" fill="#575A88"></path>
                    <path d="M66.5440533,126.992435 C66.5440533,126.992435 74.0721936,142.444942 68.128926,143.435475 C62.1856583,144.426009 59.2140229,129.369741 59.2140229,129.369741 L66.5440533,126.992435 Z" id="Path" fill="#9F616A"></path>
                    <path d="M81.9602433,35.3003426 C82.3035296,33.635425 81.0311131,32.0790672 79.6909993,31.0331551 C76.7724873,28.769676 73.1818842,27.5452519 69.4885154,27.5539806 C66.8905144,27.56814 64.209235,28.2553899 62.2456025,29.9565561 C59.955232,31.9407811 58.9104628,35.1227829 59.1027635,38.14701 C59.2950643,41.171237 60.6103167,44.0395909 62.3844064,46.4963458 C63.2358785,47.6754676 64.6033708,48.8960577 65.9639762,48.3821605 C66.4963706,48.1329013 66.953214,47.7470262 67.2880009,47.2638165 C68.1607207,46.1809525 68.9211802,45.012234 69.5576682,43.7756593 C70.04462,42.8293947 70.4664209,41.8320397 71.1565656,41.0219675 C71.8467102,40.2118954 72.8839347,39.6026423 73.938147,39.7481085 C74.8089612,39.8682639 75.6631717,40.4812812 76.4937224,40.1932762 C77.4177338,39.8728617 77.6410959,38.6912912 77.7145795,37.7160656 C77.795126,36.6471253 77.7380799,35.4089058 78.0348963,34.3982783 C78.3595406,34.5716082 81.8007004,36.0980867 81.9602433,35.3003426 Z" id="Path" fill="#2F2E41"></path>
                    <path d="M49.831611,102.349661 C52.0504158,110.351285 57.1398279,123.836561 57.4310338,124.417016 C57.5043579,124.565599 57.6192284,124.856814 57.7598786,125.241146 C60.8147502,125.365954 64.6758906,125.348133 68.3825027,125.262933 C67.8079547,123.761277 67.13837,122.311118 67.13837,121.841597 C67.13837,120.851048 62.3837584,95.2950012 62.3837584,95.2950012 C62.3837584,95.2950012 66.147827,84.0027956 69.515679,74.4935661 C72.883531,64.9843366 59.5111942,66.8663708 59.5111942,66.8663708 C52.3792737,65.0833915 51.0915659,68.1540787 51.0915659,68.1540787 C51.0915659,68.1540787 50.4635764,84.8546617 49.6077312,92.7631639 C49.3878077,94.7898275 49.154055,96.238003 48.9123668,96.681764 C48.5953649,97.2622253 49.0233135,99.4453873 49.831611,102.349661 Z" id="Path" fill="#000000" opacity="0.1"></path>
                    <path d="M62.3837682,60.427835 C62.3837682,60.427835 71.4967779,64.1919035 68.128926,73.701133 C64.761074,83.2103626 60.9970054,94.5025714 60.9970054,94.5025714 C60.9970054,94.5025714 65.7516169,120.058621 65.7516169,121.049168 C65.7516169,122.039714 68.7232654,127.388652 67.5345995,128.379195 C66.3459336,129.369738 58.4215898,131.350843 58.2234799,130.360294 C58.02537,129.369744 56.4405006,124.417026 56.0442808,123.624593 C55.648061,122.83216 46.3369446,98.0685398 47.5255975,95.8893439 C48.4003126,94.2856958 49.1677475,79.5936358 49.5121083,71.9447963 C49.6739968,67.5052102 52.1662244,63.4804312 56.068364,61.356887 C57.9154196,60.377946 60.0658922,59.8483668 62.3837682,60.427835 Z" id="Path" fill="#575A88"></path>
                    <rect id="Rectangle" fill="#2FADD6" x="87.2582829" y="118.402997" width="11.7224792" height="11.7224792"></rect>
                    <circle id="Oval" fill="#3F3D56" cx="93.1195225" cy="114.821128" r="3.58186864"></circle>
                    <path d="M148.62311,110.880991 C147.525199,112.632327 146.100706,112.591138 144.816392,111.786003 C143.532077,110.980867 142.874286,109.716659 143.972197,107.965337 C145.070108,106.214015 148.792282,105.443852 148.792282,105.443852 C148.792282,105.443852 149.721022,109.129663 148.62311,110.880991 Z" id="Path" fill="#5D2784"></path>
                    <path d="M279.566502,58.3927865 C279.769672,60.4498016 278.617749,61.2888185 277.109271,61.437808 C275.600793,61.5867974 274.30699,60.9893482 274.10382,58.9323332 C273.90065,56.8753181 276.373526,53.9887032 276.373526,53.9887032 C276.373526,53.9887032 279.363312,56.3357715 279.566502,58.3927865 Z" id="Path" fill="#5D2784"></path>
                    <path d="M142.782623,73.5818275 C141.684712,75.3331626 140.260219,75.2919744 138.975907,74.4868387 C137.691596,73.681703 137.033799,72.4175118 138.13171,70.6661734 C139.229621,68.914835 142.951795,68.1446844 142.951795,68.1446844 C142.951795,68.1446844 143.880534,71.8304826 142.782623,73.5818275 Z" id="Path" fill="#5D2784"></path>
                </g>
            </g>
        </g>
    </g>
</svg>