<?xml version="1.0" encoding="UTF-8"?>
<svg width="40px" height="31px" viewBox="0 0 40 31" version="1.1" xmlns="http://www.w3.org/2000/svg" xmlns:xlink="http://www.w3.org/1999/xlink">
    <title>7625D0EF-2970-4CB3-A152-D839ED80EAAB</title>
    <g id="Page-1" stroke="none" stroke-width="1" fill="none" fill-rule="evenodd">
        <g id="1.030-Book-a-Dev_Wiz_Project_3" transform="translate(-884.000000, -844.000000)" fill-rule="nonzero">
            <g id="Group-32" transform="translate(392.000000, 781.000000)">
                <g id="Group-31" transform="translate(368.000000, 0.000000)">
                    <g id="Group-23-Copy" transform="translate(104.000000, 38.000000)">
                        <g id="Group-12" transform="translate(20.000000, 25.000000)">
                            <path d="M19.5719745,-1.02801928e-13 C19.518783,0.00332425532 19.4689157,0.0066493617 19.4157243,0.019947234 C15.845246,0.049867234 12.5008306,1.03723404 9.62516596,2.7393617 C9.55535234,2.7692817 9.48886298,2.80917532 9.42569787,2.8557183 C6.50349021,4.63430894 4.08660255,7.16422894 2.43101702,10.1695481 C2.38779915,10.2293881 2.35122979,10.2925532 2.32463404,10.3623668 C0.875165957,13.06516 0.0440493617,16.1469413 0.017453617,19.4148936 C-0.00581787234,19.527926 -0.00581787234,19.6409574 0.017453617,19.7506647 C0.0440493617,23.3477396 0.941655319,26.5059838 2.68700085,29.4015957 C2.88979404,29.7373668 3.29870298,29.8902928 3.67436851,29.7706119 C4.05003319,29.6509311 4.2960434,29.2885643 4.2661234,28.8962766 L4.30601702,29.4182179 L7.50083064,27.5664894 C7.77343745,27.4202128 7.94298553,27.1376332 7.94298553,26.8284579 C7.94630979,26.5192817 7.78008596,26.2333779 7.51080426,26.0804519 C7.24152255,25.9275268 6.9124,25.9341753 6.64644255,26.0937498 L3.80734723,27.7393617 C2.59724085,25.4986706 1.86585787,23.1482715 1.73952766,20.4388298 L5.11718723,20.4388298 C5.4230383,20.442154 5.70894298,20.2825796 5.86519234,20.0166221 C6.0181183,19.7506647 6.0181183,19.4248672 5.86519234,19.1589098 C5.70894298,18.8929523 5.4230383,18.7333779 5.11718723,18.7367021 L1.73952766,18.7367021 C1.85588426,16.2699472 2.48088426,13.9428196 3.49484681,11.8384306 C3.97357021,12.0977396 4.7381983,12.5099736 6.45694809,13.4441489 C6.72622979,13.5970749 7.05535234,13.5937498 7.32130979,13.4341753 C7.58394298,13.2746009 7.74351745,12.9820477 7.73021957,12.6761966 C7.72024596,12.3670213 7.54404936,12.087766 7.2681183,11.9448136 C5.54936851,11.0139626 4.78806468,10.6017285 4.30601702,10.3424204 C5.66904936,8.09840426 7.49085787,6.17021277 9.66838383,4.71742043 L11.4203787,7.63297872 C11.5733047,7.89561191 11.8592085,8.05851064 12.1650596,8.05518638 C12.4742349,8.04853702 12.7534902,7.88231404 12.9030919,7.61303234 C13.0493685,7.34374979 13.0393949,7.01462809 12.8798204,6.75531915 L11.1278255,3.83976085 C13.4117353,2.61303234 15.9915226,1.87167574 18.7342085,1.74202128 L18.7342085,5.11968085 C18.7308843,5.42553191 18.8904587,5.7114366 19.1564162,5.86768596 C19.4223736,6.02061191 19.7481711,6.02061191 20.0141285,5.86768596 C20.280086,5.7114366 20.4396604,5.42553191 20.4363362,5.11968085 L20.4363362,1.74202128 C22.9030919,1.85837787 25.2368681,2.47008 27.3412562,3.48404255 L25.7288894,6.4594417 C25.5759643,6.7287234 25.5792885,7.05784596 25.738863,7.3238034 C25.8984374,7.5864366 26.1909906,7.74601106 26.4968417,7.73271319 C26.806017,7.72273957 27.0852723,7.54654298 27.2282247,7.27061191 L28.8372672,4.29853702 C31.0812834,5.65824511 33.0028255,7.49335149 34.4556179,9.67087745 L31.5400596,11.4228723 C31.2774264,11.5757983 31.1145277,11.8617021 31.1178519,12.1675532 C31.1245013,12.4767285 31.2907243,12.7559838 31.5600068,12.9055855 C31.8292885,13.0518621 32.1584111,13.0418885 32.4177191,12.882314 L35.3332774,11.1303191 C36.5600068,13.4142289 37.3013626,15.9940162 37.431017,18.7367021 L34.0533574,18.7367021 C33.7475064,18.7333779 33.4616026,18.8929523 33.3053523,19.1589098 C33.1524264,19.4248672 33.1524264,19.7506647 33.3053523,20.0166221 C33.4616026,20.2825796 33.7475064,20.442154 34.0533574,20.4388298 L37.431017,20.4388298 C37.3046877,23.1482715 36.5733047,25.4986706 35.3665226,27.7393617 L32.5241021,26.0937498 C32.2581447,25.9341753 31.9290221,25.9275268 31.6597404,26.0804519 C31.3904587,26.2333779 31.2242349,26.5192817 31.22756,26.8284579 C31.22756,27.1376332 31.3971072,27.4202128 31.669714,27.5664894 L34.8645277,29.4182179 L34.9044213,28.8962766 C34.8745013,29.2885643 35.1205115,29.6509311 35.496177,29.7706119 C35.8718417,29.8902928 36.2807515,29.7373668 36.4835438,29.4015957 C38.2288894,26.5093089 39.1264962,23.3510638 39.1564162,19.7606383 C39.1763626,19.6476068 39.1763626,19.5312502 39.1564162,19.421543 C39.1231711,15.8444153 38.13248,12.4933515 36.423703,9.61768596 C36.4004323,9.5545217 36.3671872,9.49800511 36.3272936,9.44148936 C36.3239694,9.44148936 36.3239694,9.44148936 36.3239694,9.44148936 C36.3239694,9.43816511 36.3206451,9.43816511 36.31732,9.43484085 C34.5420545,6.51595745 32.018783,4.10239404 29.0201132,2.44680851 C28.9469745,2.39029277 28.8671872,2.35039915 28.7840757,2.32047915 C26.0846077,0.877659574 23.0127991,0.0465429787 19.7481711,0.019947234 C19.6916553,0.0066493617 19.6318153,-1.02801928e-13 19.5719745,-1.02801928e-13 Z M14.4788894,26.3962766 C14.1730383,26.3929523 13.8871345,26.5525268 13.7308843,26.8184843 C13.5779583,27.0844417 13.5779583,27.4102391 13.7308843,27.6761966 C13.8871345,27.942154 14.1730383,28.1017285 14.4788894,28.0984043 L24.6916553,28.0984043 C24.9975064,28.1017285 25.2834111,27.942154 25.4396604,27.6761966 C25.5925864,27.4102391 25.5925864,27.0844417 25.4396604,26.8184843 C25.2834111,26.5525268 24.9975064,26.3929523 24.6916553,26.3962766 L14.4788894,26.3962766 Z" id="Shape-Copy" fill="#12021E" opacity="0.8"></path>
                            <path d="M18.873736,7.70674765 C19.0791906,7.38417691 19.4738214,7.23733064 19.8380723,7.34759851 C20.2023233,7.45786638 20.4518302,7.79782836 20.4430359,8.18038776 L20.4430359,8.18038776 L20.3797666,17.1674913 C20.531959,17.2240311 20.6847137,17.2925453 20.8271946,17.3781565 C22.0268867,18.0990042 22.4215638,19.6819675 21.7007161,20.8816596 C20.9798683,22.0813516 19.3969051,22.4760287 18.197213,21.755181 C16.9975209,21.0343332 16.6028438,19.45137 17.3236916,18.2516779 C17.6421661,17.7216472 18.1310066,17.3599169 18.6778908,17.1726864 L18.6778908,17.1726864 L18.7440216,8.16791019 C18.7418455,8.00370786 18.7869867,7.84466655 18.873736,7.70674765 Z M19.5852723,18.7367021 C19.1065489,18.7367021 18.7342085,19.1090426 18.7342085,19.587766 C18.7342085,20.0664894 19.1065489,20.4388298 19.5852723,20.4388298 C20.0639957,20.4388298 20.4363362,20.0664894 20.4363362,19.587766 C20.4363362,19.481383 20.4130647,19.3816494 20.3798204,19.2885643 C20.3166553,19.2154255 20.2667881,19.1356383 20.2335438,19.0458774 C20.0806179,18.8597072 19.854554,18.7367021 19.5852723,18.7367021 Z" id="Combined-Shape" fill="#2FADD6"></path>
                        </g>
                    </g>
                </g>
            </g>
        </g>
    </g>
</svg>