<?xml version="1.0" encoding="UTF-8"?>
<svg width="147px" height="64px" viewBox="0 0 147 64" version="1.1" xmlns="http://www.w3.org/2000/svg" xmlns:xlink="http://www.w3.org/1999/xlink">
    <title>03C821A8-8357-4641-91A4-20006CAB91C5</title>
    <defs>
        <polygon id="path-1" points="0 0.0792380952 9.30144062 0.0792380952 9.30144062 19.032381 0 19.032381"></polygon>
    </defs>
    <g id="Page-1" stroke="none" stroke-width="1" fill="none" fill-rule="evenodd">
        <g id="1.001-Book-a-DevV2" transform="translate(-1059.000000, -3610.000000)">
            <g id="Group-31" transform="translate(144.000000, 2408.000000)">
                <g id="Group-10" transform="translate(0.000000, 123.000000)">
                    <g id="Klanten" transform="translate(46.000000, 940.000000)">
                        <g id="Group-25" transform="translate(0.000000, 124.000000)">
                            <g id="Group-21-Copy-2" transform="translate(825.000000, 0.000000)">
                                <g id="Group" transform="translate(44.000000, 15.000000)">
                                    <polyline id="Fill-5" fill="#2F2F2E" points="71.4903419 14.663619 66.4076752 29.4140952 63.3867228 29.4140952 58.3048181 14.663619 61.0385323 14.663619 64.89758 25.863619 68.7558657 14.663619 71.4903419 14.663619"></polyline>
                                    <polyline id="Fill-6" fill="#2F2F2E" points="76.1288181 13.2304762 76.4594847 13.2304762 76.4594847 29.1931429 73.8796752 29.1931429 73.8796752 13.4506667 76.1288181 13.2304762"></polyline>
                                    <path d="M85.5322466,24.5630476 C84.3299609,24.5630476 83.3943419,24.5409524 82.7551038,24.6948571 C82.1158657,24.8495238 81.76158,25.1809524 81.76158,25.8529524 C81.76158,26.7900952 82.4351038,27.3081905 83.3730085,27.3081905 C83.6914847,27.3081905 84.2316752,27.2419048 84.6949133,26.9554286 C85.1573895,26.6689524 85.5322466,26.1500952 85.5322466,25.2579048 L85.5322466,24.5630476 Z M88.6088181,29.4140952 C87.7707228,29.4140952 86.889199,29.1489524 86.0404371,28.2118095 C85.5871038,28.5539048 85.1916752,28.8510476 84.7170085,29.0613333 C84.2316752,29.2807619 83.6914847,29.4140952 82.9524371,29.4140952 C82.1600561,29.4140952 81.2213895,29.2594286 80.4831038,28.7299048 C79.7333895,28.2011429 79.1832942,27.2975238 79.1832942,25.7645714 C79.1832942,24.7619048 79.4263419,23.9565714 80.041199,23.416381 C80.6591038,22.8761905 81.6632942,22.5782857 83.1970085,22.5782857 C83.8133895,22.5782857 84.5311038,22.5782857 85.5436752,22.6666667 L85.5436752,22.0937143 C85.5436752,21.3005714 85.2907228,20.7489524 84.8823419,20.4175238 C84.4739609,20.087619 83.9223419,19.9550476 83.305199,19.9550476 C82.3253895,19.9550476 81.1680561,20.3078095 80.2423419,20.7375238 L79.6343419,18.4891429 C80.8373895,17.9154286 82.3688181,17.5184762 83.8133895,17.5184762 C84.9486276,17.5184762 86.0069133,17.7607619 86.8000561,18.3565714 C87.5840561,18.952381 88.0785323,19.8887619 88.0785323,21.288381 L88.0785323,25.544381 C88.0785323,26.0845714 88.2545323,26.4594286 88.5638657,26.7238095 C88.8625323,26.9881905 89.2808181,27.1535238 89.7760561,27.2525714 L88.6088181,29.4140952 L88.6088181,29.4140952 Z" id="Fill-7" fill="#2F2F2E"></path>
                                    <path d="M97.5246276,24.5630476 C96.3238657,24.5630476 95.3882466,24.5409524 94.7482466,24.6948571 C94.1090085,24.8495238 93.7547228,25.1809524 93.7547228,25.8529524 C93.7547228,26.7900952 94.4282466,27.3081905 95.3653895,27.3081905 C95.6838657,27.3081905 96.2240561,27.2419048 96.6872942,26.9554286 C97.1505323,26.6689524 97.5246276,26.1500952 97.5246276,25.2579048 L97.5246276,24.5630476 Z M100.601961,29.4140952 C99.7631038,29.4140952 98.8823419,29.1489524 98.03358,28.2118095 C97.5802466,28.5539048 97.1840561,28.8510476 96.7093895,29.0613333 C96.2240561,29.2807619 95.6838657,29.4140952 94.9463419,29.4140952 C94.153199,29.4140952 93.2137704,29.2594286 92.4754847,28.7299048 C91.7257704,28.2011429 91.1764371,27.2975238 91.1764371,25.7645714 C91.1764371,24.7619048 91.4194847,23.9565714 92.0351038,23.416381 C92.6522466,22.8761905 93.6556752,22.5782857 95.1901514,22.5782857 C95.8065323,22.5782857 96.5234847,22.5782857 97.5368181,22.6666667 L97.5368181,22.0937143 C97.5368181,21.3005714 97.2838657,20.7489524 96.8762466,20.4175238 C96.4678657,20.087619 95.9154847,19.9550476 95.2983419,19.9550476 C94.3185323,19.9550476 93.161199,20.3078095 92.2347228,20.7375238 L91.6274847,18.4891429 C92.8297704,17.9154286 94.3619609,17.5184762 95.8065323,17.5184762 C96.9417704,17.5184762 98.0000561,17.7607619 98.7924371,18.3565714 C99.577199,18.952381 100.071675,19.8887619 100.071675,21.288381 L100.071675,25.544381 C100.071675,26.0845714 100.248437,26.4594286 100.557009,26.7238095 C100.855675,26.9881905 101.273199,27.1535238 101.769961,27.2525714 L100.601961,29.4140952 L100.601961,29.4140952 Z" id="Fill-8" fill="#2F2F2E"></path>
                                    <path d="M103.941389,17.7500952 L106.123485,17.7500952 L106.355104,18.5554286 C107.28158,17.8933333 108.350532,17.5291429 109.375294,17.5291429 C110.47777,17.5291429 111.515485,17.9489524 112.176056,18.8746667 C113.190151,18.0038095 114.457961,17.5291429 115.658723,17.5291429 C116.618723,17.5291429 117.523104,17.8384762 118.184437,18.4998095 C118.84577,19.1611429 119.264818,20.1866667 119.264818,21.5977143 L119.264818,29.1931429 L116.684247,29.1931429 L116.684247,22.2918095 C116.684247,21.4651429 116.464056,20.8914286 116.112818,20.528 C115.747866,20.1645714 115.263294,20.0099048 114.732247,20.0099048 C114.083866,20.0099048 113.421009,20.2300952 112.815294,20.5942857 C112.857961,20.8914286 112.892247,21.1900952 112.892247,21.5314286 L112.892247,29.1931429 L110.313961,29.1931429 L110.313961,22.2918095 C110.313961,21.4651429 110.103675,20.8914286 109.76158,20.528 C109.419485,20.1752381 108.956247,20.0099048 108.440437,20.0099048 C107.810342,20.0099048 107.138342,20.263619 106.519675,20.6605714 L106.519675,29.1931429 L103.941389,29.1931429 L103.941389,17.7500952" id="Fill-9" fill="#2F2F2E"></path>
                                    <path d="M121.59777,26.216381 L121.685389,26.1500952 C122.005389,26.3268571 122.447294,26.5142857 122.94177,26.679619 C123.426342,26.8449524 123.979485,26.9554286 124.519675,26.9554286 C124.992056,26.9554286 125.455294,26.8670476 125.819485,26.6575238 C126.172247,26.448 126.415294,26.1173333 126.415294,25.6213333 C126.415294,24.8830476 125.875104,24.552381 125.168818,24.288 C124.806151,24.1554286 124.420628,24.0228571 124.013009,23.9017143 C123.173389,23.6594286 122.435866,23.2289524 121.961199,22.4678095 C121.718913,22.0937143 121.59777,21.5870476 121.59777,20.936381 C121.59777,19.7348571 122.070913,18.8746667 122.800056,18.3238095 C123.525389,17.7729524 124.506723,17.5291429 125.554342,17.5291429 C126.437389,17.5291429 127.428628,17.7059048 128.102151,17.959619 L128.102151,20.2742857 L127.968818,20.3740952 C127.350913,20.0761905 126.746723,19.9108571 125.997009,19.9108571 C125.511675,19.9108571 125.059104,19.9878095 124.729199,20.1531429 C124.397009,20.3192381 124.17758,20.5721905 124.17758,20.9249524 C124.17758,21.4651429 124.704818,21.7409524 125.411866,21.9939048 L126.55777,22.3908571 C127.385199,22.6780952 128.112818,23.1626667 128.586723,23.9786667 C128.818342,24.3862857 128.938723,24.9264762 128.938723,25.5885714 C128.938723,26.9112381 128.409961,27.8704762 127.594723,28.487619 C126.779485,29.1161905 125.67777,29.4140952 124.541009,29.4140952 C123.395104,29.4140952 122.379485,29.1268571 121.59777,28.6308571 L121.59777,26.216381" id="Fill-10" fill="#2F2F2E"></path>
                                    <path d="M138.155485,22.3908571 C138.099866,21.5535238 137.803485,20.9584762 137.40577,20.5615238 C137.010342,20.1752381 136.501389,20.0099048 136.005389,20.0099048 C135.475866,20.0099048 134.935675,20.1866667 134.496056,20.5721905 C134.042723,20.9691429 133.702151,21.5641905 133.536056,22.3908571 L138.155485,22.3908571 Z M139.930723,26.2270476 L139.930723,28.7299048 C138.915104,29.2259048 137.658723,29.4140952 136.677389,29.4140952 C135.08958,29.4140952 133.625199,28.9173333 132.544056,27.936 C131.463675,26.9554286 130.779485,25.4567619 130.779485,23.4712381 C130.779485,21.5420952 131.418723,20.0655238 132.390151,19.0506667 C133.347866,18.048 134.638532,17.5291429 135.929199,17.5291429 C136.292628,17.5291429 136.942532,17.5740952 137.616056,17.8049524 C138.288056,18.0365714 139.026342,18.4777143 139.576437,19.2388571 C140.128056,19.9992381 140.514342,21.1238095 140.514342,22.711619 L140.514342,24.4304762 L133.56958,24.4304762 C133.779104,25.3569524 134.252247,25.9847619 134.870151,26.3824762 C135.475866,26.7786667 136.215675,26.9447619 136.953199,26.9447619 C137.923866,26.9447619 138.949389,26.6689524 139.831675,26.1950476 L139.930723,26.2270476 L139.930723,26.2270476 Z" id="Fill-11" fill="#2F2F2E"></path>
                                    <path d="M61.5436752,44.5447619 C61.5436752,45.5047619 61.7966276,46.3748571 62.2933895,47.0148571 C62.7901514,47.6540952 63.561199,48.0617143 64.5859609,48.0617143 C65.5566276,48.0617143 66.2842466,47.6990476 66.7688181,47.0925714 C67.2533895,46.4853333 67.4857704,45.6365714 67.4857704,44.6552381 C67.4857704,43.6845714 67.2533895,42.8038095 66.7688181,42.1638095 C66.2728181,41.5245714 65.5352942,41.1382857 64.5204371,41.1382857 C63.5398657,41.1382857 62.7901514,41.5032381 62.2933895,42.1089524 C61.7966276,42.7260952 61.5436752,43.5748571 61.5436752,44.5447619 Z M58.9090085,44.6445714 C58.9090085,42.936381 59.4926276,41.447619 60.4960561,40.3779048 C61.4994847,39.3097143 62.9112942,38.6575238 64.5752942,38.6575238 C66.2507228,38.6575238 67.6396752,39.3097143 68.6103419,40.3779048 C69.5802466,41.447619 70.1311038,42.9135238 70.1311038,44.5790476 C70.1311038,46.2651429 69.5581514,47.7630476 68.5661514,48.8228571 C67.5741514,49.8925714 66.1516752,50.5432381 64.4762466,50.5432381 C62.8000561,50.5432381 61.4111038,49.8925714 60.441199,48.8335238 C59.4598657,47.7752381 58.9090085,46.2872381 58.9090085,44.6445714 L58.9090085,44.6445714 Z" id="Fill-12" fill="#2F2F2E"></path>
                                    <polyline id="Fill-13" fill="#2F2F2E" points="75.2442466 50.3215238 71.3090085 38.8784762 74.1082466 38.8784762 76.6773895 46.3527619 76.745199 46.3527619 79.31358 38.8784762 82.1143419 38.8784762 78.17758 50.3215238 75.2442466 50.3215238"></polyline>
                                    <path d="M90.6644371,43.5192381 C90.6126276,42.6826667 90.3139609,42.0868571 89.9177704,41.6906667 C89.5192942,41.304381 89.0126276,41.1382857 88.5158657,41.1382857 C87.9878657,41.1382857 87.4476752,41.3158095 87.0072942,41.7005714 C86.5547228,42.0975238 86.2126276,42.6933333 86.0472942,43.5192381 L90.6644371,43.5192381 Z M92.441199,47.3554286 L92.441199,49.8582857 C91.4263419,50.3542857 90.1707228,50.5432381 89.1893895,50.5432381 C87.6023419,50.5432381 86.1356752,50.0464762 85.0545323,49.0651429 C83.9741514,48.0830476 83.2914847,46.5851429 83.2914847,44.599619 C83.2914847,42.6712381 83.9314847,41.1939048 84.8998657,40.1798095 C85.8598657,39.1771429 87.1482466,38.6575238 88.4396752,38.6575238 C88.8031038,38.6575238 89.4552942,38.7024762 90.1250085,38.9348571 C90.7977704,39.1649524 91.5360561,39.6060952 92.089199,40.3672381 C92.6408181,41.127619 93.0248181,42.2514286 93.0248181,43.8392381 L93.0248181,45.559619 L86.0800561,45.559619 C86.28958,46.4853333 86.7642466,47.1139048 87.3806276,47.5108571 C87.9878657,47.9070476 88.7269133,48.0731429 89.4636752,48.0731429 C90.4343419,48.0731429 91.4591038,47.7973333 92.3421514,47.3234286 L92.441199,47.3554286 L92.441199,47.3554286 Z" id="Fill-14" fill="#2F2F2E"></path>
                                    <path d="M102.515866,41.7226667 C101.865961,41.3257143 101.225961,41.1497143 100.576818,41.1497143 C99.7379609,41.1497143 98.9653895,41.4582857 98.2705323,41.9878095 L98.2705323,50.3215238 L95.6922466,50.3215238 L95.6922466,38.8784762 L97.8743419,38.8784762 L98.1402466,39.815619 C98.9341514,39.1428571 99.9032942,38.6575238 101.049199,38.6575238 C101.358532,38.6575238 101.788247,38.6811429 102.207294,38.7573333 C102.627866,38.8342857 103.033961,38.9447619 103.331104,39.1100952 L102.515866,41.7226667" id="Fill-15" fill="#2F2F2E"></path>
                                    <path d="M105.502532,34.5790476 L107.685389,34.3588571 L108.083104,34.3588571 L108.083104,39.6830476 C109.107866,39.0224762 110.365009,38.6689524 111.588628,38.6689524 C112.681199,38.6689524 113.727294,38.967619 114.487675,39.6167619 C115.24958,40.2788571 115.743294,41.2830476 115.743294,42.7260952 L115.743294,50.3215238 L113.16577,50.3215238 L113.16577,43.4864762 C113.16577,42.6384762 112.856437,42.0426667 112.38177,41.6678095 C111.908628,41.2929524 111.269389,41.1382857 110.575294,41.1382857 C109.691485,41.1382857 108.788628,41.4034286 108.083104,41.8445714 L108.083104,50.3215238 L105.502532,50.3215238 L105.502532,34.5790476" id="Fill-16" fill="#2F2F2E"></path>
                                    <path d="M125.730342,43.5192381 C125.675485,42.6826667 125.378342,42.0868571 124.980628,41.6906667 C124.584437,41.304381 124.076247,41.1382857 123.58177,41.1382857 C123.050723,41.1382857 122.510532,41.3158095 122.070913,41.7005714 C121.61758,42.0975238 121.27777,42.6933333 121.110913,43.5192381 L125.730342,43.5192381 Z M127.50558,47.3554286 L127.50558,49.8582857 C126.490723,50.3542857 125.235104,50.5432381 124.252247,50.5432381 C122.664437,50.5432381 121.200818,50.0464762 120.120437,49.0651429 C119.040056,48.0830476 118.354342,46.5851429 118.354342,44.599619 C118.354342,42.6712381 118.99358,41.1939048 119.965009,40.1798095 C120.923485,39.1771429 122.214151,38.6575238 123.504056,38.6575238 C123.869009,38.6575238 124.517389,38.7024762 125.190151,38.9348571 C125.863675,39.1649524 126.600437,39.6060952 127.151294,40.3672381 C127.703675,41.127619 128.090723,42.2514286 128.090723,43.8392381 L128.090723,45.559619 L121.145199,45.559619 C121.355485,46.4853333 121.828628,47.1139048 122.44577,47.5108571 C123.050723,47.9070476 123.791294,48.0731429 124.52958,48.0731429 C125.499485,48.0731429 126.524247,47.7973333 127.407294,47.3234286 L127.50558,47.3554286 L127.50558,47.3554286 Z" id="Fill-17" fill="#2F2F2E"></path>
                                    <path d="M130.755866,50.3215238 L133.335675,50.3215238 L133.335675,38.8784762 L130.755866,38.8784762 L130.755866,50.3215238 Z M130.514342,35.8689524 C130.514342,35.4392381 130.678151,35.0758095 130.954723,34.8 C131.230532,34.5249524 131.603866,34.3588571 132.035866,34.3588571 C132.46558,34.3588571 132.851104,34.5249524 133.126913,34.8 C133.392818,35.0758095 133.568056,35.4392381 133.568056,35.8689524 C133.568056,36.2994286 133.392818,36.6742857 133.126913,36.9386667 C132.851104,37.2144762 132.46558,37.3798095 132.035866,37.3798095 C131.603866,37.3798095 131.230532,37.2144762 130.954723,36.9386667 C130.678151,36.6742857 130.514342,36.2994286 130.514342,35.8689524 L130.514342,35.8689524 Z" id="Fill-18" fill="#2F2F2E"></path>
                                    <path d="M143.833199,41.304381 C143.182532,41.1382857 142.521961,41.0620952 142.002342,41.0620952 C141.020247,41.0620952 140.19358,41.3485714 139.621389,41.943619 C139.047675,42.5386667 138.717009,43.4209524 138.717009,44.6118095 C138.717009,45.4819048 138.959294,46.3306667 139.422532,46.9805714 C139.885009,47.6327619 140.569199,48.0617143 141.484247,48.0617143 C142.267485,48.0617143 143.139104,47.7866667 143.833199,47.3554286 L143.833199,41.304381 Z M146.411485,50.3215238 L144.461009,50.3215238 L143.997009,49.4613333 C143.115485,50.1226667 142.190532,50.5432381 140.921961,50.5432381 C139.279294,50.5432381 138.056437,49.880381 137.251104,48.8662857 C136.44577,47.8521905 136.050342,46.4853333 136.050342,45.0742857 C136.050342,42.9135238 136.700247,41.304381 137.779104,40.2346667 C138.859485,39.1771429 140.38177,38.6575238 142.14558,38.6575238 C142.663675,38.6575238 143.225961,38.6918095 143.833199,38.7695238 L143.833199,34.5790476 L146.014532,34.3588571 L146.411485,34.3588571 L146.411485,50.3215238 L146.411485,50.3215238 Z" id="Fill-19" fill="#2F2F2E"></path>
                                    <path d="M28.0861514,32.2270476 C26.5341514,31.0422857 25.8072942,32.2361905 24.8305323,32.1569524 C24.0046276,32.0914286 23.2312942,30.7580952 22.5920561,31.0765714 C21.3722466,31.6975238 23.0804371,33.8918095 23.8225323,34.3390476 C24.4823419,34.7352381 25.3143419,35.0994286 25.5139609,35.192381 C26.4945323,35.6502857 26.8846276,36.343619 27.0080561,37.4270476 C27.0392942,37.6754286 27.0080561,38.2422857 26.9471038,38.5059048 C26.4998657,40.4045714 23.1733895,42.1295238 21.2632942,40.824381 C20.3634847,40.2087619 19.5421514,39.4118095 19.2579609,38.0030476 C18.7436752,35.5078095 16.9425323,33.672381 16.3650085,31.2312381 C16.0137704,29.7478095 15.7539609,28.1820952 15.3661514,26.6895238 C14.9730085,25.1466667 14.5676752,23.6182857 14.2446276,22.216381 C13.9497704,20.9127619 13.3303419,18.9653333 12.88158,17.7775238 C11.0568181,13.0148571 10.2324371,13.36 10.2324371,13.36 C10.2324371,13.36 10.8968181,14.6826667 13.3128181,26.3580952 C13.4126276,26.8358095 14.2903419,31.9786667 14.9318657,33.6708571 C15.161199,34.2780952 15.561199,35.5740952 15.8248181,36.1470476 C16.59358,37.8201905 18.6225323,40.3558095 18.7566276,42.6415238 C18.83358,43.9626667 18.9836752,45.0567619 19.0156752,46.056381 C19.0347228,46.3497143 19.1642466,47.5420952 19.3547228,48.071619 C19.8499609,49.4659048 23.8499609,53.9641905 28.0960561,53.9641905 L28.0960561,50.5546667 C23.8766276,50.5546667 19.9025323,48.1904762 19.8042466,47.9420952 C19.7432942,47.8300952 20.0236752,46.2171429 20.3093895,45.5001905 C20.8617704,44.112 21.9048181,42.8426667 23.7379609,42.7070476 C25.7813895,42.5592381 27.0156752,43.1535238 28.0960561,43.1535238 L28.0861514,32.2270476" id="Fill-20" fill="#2F2F2E"></path>
                                    <path d="M9.76234186,19.8537143 C9.6076752,22.4068571 5.6564371,25.8979048 4.41834186,28.136381 C3.81186567,29.2373333 3.07129424,31.1268571 2.88005615,32.2224762 C2.35434186,35.2678095 3.02100853,37.1611429 3.76386567,38.9432381 C5.07129424,42.0777143 3.58710377,43.2289524 4.60881805,42.5935238 C5.87434186,41.5626667 5.68234186,39.1580952 5.58862758,37.656381 C5.51548472,36.4373333 5.43319901,35.0521905 5.61834186,33.6 C5.96881805,30.8830476 7.61453234,27.9664762 9.01872282,25.927619 C10.6865323,23.496381 10.0808181,20.9813333 9.76234186,19.8537143" id="Fill-21" fill="#2F2F2E"></path>
                                    <path d="M10.5585323,27.1047619 C10.5585323,27.1047619 10.9798657,29.127619 9.19548472,34.327619 C4.52881805,47.9299048 13.4431038,49.2190476 15.9810085,52.4167619 C15.9810085,52.4167619 16.9631038,51.0308571 12.9196752,46.5965714 C11.4438657,44.976 10.1120561,41.4064762 11.2716752,36.3062857 C12.9501514,28.9234286 10.5585323,27.1047619 10.5585323,27.1047619" id="Fill-22" fill="#2F2F2E"></path>
                                    <path d="M1.73415139,18.1866667 C1.52081805,17.3828571 1.45605615,16.664381 1.50253234,16.0228571 C1.71815139,12.8259048 4.62100853,11.5329524 5.34405615,11.0567619 C5.34405615,11.0567619 6.64919901,10.1622857 6.81757996,9.26019048 C6.81757996,9.26019048 8.15396091,12.6232381 5.08957996,14.5508571 C3.53453234,15.5306667 2.47777044,16.6780952 1.73415139,18.1866667" id="Fill-23" fill="#2F2F2E"></path>
                                    <path d="M9.05377044,15.096381 C9.21910377,15.4217143 10.4221514,17.1824762 5.49491329,21.2495238 C0.577579959,25.3104762 2.11357996,28.2133333 2.11357996,28.2133333 C2.11357996,28.2133333 -3.13594385,25.2937143 2.91129424,20.2491429 C8.95548472,15.208381 7.71662758,14.1859048 7.71662758,14.1859048 C7.71662758,14.1859048 8.58215139,14.144 9.05377044,15.096381" id="Fill-24" fill="#2F2F2E"></path>
                                    <path d="M18.1013895,17.8491429 C18.1730085,17.6586667 18.2758657,17.8118095 18.4914847,17.6761905 C18.72158,17.4590476 18.9570085,17.1017143 19.3311038,16.9828571 C19.5985323,16.9013333 19.9665323,16.9394286 20.217199,17.0361905 C20.3832942,17.0780952 20.2827228,17.5070476 20.1577704,17.6167619 C19.8911038,17.8133333 19.1048181,17.4887619 19.1048181,18.0784762 C19.13758,19.0453333 20.4107228,18.048 21.0766276,18.0754286 C21.4019609,20.4335238 17.5223419,19.7851429 18.1013895,17.8491429 Z M15.4499609,16.6537143 C16.3010085,16.7657143 16.8427228,19.4201905 18.8114847,19.9977143 C20.2591038,20.4205714 21.7981514,20.1912381 22.1394847,21.0620952 C21.4751038,21.4140952 21.9992942,22.5828571 22.6667228,22.3908571 C23.2183419,20.840381 23.4956752,14.8434286 15.4499609,16.6537143 L15.4499609,16.6537143 Z" id="Fill-25" fill="#2F2F2E"></path>
                                    <g id="Vlaanderen_verbeelding-werkt" transform="translate(0.253009, 0.000000)">
                                        <g id="Group-29" transform="translate(27.428571, 0.000000)" fill="#2F2F2E">
                                            <polyline id="Fill-28" points="22.0365714 64 0.521904762 0.743619048 0.828190476 0.639238095 22.3428571 63.895619 22.0365714 64"></polyline>
                                        </g>
                                        <g id="Group-36" transform="translate(0.000000, 9.142857)">
                                            <mask id="mask-2" fill="white">
                                                <use xlink:href="#path-1"></use>
                                            </mask>
                                            <g id="Clip-34"></g>
                                        </g>
                                    </g>
                                </g>
                            </g>
                        </g>
                    </g>
                </g>
            </g>
        </g>
    </g>
</svg>