<?xml version="1.0" encoding="UTF-8"?>
<svg width="97px" height="19px" viewBox="0 0 97 19" version="1.1" xmlns="http://www.w3.org/2000/svg" xmlns:xlink="http://www.w3.org/1999/xlink">
    <title>DEB8D416-8C0C-4915-889C-C607D8B48219</title>
    <g id="Page-1" stroke="none" stroke-width="1" fill="none" fill-rule="evenodd" opacity="0.48">
        <g id="1.000-Book-a-Dev" transform="translate(-147.000000, -230.000000)">
            <g id="Group-49" transform="translate(148.000000, 230.000000)">
                <g id="Group-48" transform="translate(16.000000, 0.000000)" fill="#FFFFFF">
                    <text id="Title-Copy" font-family="OpenSans-Bold, Open Sans" font-size="8" font-weight="bold">
                        <tspan x="24" y="13">BELGISCH</tspan>
                    </text>
                    <path d="M10,0.688204967 C15.114502,0.688204967 19.2755737,4.64122314 19.2755737,9.50017394 C19.2755737,14.3589508 15.114502,18.311969 10,18.311969 C4.88549805,18.311969 0.724426281,14.3589508 0.724426281,9.50017394 C0.724426281,7.51000977 1.40594481,5.63204346 2.69519041,4.06892698 C2.85485837,3.87549436 3.14947511,3.84140017 3.35327148,3.99308474 C3.55706786,4.14494325 3.59277344,4.4248291 3.43310547,4.61843566 C2.27423097,6.0230835 1.66174319,7.71109619 1.66174319,9.50017394 C1.66174319,13.8678894 5.40222166,17.421344 10,17.421344 C14.5975952,17.421344 18.3380737,13.8678894 18.3380737,9.50017394 C18.3380737,5.13228456 14.5975952,1.57882997 10,1.57882997 C8.72833253,1.57882997 7.50793459,1.84358214 6.37249755,2.36560667 C6.13958739,2.47275999 5.85906981,2.38021853 5.74627684,2.1587799 C5.63366697,1.93751525 5.73107912,1.67119749 5.96417237,1.56404417 C7.2279663,0.982876576 8.58587645,0.688204967 10,0.688204967 Z M5.61279297,13.914508 C5.77264403,13.7212494 6.06744386,13.687677 6.270874,13.8395355 C7.32775881,14.6287476 8.59887695,15.0457062 9.94635011,15.0457062 C10.8814697,15.0457062 11.7764893,14.8458374 12.6063232,14.4513184 C12.8379517,14.3413818 13.1193848,14.4304443 13.2352905,14.6503174 C13.3510132,14.8703644 13.2572632,15.1378998 13.0258179,15.2478363 C12.0645142,15.7046295 11.0285034,15.9363312 9.94635011,15.9363312 C8.3866577,15.9363312 6.91522216,15.4534454 5.69171144,14.539859 C5.48809816,14.3878265 5.45275881,14.1079407 5.61279297,13.914508 Z M14.1220703,13.5888733 C14.3053589,13.5540832 14.4994507,13.6306213 14.6030884,13.7781311 C14.7296143,13.9619965 14.6984863,14.2135284 14.5234375,14.3598205 C14.3778686,14.4810639 14.163269,14.504895 13.9926147,14.4180939 C13.8226929,14.3318146 13.7234497,14.1489929 13.7487182,13.9673889 C13.7745362,13.7803925 13.9276123,13.6259247 14.1220703,13.5888733 Z M4.19171144,7.06226194 C4.45043945,7.06226194 4.66046144,7.26160889 4.66046144,7.50757444 L4.66046144,7.50757444 L4.66046144,10.9227387 L4.95819091,10.9227387 C5.21691897,10.9227387 5.42694091,11.1220856 5.42694091,11.3680512 C5.42694091,11.6140167 5.21691897,11.8133637 4.95819091,11.8133637 L4.95819091,11.8133637 L3.40911864,11.8133637 C3.15020753,11.8133637 2.94036864,11.6140167 2.94036864,11.3680512 C2.94036864,11.1220856 3.15020753,10.9227387 3.40911864,10.9227387 L3.40911864,10.9227387 L3.72296144,10.9227387 L3.72296144,7.97758789 L3.52685547,8.21485596 C3.3671875,8.40846251 3.07257081,8.44220887 2.86877444,8.29035036 C2.66516116,8.13866579 2.62945558,7.8587799 2.78930664,7.66517334 L2.78930664,7.66517334 L3.14636228,7.23273318 C3.23516847,7.12505799 3.37121584,7.06226194 3.51513672,7.06226194 L3.51513672,7.06226194 Z M7.15673828,6.98728944 C7.93072511,6.98728944 8.56060792,7.58567811 8.56060792,8.32113954 L8.56060792,8.32113954 L8.56060792,10.4796875 C8.56060792,11.2151489 7.9309082,11.8133637 7.15673828,11.8133637 L7.15673828,11.8133637 L6.91320803,11.8133637 C6.13903806,11.8133637 5.50933839,11.2151489 5.50933839,10.4796875 L5.50933839,10.4796875 L5.50933839,8.32113954 C5.50933839,7.58567811 6.13903806,6.98728944 6.91320803,6.98728944 L6.91320803,6.98728944 Z M10.6908569,6.98728944 C11.4648437,6.98728944 12.0947266,7.58567811 12.0947266,8.32113954 L12.0947266,8.32113954 L12.0947266,10.4796875 C12.0947266,11.2151489 11.4650268,11.8133637 10.6908569,11.8133637 L10.6908569,11.8133637 L10.4473267,11.8133637 C9.67315675,11.8133637 9.04345703,11.2151489 9.04345703,10.4796875 L9.04345703,10.4796875 L9.04345703,8.32113954 C9.04345703,7.58567811 9.67315675,6.98728944 10.4473267,6.98728944 L10.4473267,6.98728944 Z M16.4088745,9.56192627 C17.0171509,9.56192627 17.5120849,10.0321137 17.5120849,10.6099762 C17.5120849,11.1878388 17.0171509,11.6580261 16.4088745,11.6580261 C15.8007812,11.6580261 15.3058472,11.1878388 15.3058472,10.6099762 C15.3058472,10.0321137 15.8007812,9.56192627 16.4088745,9.56192627 Z M16.2265015,7.03147277 C16.3788452,6.83264768 16.6719971,6.78863829 16.8812866,6.93319092 C17.0905762,7.07791748 17.1370849,7.35641173 16.9847412,7.55523682 L16.9847412,7.55523682 L14.0063477,11.4463287 C13.9146118,11.5661804 13.7716065,11.6298462 13.62677,11.6298462 C13.531189,11.6298462 13.4346924,11.6020142 13.3515625,11.5446106 C13.1420898,11.400058 13.0957642,11.1215637 13.2481079,10.9225647 L13.2481079,10.9225647 Z M16.4092424,10.1347136 C16.1333995,10.1347136 15.908966,10.3479252 15.908966,10.6099761 C15.908966,10.872027 16.1333995,11.0852388 16.4092424,11.0852388 C16.6850855,11.0852388 16.908966,10.872027 16.908966,10.6099761 C16.908966,10.3479252 16.6850855,10.1347136 16.4092424,10.1347136 Z M7.15673828,7.87791444 L6.91320803,7.87791444 C6.65612791,7.87791444 6.44683839,8.07673948 6.44683839,8.32113954 L6.44683839,8.32113954 L6.44683839,10.4796875 C6.44683839,10.7239136 6.65612791,10.9227387 6.91320803,10.9227387 L6.91320803,10.9227387 L7.15673828,10.9227387 C7.41381836,10.9227387 7.62310792,10.7239136 7.62310792,10.4796875 L7.62310792,10.4796875 L7.62310792,8.32113954 C7.62310792,8.07673948 7.41381836,7.87791444 7.15673828,7.87791444 L7.15673828,7.87791444 Z M10.6908569,7.87791444 L10.4473267,7.87791444 C10.1902466,7.87791444 9.98095703,8.07673948 9.98095703,8.32113954 L9.98095703,8.32113954 L9.98095703,10.4796875 C9.98095703,10.7240875 10.1902466,10.9227387 10.4473267,10.9227387 L10.4473267,10.9227387 L10.6908569,10.9227387 C10.947937,10.9227387 11.1572266,10.7239136 11.1572266,10.4796875 L11.1572266,10.4796875 L11.1572266,8.32113954 C11.1572266,8.07673948 10.947937,7.87791444 10.6908569,7.87791444 L10.6908569,7.87791444 Z M13.807312,6.84812928 C14.4154052,6.84812928 14.9103393,7.31814269 14.9103393,7.89600526 C14.9103393,8.47386779 14.4154052,8.94405518 13.807312,8.94405518 C13.1990357,8.94405518 12.7041016,8.47386779 12.7041016,7.89600526 C12.7041016,7.31814269 13.1990357,6.84812928 13.807312,6.84812928 Z M13.8074968,7.4208296 C13.5316539,7.4208296 13.3072205,7.6340414 13.3072205,7.8960923 C13.3072205,8.1581432 13.5316539,8.37135486 13.8074968,8.37135486 C14.0833399,8.37135486 14.3072205,8.1581432 14.3072205,7.8960923 C14.3072205,7.6340414 14.0833399,7.4208296 13.8074968,7.4208296 Z M10,2.842926 C11.5596924,2.842926 13.0309448,3.32581175 14.2548218,4.23957215 C14.458252,4.39143066 14.4935913,4.67149046 14.3337402,4.86474913 C14.173706,5.05818175 13.8790893,5.09175413 13.6754761,4.93972168 C12.6185913,4.15068359 11.3476562,3.733551 10,3.733551 C8.55950927,3.733551 7.16955569,4.22861328 6.0859375,5.12758789 C5.99713136,5.20116883 5.88726808,5.23735048 5.77795412,5.23735048 C5.6472168,5.23735048 5.51721194,5.18586122 5.42456055,5.0849701 C5.25427244,4.89971311 5.27441406,4.61843566 5.46942137,4.456662 C6.72369386,3.41609191 8.33282472,2.842926 10,2.842926 Z M4.24151612,2.6117462 C4.40740966,2.50755003 4.62860106,2.51416016 4.78698728,2.62861936 C4.94226072,2.74081727 5.0078125,2.9419037 4.94757081,3.1179413 C4.88787841,3.29223937 4.71795653,3.41783143 4.52459716,3.42652892 C4.32867433,3.43522645 4.1444702,3.3242462 4.06903075,3.15220947 C3.98553466,2.95860292 4.05657958,2.727771 4.24151612,2.6117462 Z" id="Combined-Shape" fill-rule="nonzero"></path>
                </g>
                <line x1="12" y1="10" x2="0" y2="10" id="Path-4-Copy-2" stroke="#FFFFFF" stroke-linecap="round"></line>
                <line x1="95" y1="10" x2="83" y2="10" id="Path-4-Copy-3" stroke="#FFFFFF" stroke-linecap="round"></line>
            </g>
        </g>
    </g>
</svg>